G04 #@! TF.GenerationSoftware,KiCad,Pcbnew,(5.1.5)-3*
G04 #@! TF.CreationDate,2021-01-15T00:08:51-08:00*
G04 #@! TF.ProjectId,KHP2100,4b485032-3130-4302-9e6b-696361645f70,NC*
G04 #@! TF.SameCoordinates,Original*
G04 #@! TF.FileFunction,Soldermask,Bot*
G04 #@! TF.FilePolarity,Negative*
%FSLAX46Y46*%
G04 Gerber Fmt 4.6, Leading zero omitted, Abs format (unit mm)*
G04 Created by KiCad (PCBNEW (5.1.5)-3) date 2021-01-15 00:08:51*
%MOMM*%
%LPD*%
G04 APERTURE LIST*
%ADD10C,0.100000*%
G04 APERTURE END LIST*
D10*
G36*
X167794374Y-116206784D02*
G01*
X168012374Y-116297083D01*
X168166523Y-116360933D01*
X168501448Y-116584723D01*
X168786277Y-116869552D01*
X169010067Y-117204477D01*
X169073917Y-117358626D01*
X169164216Y-117576626D01*
X169242800Y-117971694D01*
X169242800Y-118374506D01*
X169164216Y-118769574D01*
X169080222Y-118972353D01*
X169010067Y-119141723D01*
X168786277Y-119476648D01*
X168501448Y-119761477D01*
X168166523Y-119985267D01*
X168012374Y-120049117D01*
X167794374Y-120139416D01*
X167399306Y-120218000D01*
X166996494Y-120218000D01*
X166601426Y-120139416D01*
X166383426Y-120049117D01*
X166229277Y-119985267D01*
X165894352Y-119761477D01*
X165609523Y-119476648D01*
X165385733Y-119141723D01*
X165315578Y-118972353D01*
X165231584Y-118769574D01*
X165153000Y-118374506D01*
X165153000Y-117971694D01*
X165231584Y-117576626D01*
X165321883Y-117358626D01*
X165385733Y-117204477D01*
X165609523Y-116869552D01*
X165894352Y-116584723D01*
X166229277Y-116360933D01*
X166383426Y-116297083D01*
X166601426Y-116206784D01*
X166996494Y-116128200D01*
X167399306Y-116128200D01*
X167794374Y-116206784D01*
G37*
G36*
X129699524Y-116206784D02*
G01*
X129917524Y-116297083D01*
X130071673Y-116360933D01*
X130406598Y-116584723D01*
X130691427Y-116869552D01*
X130915217Y-117204477D01*
X130979067Y-117358626D01*
X131069366Y-117576626D01*
X131147950Y-117971694D01*
X131147950Y-118374506D01*
X131069366Y-118769574D01*
X130985372Y-118972353D01*
X130915217Y-119141723D01*
X130691427Y-119476648D01*
X130406598Y-119761477D01*
X130071673Y-119985267D01*
X129917524Y-120049117D01*
X129699524Y-120139416D01*
X129304456Y-120218000D01*
X128901644Y-120218000D01*
X128506576Y-120139416D01*
X128288576Y-120049117D01*
X128134427Y-119985267D01*
X127799502Y-119761477D01*
X127514673Y-119476648D01*
X127290883Y-119141723D01*
X127220728Y-118972353D01*
X127136734Y-118769574D01*
X127058150Y-118374506D01*
X127058150Y-117971694D01*
X127136734Y-117576626D01*
X127227033Y-117358626D01*
X127290883Y-117204477D01*
X127514673Y-116869552D01*
X127799502Y-116584723D01*
X128134427Y-116360933D01*
X128288576Y-116297083D01*
X128506576Y-116206784D01*
X128901644Y-116128200D01*
X129304456Y-116128200D01*
X129699524Y-116206784D01*
G37*
G36*
X148749524Y-116206784D02*
G01*
X148967524Y-116297083D01*
X149121673Y-116360933D01*
X149456598Y-116584723D01*
X149741427Y-116869552D01*
X149965217Y-117204477D01*
X150029067Y-117358626D01*
X150119366Y-117576626D01*
X150197950Y-117971694D01*
X150197950Y-118374506D01*
X150119366Y-118769574D01*
X150035372Y-118972353D01*
X149965217Y-119141723D01*
X149741427Y-119476648D01*
X149456598Y-119761477D01*
X149121673Y-119985267D01*
X148967524Y-120049117D01*
X148749524Y-120139416D01*
X148354456Y-120218000D01*
X147951644Y-120218000D01*
X147556576Y-120139416D01*
X147338576Y-120049117D01*
X147184427Y-119985267D01*
X146849502Y-119761477D01*
X146564673Y-119476648D01*
X146340883Y-119141723D01*
X146270728Y-118972353D01*
X146186734Y-118769574D01*
X146108150Y-118374506D01*
X146108150Y-117971694D01*
X146186734Y-117576626D01*
X146277033Y-117358626D01*
X146340883Y-117204477D01*
X146564673Y-116869552D01*
X146849502Y-116584723D01*
X147184427Y-116360933D01*
X147338576Y-116297083D01*
X147556576Y-116206784D01*
X147951644Y-116128200D01*
X148354456Y-116128200D01*
X148749524Y-116206784D01*
G37*
G36*
X153409002Y-117288530D02*
G01*
X153496125Y-117305859D01*
X153605548Y-117351184D01*
X153660261Y-117373847D01*
X153806983Y-117471883D01*
X153807978Y-117472548D01*
X153933602Y-117598172D01*
X153933604Y-117598175D01*
X154032303Y-117745889D01*
X154032303Y-117745890D01*
X154100291Y-117910025D01*
X154134950Y-118084271D01*
X154134950Y-118261929D01*
X154100291Y-118436175D01*
X154054966Y-118545598D01*
X154032303Y-118600311D01*
X153934267Y-118747033D01*
X153933602Y-118748028D01*
X153807978Y-118873652D01*
X153807975Y-118873654D01*
X153660261Y-118972353D01*
X153605548Y-118995016D01*
X153496125Y-119040341D01*
X153409002Y-119057671D01*
X153321881Y-119075000D01*
X153144219Y-119075000D01*
X153057098Y-119057671D01*
X152969975Y-119040341D01*
X152860552Y-118995016D01*
X152805839Y-118972353D01*
X152658125Y-118873654D01*
X152658122Y-118873652D01*
X152532498Y-118748028D01*
X152531833Y-118747033D01*
X152433797Y-118600311D01*
X152411134Y-118545598D01*
X152365809Y-118436175D01*
X152331150Y-118261929D01*
X152331150Y-118084271D01*
X152365809Y-117910025D01*
X152433797Y-117745890D01*
X152433797Y-117745889D01*
X152532496Y-117598175D01*
X152532498Y-117598172D01*
X152658122Y-117472548D01*
X152659117Y-117471883D01*
X152805839Y-117373847D01*
X152860552Y-117351184D01*
X152969975Y-117305859D01*
X153057098Y-117288530D01*
X153144219Y-117271200D01*
X153321881Y-117271200D01*
X153409002Y-117288530D01*
G37*
G36*
X162293852Y-117288530D02*
G01*
X162380975Y-117305859D01*
X162490398Y-117351184D01*
X162545111Y-117373847D01*
X162691833Y-117471883D01*
X162692828Y-117472548D01*
X162818452Y-117598172D01*
X162818454Y-117598175D01*
X162917153Y-117745889D01*
X162917153Y-117745890D01*
X162985141Y-117910025D01*
X163019800Y-118084271D01*
X163019800Y-118261929D01*
X162985141Y-118436175D01*
X162939816Y-118545598D01*
X162917153Y-118600311D01*
X162819117Y-118747033D01*
X162818452Y-118748028D01*
X162692828Y-118873652D01*
X162692825Y-118873654D01*
X162545111Y-118972353D01*
X162490398Y-118995016D01*
X162380975Y-119040341D01*
X162293852Y-119057671D01*
X162206731Y-119075000D01*
X162029069Y-119075000D01*
X161941948Y-119057671D01*
X161854825Y-119040341D01*
X161745402Y-118995016D01*
X161690689Y-118972353D01*
X161542975Y-118873654D01*
X161542972Y-118873652D01*
X161417348Y-118748028D01*
X161416683Y-118747033D01*
X161318647Y-118600311D01*
X161295984Y-118545598D01*
X161250659Y-118436175D01*
X161216000Y-118261929D01*
X161216000Y-118084271D01*
X161250659Y-117910025D01*
X161318647Y-117745890D01*
X161318647Y-117745889D01*
X161417346Y-117598175D01*
X161417348Y-117598172D01*
X161542972Y-117472548D01*
X161543967Y-117471883D01*
X161690689Y-117373847D01*
X161745402Y-117351184D01*
X161854825Y-117305859D01*
X161941948Y-117288530D01*
X162029069Y-117271200D01*
X162206731Y-117271200D01*
X162293852Y-117288530D01*
G37*
G36*
X172453852Y-117288530D02*
G01*
X172540975Y-117305859D01*
X172650398Y-117351184D01*
X172705111Y-117373847D01*
X172851833Y-117471883D01*
X172852828Y-117472548D01*
X172978452Y-117598172D01*
X172978454Y-117598175D01*
X173077153Y-117745889D01*
X173077153Y-117745890D01*
X173145141Y-117910025D01*
X173179800Y-118084271D01*
X173179800Y-118261929D01*
X173145141Y-118436175D01*
X173099816Y-118545598D01*
X173077153Y-118600311D01*
X172979117Y-118747033D01*
X172978452Y-118748028D01*
X172852828Y-118873652D01*
X172852825Y-118873654D01*
X172705111Y-118972353D01*
X172650398Y-118995016D01*
X172540975Y-119040341D01*
X172453852Y-119057671D01*
X172366731Y-119075000D01*
X172189069Y-119075000D01*
X172101948Y-119057671D01*
X172014825Y-119040341D01*
X171905402Y-118995016D01*
X171850689Y-118972353D01*
X171702975Y-118873654D01*
X171702972Y-118873652D01*
X171577348Y-118748028D01*
X171576683Y-118747033D01*
X171478647Y-118600311D01*
X171455984Y-118545598D01*
X171410659Y-118436175D01*
X171376000Y-118261929D01*
X171376000Y-118084271D01*
X171410659Y-117910025D01*
X171478647Y-117745890D01*
X171478647Y-117745889D01*
X171577346Y-117598175D01*
X171577348Y-117598172D01*
X171702972Y-117472548D01*
X171703967Y-117471883D01*
X171850689Y-117373847D01*
X171905402Y-117351184D01*
X172014825Y-117305859D01*
X172101948Y-117288530D01*
X172189069Y-117271200D01*
X172366731Y-117271200D01*
X172453852Y-117288530D01*
G37*
G36*
X143249002Y-117288530D02*
G01*
X143336125Y-117305859D01*
X143445548Y-117351184D01*
X143500261Y-117373847D01*
X143646983Y-117471883D01*
X143647978Y-117472548D01*
X143773602Y-117598172D01*
X143773604Y-117598175D01*
X143872303Y-117745889D01*
X143872303Y-117745890D01*
X143940291Y-117910025D01*
X143974950Y-118084271D01*
X143974950Y-118261929D01*
X143940291Y-118436175D01*
X143894966Y-118545598D01*
X143872303Y-118600311D01*
X143774267Y-118747033D01*
X143773602Y-118748028D01*
X143647978Y-118873652D01*
X143647975Y-118873654D01*
X143500261Y-118972353D01*
X143445548Y-118995016D01*
X143336125Y-119040341D01*
X143249002Y-119057671D01*
X143161881Y-119075000D01*
X142984219Y-119075000D01*
X142897098Y-119057671D01*
X142809975Y-119040341D01*
X142700552Y-118995016D01*
X142645839Y-118972353D01*
X142498125Y-118873654D01*
X142498122Y-118873652D01*
X142372498Y-118748028D01*
X142371833Y-118747033D01*
X142273797Y-118600311D01*
X142251134Y-118545598D01*
X142205809Y-118436175D01*
X142171150Y-118261929D01*
X142171150Y-118084271D01*
X142205809Y-117910025D01*
X142273797Y-117745890D01*
X142273797Y-117745889D01*
X142372496Y-117598175D01*
X142372498Y-117598172D01*
X142498122Y-117472548D01*
X142499117Y-117471883D01*
X142645839Y-117373847D01*
X142700552Y-117351184D01*
X142809975Y-117305859D01*
X142897098Y-117288530D01*
X142984219Y-117271200D01*
X143161881Y-117271200D01*
X143249002Y-117288530D01*
G37*
G36*
X124199002Y-117288530D02*
G01*
X124286125Y-117305859D01*
X124395548Y-117351184D01*
X124450261Y-117373847D01*
X124596983Y-117471883D01*
X124597978Y-117472548D01*
X124723602Y-117598172D01*
X124723604Y-117598175D01*
X124822303Y-117745889D01*
X124822303Y-117745890D01*
X124890291Y-117910025D01*
X124924950Y-118084271D01*
X124924950Y-118261929D01*
X124890291Y-118436175D01*
X124844966Y-118545598D01*
X124822303Y-118600311D01*
X124724267Y-118747033D01*
X124723602Y-118748028D01*
X124597978Y-118873652D01*
X124597975Y-118873654D01*
X124450261Y-118972353D01*
X124395548Y-118995016D01*
X124286125Y-119040341D01*
X124199002Y-119057671D01*
X124111881Y-119075000D01*
X123934219Y-119075000D01*
X123847098Y-119057671D01*
X123759975Y-119040341D01*
X123650552Y-118995016D01*
X123595839Y-118972353D01*
X123448125Y-118873654D01*
X123448122Y-118873652D01*
X123322498Y-118748028D01*
X123321833Y-118747033D01*
X123223797Y-118600311D01*
X123201134Y-118545598D01*
X123155809Y-118436175D01*
X123121150Y-118261929D01*
X123121150Y-118084271D01*
X123155809Y-117910025D01*
X123223797Y-117745890D01*
X123223797Y-117745889D01*
X123322496Y-117598175D01*
X123322498Y-117598172D01*
X123448122Y-117472548D01*
X123449117Y-117471883D01*
X123595839Y-117373847D01*
X123650552Y-117351184D01*
X123759975Y-117305859D01*
X123847098Y-117288530D01*
X123934219Y-117271200D01*
X124111881Y-117271200D01*
X124199002Y-117288530D01*
G37*
G36*
X134359002Y-117288530D02*
G01*
X134446125Y-117305859D01*
X134555548Y-117351184D01*
X134610261Y-117373847D01*
X134756983Y-117471883D01*
X134757978Y-117472548D01*
X134883602Y-117598172D01*
X134883604Y-117598175D01*
X134982303Y-117745889D01*
X134982303Y-117745890D01*
X135050291Y-117910025D01*
X135084950Y-118084271D01*
X135084950Y-118261929D01*
X135050291Y-118436175D01*
X135004966Y-118545598D01*
X134982303Y-118600311D01*
X134884267Y-118747033D01*
X134883602Y-118748028D01*
X134757978Y-118873652D01*
X134757975Y-118873654D01*
X134610261Y-118972353D01*
X134555548Y-118995016D01*
X134446125Y-119040341D01*
X134359002Y-119057671D01*
X134271881Y-119075000D01*
X134094219Y-119075000D01*
X134007098Y-119057671D01*
X133919975Y-119040341D01*
X133810552Y-118995016D01*
X133755839Y-118972353D01*
X133608125Y-118873654D01*
X133608122Y-118873652D01*
X133482498Y-118748028D01*
X133481833Y-118747033D01*
X133383797Y-118600311D01*
X133361134Y-118545598D01*
X133315809Y-118436175D01*
X133281150Y-118261929D01*
X133281150Y-118084271D01*
X133315809Y-117910025D01*
X133383797Y-117745890D01*
X133383797Y-117745889D01*
X133482496Y-117598175D01*
X133482498Y-117598172D01*
X133608122Y-117472548D01*
X133609117Y-117471883D01*
X133755839Y-117373847D01*
X133810552Y-117351184D01*
X133919975Y-117305859D01*
X134007098Y-117288530D01*
X134094219Y-117271200D01*
X134271881Y-117271200D01*
X134359002Y-117288530D01*
G37*
G36*
X164964464Y-113352489D02*
G01*
X165155733Y-113431715D01*
X165155735Y-113431716D01*
X165327873Y-113546735D01*
X165474265Y-113693127D01*
X165589285Y-113865267D01*
X165668511Y-114056536D01*
X165708900Y-114259584D01*
X165708900Y-114466616D01*
X165668511Y-114669664D01*
X165589285Y-114860933D01*
X165589284Y-114860935D01*
X165474265Y-115033073D01*
X165327873Y-115179465D01*
X165155735Y-115294484D01*
X165155734Y-115294485D01*
X165155733Y-115294485D01*
X164964464Y-115373711D01*
X164761416Y-115414100D01*
X164554384Y-115414100D01*
X164351336Y-115373711D01*
X164160067Y-115294485D01*
X164160066Y-115294485D01*
X164160065Y-115294484D01*
X163987927Y-115179465D01*
X163841535Y-115033073D01*
X163726516Y-114860935D01*
X163726515Y-114860933D01*
X163647289Y-114669664D01*
X163606900Y-114466616D01*
X163606900Y-114259584D01*
X163647289Y-114056536D01*
X163726515Y-113865267D01*
X163841535Y-113693127D01*
X163987927Y-113546735D01*
X164160065Y-113431716D01*
X164160067Y-113431715D01*
X164351336Y-113352489D01*
X164554384Y-113312100D01*
X164761416Y-113312100D01*
X164964464Y-113352489D01*
G37*
G36*
X145919614Y-113352489D02*
G01*
X146110883Y-113431715D01*
X146110885Y-113431716D01*
X146283023Y-113546735D01*
X146429415Y-113693127D01*
X146544435Y-113865267D01*
X146623661Y-114056536D01*
X146664050Y-114259584D01*
X146664050Y-114466616D01*
X146623661Y-114669664D01*
X146544435Y-114860933D01*
X146544434Y-114860935D01*
X146429415Y-115033073D01*
X146283023Y-115179465D01*
X146110885Y-115294484D01*
X146110884Y-115294485D01*
X146110883Y-115294485D01*
X145919614Y-115373711D01*
X145716566Y-115414100D01*
X145509534Y-115414100D01*
X145306486Y-115373711D01*
X145115217Y-115294485D01*
X145115216Y-115294485D01*
X145115215Y-115294484D01*
X144943077Y-115179465D01*
X144796685Y-115033073D01*
X144681666Y-114860935D01*
X144681665Y-114860933D01*
X144602439Y-114669664D01*
X144562050Y-114466616D01*
X144562050Y-114259584D01*
X144602439Y-114056536D01*
X144681665Y-113865267D01*
X144796685Y-113693127D01*
X144943077Y-113546735D01*
X145115215Y-113431716D01*
X145115217Y-113431715D01*
X145306486Y-113352489D01*
X145509534Y-113312100D01*
X145716566Y-113312100D01*
X145919614Y-113352489D01*
G37*
G36*
X126869614Y-113352489D02*
G01*
X127060883Y-113431715D01*
X127060885Y-113431716D01*
X127233023Y-113546735D01*
X127379415Y-113693127D01*
X127494435Y-113865267D01*
X127573661Y-114056536D01*
X127614050Y-114259584D01*
X127614050Y-114466616D01*
X127573661Y-114669664D01*
X127494435Y-114860933D01*
X127494434Y-114860935D01*
X127379415Y-115033073D01*
X127233023Y-115179465D01*
X127060885Y-115294484D01*
X127060884Y-115294485D01*
X127060883Y-115294485D01*
X126869614Y-115373711D01*
X126666566Y-115414100D01*
X126459534Y-115414100D01*
X126256486Y-115373711D01*
X126065217Y-115294485D01*
X126065216Y-115294485D01*
X126065215Y-115294484D01*
X125893077Y-115179465D01*
X125746685Y-115033073D01*
X125631666Y-114860935D01*
X125631665Y-114860933D01*
X125552439Y-114669664D01*
X125512050Y-114466616D01*
X125512050Y-114259584D01*
X125552439Y-114056536D01*
X125631665Y-113865267D01*
X125746685Y-113693127D01*
X125893077Y-113546735D01*
X126065215Y-113431716D01*
X126065217Y-113431715D01*
X126256486Y-113352489D01*
X126459534Y-113312100D01*
X126666566Y-113312100D01*
X126869614Y-113352489D01*
G37*
G36*
X131949614Y-112082489D02*
G01*
X132140883Y-112161715D01*
X132140885Y-112161716D01*
X132313023Y-112276735D01*
X132459415Y-112423127D01*
X132574435Y-112595267D01*
X132653661Y-112786536D01*
X132694050Y-112989584D01*
X132694050Y-113196616D01*
X132653661Y-113399664D01*
X132592742Y-113546735D01*
X132574434Y-113590935D01*
X132459415Y-113763073D01*
X132313023Y-113909465D01*
X132140885Y-114024484D01*
X132140884Y-114024485D01*
X132140883Y-114024485D01*
X131949614Y-114103711D01*
X131746566Y-114144100D01*
X131539534Y-114144100D01*
X131336486Y-114103711D01*
X131145217Y-114024485D01*
X131145216Y-114024485D01*
X131145215Y-114024484D01*
X130973077Y-113909465D01*
X130826685Y-113763073D01*
X130711666Y-113590935D01*
X130693358Y-113546735D01*
X130632439Y-113399664D01*
X130592050Y-113196616D01*
X130592050Y-112989584D01*
X130632439Y-112786536D01*
X130711665Y-112595267D01*
X130826685Y-112423127D01*
X130973077Y-112276735D01*
X131145215Y-112161716D01*
X131145217Y-112161715D01*
X131336486Y-112082489D01*
X131539534Y-112042100D01*
X131746566Y-112042100D01*
X131949614Y-112082489D01*
G37*
G36*
X170044464Y-112082489D02*
G01*
X170235733Y-112161715D01*
X170235735Y-112161716D01*
X170407873Y-112276735D01*
X170554265Y-112423127D01*
X170669285Y-112595267D01*
X170748511Y-112786536D01*
X170788900Y-112989584D01*
X170788900Y-113196616D01*
X170748511Y-113399664D01*
X170687592Y-113546735D01*
X170669284Y-113590935D01*
X170554265Y-113763073D01*
X170407873Y-113909465D01*
X170235735Y-114024484D01*
X170235734Y-114024485D01*
X170235733Y-114024485D01*
X170044464Y-114103711D01*
X169841416Y-114144100D01*
X169634384Y-114144100D01*
X169431336Y-114103711D01*
X169240067Y-114024485D01*
X169240066Y-114024485D01*
X169240065Y-114024484D01*
X169067927Y-113909465D01*
X168921535Y-113763073D01*
X168806516Y-113590935D01*
X168788208Y-113546735D01*
X168727289Y-113399664D01*
X168686900Y-113196616D01*
X168686900Y-112989584D01*
X168727289Y-112786536D01*
X168806515Y-112595267D01*
X168921535Y-112423127D01*
X169067927Y-112276735D01*
X169240065Y-112161716D01*
X169240067Y-112161715D01*
X169431336Y-112082489D01*
X169634384Y-112042100D01*
X169841416Y-112042100D01*
X170044464Y-112082489D01*
G37*
G36*
X150999614Y-112082489D02*
G01*
X151190883Y-112161715D01*
X151190885Y-112161716D01*
X151363023Y-112276735D01*
X151509415Y-112423127D01*
X151624435Y-112595267D01*
X151703661Y-112786536D01*
X151744050Y-112989584D01*
X151744050Y-113196616D01*
X151703661Y-113399664D01*
X151642742Y-113546735D01*
X151624434Y-113590935D01*
X151509415Y-113763073D01*
X151363023Y-113909465D01*
X151190885Y-114024484D01*
X151190884Y-114024485D01*
X151190883Y-114024485D01*
X150999614Y-114103711D01*
X150796566Y-114144100D01*
X150589534Y-114144100D01*
X150386486Y-114103711D01*
X150195217Y-114024485D01*
X150195216Y-114024485D01*
X150195215Y-114024484D01*
X150023077Y-113909465D01*
X149876685Y-113763073D01*
X149761666Y-113590935D01*
X149743358Y-113546735D01*
X149682439Y-113399664D01*
X149642050Y-113196616D01*
X149642050Y-112989584D01*
X149682439Y-112786536D01*
X149761665Y-112595267D01*
X149876685Y-112423127D01*
X150023077Y-112276735D01*
X150195215Y-112161716D01*
X150195217Y-112161715D01*
X150386486Y-112082489D01*
X150589534Y-112042100D01*
X150796566Y-112042100D01*
X150999614Y-112082489D01*
G37*
G36*
X142388614Y-66115656D02*
G01*
X142579883Y-66194882D01*
X142579885Y-66194883D01*
X142752023Y-66309902D01*
X142898415Y-66456294D01*
X143013435Y-66628434D01*
X143092661Y-66819703D01*
X143133050Y-67022751D01*
X143133050Y-67229783D01*
X143092661Y-67432831D01*
X143013435Y-67624100D01*
X143013434Y-67624102D01*
X142898415Y-67796240D01*
X142752023Y-67942632D01*
X142579885Y-68057651D01*
X142579884Y-68057652D01*
X142579883Y-68057652D01*
X142388614Y-68136878D01*
X142185566Y-68177267D01*
X141978534Y-68177267D01*
X141775486Y-68136878D01*
X141584217Y-68057652D01*
X141584216Y-68057652D01*
X141584215Y-68057651D01*
X141412077Y-67942632D01*
X141265685Y-67796240D01*
X141150666Y-67624102D01*
X141150665Y-67624100D01*
X141071439Y-67432831D01*
X141031050Y-67229783D01*
X141031050Y-67022751D01*
X141071439Y-66819703D01*
X141150665Y-66628434D01*
X141265685Y-66456294D01*
X141412077Y-66309902D01*
X141584215Y-66194883D01*
X141584217Y-66194882D01*
X141775486Y-66115656D01*
X141978534Y-66075267D01*
X142185566Y-66075267D01*
X142388614Y-66115656D01*
G37*
G36*
X121888614Y-66115656D02*
G01*
X122079883Y-66194882D01*
X122079885Y-66194883D01*
X122252023Y-66309902D01*
X122398415Y-66456294D01*
X122513435Y-66628434D01*
X122592661Y-66819703D01*
X122633050Y-67022751D01*
X122633050Y-67229783D01*
X122592661Y-67432831D01*
X122513435Y-67624100D01*
X122513434Y-67624102D01*
X122398415Y-67796240D01*
X122252023Y-67942632D01*
X122079885Y-68057651D01*
X122079884Y-68057652D01*
X122079883Y-68057652D01*
X121888614Y-68136878D01*
X121685566Y-68177267D01*
X121478534Y-68177267D01*
X121275486Y-68136878D01*
X121084217Y-68057652D01*
X121084216Y-68057652D01*
X121084215Y-68057651D01*
X120912077Y-67942632D01*
X120765685Y-67796240D01*
X120650666Y-67624102D01*
X120650665Y-67624100D01*
X120571439Y-67432831D01*
X120531050Y-67229783D01*
X120531050Y-67022751D01*
X120571439Y-66819703D01*
X120650665Y-66628434D01*
X120765685Y-66456294D01*
X120912077Y-66309902D01*
X121084215Y-66194883D01*
X121084217Y-66194882D01*
X121275486Y-66115656D01*
X121478534Y-66075267D01*
X121685566Y-66075267D01*
X121888614Y-66115656D01*
G37*
G36*
X172673259Y-62260589D02*
G01*
X172692201Y-62276134D01*
X172713812Y-62287685D01*
X172737260Y-62294798D01*
X172761646Y-62297200D01*
X173209900Y-62297200D01*
X173209900Y-63959200D01*
X172107900Y-63959200D01*
X172107900Y-62297200D01*
X172556154Y-62297200D01*
X172580540Y-62294798D01*
X172603989Y-62287685D01*
X172625600Y-62276134D01*
X172644542Y-62260589D01*
X172658900Y-62243093D01*
X172673259Y-62260589D01*
G37*
G36*
X175213259Y-62260589D02*
G01*
X175232201Y-62276134D01*
X175253812Y-62287685D01*
X175277260Y-62294798D01*
X175301646Y-62297200D01*
X175749900Y-62297200D01*
X175749900Y-63959200D01*
X174647900Y-63959200D01*
X174647900Y-62297200D01*
X175096154Y-62297200D01*
X175120540Y-62294798D01*
X175143989Y-62287685D01*
X175165600Y-62276134D01*
X175184542Y-62260589D01*
X175198900Y-62243093D01*
X175213259Y-62260589D01*
G37*
G36*
X170133259Y-62260589D02*
G01*
X170152201Y-62276134D01*
X170173812Y-62287685D01*
X170197260Y-62294798D01*
X170221646Y-62297200D01*
X170669900Y-62297200D01*
X170669900Y-63959200D01*
X169567900Y-63959200D01*
X169567900Y-62297200D01*
X170016154Y-62297200D01*
X170040540Y-62294798D01*
X170063989Y-62287685D01*
X170085600Y-62276134D01*
X170104542Y-62260589D01*
X170118900Y-62243093D01*
X170133259Y-62260589D01*
G37*
G36*
X170282538Y-60953759D02*
G01*
X170384634Y-60996049D01*
X170476514Y-61057441D01*
X170554659Y-61135586D01*
X170616051Y-61227466D01*
X170658341Y-61329563D01*
X170679900Y-61437947D01*
X170679900Y-61548453D01*
X170658341Y-61656837D01*
X170616051Y-61758934D01*
X170554659Y-61850814D01*
X170476514Y-61928959D01*
X170384634Y-61990351D01*
X170333585Y-62011496D01*
X170282538Y-62032641D01*
X170197258Y-62049604D01*
X170173810Y-62056717D01*
X170152200Y-62068268D01*
X170133258Y-62083814D01*
X170118900Y-62101309D01*
X170104542Y-62083813D01*
X170085600Y-62068268D01*
X170063989Y-62056717D01*
X170040542Y-62049604D01*
X169955262Y-62032641D01*
X169904215Y-62011496D01*
X169853166Y-61990351D01*
X169761286Y-61928959D01*
X169683141Y-61850814D01*
X169621749Y-61758934D01*
X169579459Y-61656837D01*
X169557900Y-61548453D01*
X169557900Y-61437947D01*
X169579459Y-61329563D01*
X169621749Y-61227466D01*
X169683141Y-61135586D01*
X169761286Y-61057441D01*
X169853166Y-60996049D01*
X169904215Y-60974904D01*
X169955262Y-60953759D01*
X170063646Y-60932200D01*
X170174154Y-60932200D01*
X170282538Y-60953759D01*
G37*
G36*
X175362538Y-60953759D02*
G01*
X175464634Y-60996049D01*
X175556514Y-61057441D01*
X175634659Y-61135586D01*
X175696051Y-61227466D01*
X175738341Y-61329563D01*
X175759900Y-61437947D01*
X175759900Y-61548453D01*
X175738341Y-61656837D01*
X175696051Y-61758934D01*
X175634659Y-61850814D01*
X175556514Y-61928959D01*
X175464634Y-61990351D01*
X175413585Y-62011496D01*
X175362538Y-62032641D01*
X175277258Y-62049604D01*
X175253810Y-62056717D01*
X175232200Y-62068268D01*
X175213258Y-62083814D01*
X175198900Y-62101309D01*
X175184542Y-62083813D01*
X175165600Y-62068268D01*
X175143989Y-62056717D01*
X175120542Y-62049604D01*
X175035262Y-62032641D01*
X174984215Y-62011496D01*
X174933166Y-61990351D01*
X174841286Y-61928959D01*
X174763141Y-61850814D01*
X174701749Y-61758934D01*
X174659459Y-61656837D01*
X174637900Y-61548453D01*
X174637900Y-61437947D01*
X174659459Y-61329563D01*
X174701749Y-61227466D01*
X174763141Y-61135586D01*
X174841286Y-61057441D01*
X174933166Y-60996049D01*
X174984215Y-60974904D01*
X175035262Y-60953759D01*
X175143646Y-60932200D01*
X175254154Y-60932200D01*
X175362538Y-60953759D01*
G37*
G36*
X172822538Y-60953759D02*
G01*
X172924634Y-60996049D01*
X173016514Y-61057441D01*
X173094659Y-61135586D01*
X173156051Y-61227466D01*
X173198341Y-61329563D01*
X173219900Y-61437947D01*
X173219900Y-61548453D01*
X173198341Y-61656837D01*
X173156051Y-61758934D01*
X173094659Y-61850814D01*
X173016514Y-61928959D01*
X172924634Y-61990351D01*
X172873585Y-62011496D01*
X172822538Y-62032641D01*
X172737258Y-62049604D01*
X172713810Y-62056717D01*
X172692200Y-62068268D01*
X172673258Y-62083814D01*
X172658900Y-62101309D01*
X172644542Y-62083813D01*
X172625600Y-62068268D01*
X172603989Y-62056717D01*
X172580542Y-62049604D01*
X172495262Y-62032641D01*
X172444215Y-62011496D01*
X172393166Y-61990351D01*
X172301286Y-61928959D01*
X172223141Y-61850814D01*
X172161749Y-61758934D01*
X172119459Y-61656837D01*
X172097900Y-61548453D01*
X172097900Y-61437947D01*
X172119459Y-61329563D01*
X172161749Y-61227466D01*
X172223141Y-61135586D01*
X172301286Y-61057441D01*
X172393166Y-60996049D01*
X172444215Y-60974904D01*
X172495262Y-60953759D01*
X172603646Y-60932200D01*
X172714154Y-60932200D01*
X172822538Y-60953759D01*
G37*
G36*
X172673258Y-58362587D02*
G01*
X172692200Y-58378132D01*
X172713811Y-58389683D01*
X172737258Y-58396796D01*
X172822538Y-58413759D01*
X172924634Y-58456049D01*
X173016514Y-58517441D01*
X173094659Y-58595586D01*
X173156051Y-58687466D01*
X173198341Y-58789563D01*
X173219900Y-58897947D01*
X173219900Y-59008453D01*
X173198341Y-59116837D01*
X173156051Y-59218934D01*
X173094659Y-59310814D01*
X173016514Y-59388959D01*
X172924634Y-59450351D01*
X172873585Y-59471496D01*
X172822538Y-59492641D01*
X172714154Y-59514200D01*
X172603646Y-59514200D01*
X172495262Y-59492641D01*
X172444215Y-59471496D01*
X172393166Y-59450351D01*
X172301286Y-59388959D01*
X172223141Y-59310814D01*
X172161749Y-59218934D01*
X172119459Y-59116837D01*
X172097900Y-59008453D01*
X172097900Y-58897947D01*
X172119459Y-58789563D01*
X172161749Y-58687466D01*
X172223141Y-58595586D01*
X172301286Y-58517441D01*
X172393166Y-58456049D01*
X172444215Y-58434904D01*
X172495262Y-58413759D01*
X172580542Y-58396796D01*
X172603990Y-58389683D01*
X172625600Y-58378132D01*
X172644542Y-58362586D01*
X172658900Y-58345091D01*
X172673258Y-58362587D01*
G37*
G36*
X170133258Y-58362587D02*
G01*
X170152200Y-58378132D01*
X170173811Y-58389683D01*
X170197258Y-58396796D01*
X170282538Y-58413759D01*
X170384634Y-58456049D01*
X170476514Y-58517441D01*
X170554659Y-58595586D01*
X170616051Y-58687466D01*
X170658341Y-58789563D01*
X170679900Y-58897947D01*
X170679900Y-59008453D01*
X170658341Y-59116837D01*
X170616051Y-59218934D01*
X170554659Y-59310814D01*
X170476514Y-59388959D01*
X170384634Y-59450351D01*
X170333585Y-59471496D01*
X170282538Y-59492641D01*
X170174154Y-59514200D01*
X170063646Y-59514200D01*
X169955262Y-59492641D01*
X169904215Y-59471496D01*
X169853166Y-59450351D01*
X169761286Y-59388959D01*
X169683141Y-59310814D01*
X169621749Y-59218934D01*
X169579459Y-59116837D01*
X169557900Y-59008453D01*
X169557900Y-58897947D01*
X169579459Y-58789563D01*
X169621749Y-58687466D01*
X169683141Y-58595586D01*
X169761286Y-58517441D01*
X169853166Y-58456049D01*
X169904215Y-58434904D01*
X169955262Y-58413759D01*
X170040542Y-58396796D01*
X170063990Y-58389683D01*
X170085600Y-58378132D01*
X170104542Y-58362586D01*
X170118900Y-58345091D01*
X170133258Y-58362587D01*
G37*
G36*
X175213258Y-58362587D02*
G01*
X175232200Y-58378132D01*
X175253811Y-58389683D01*
X175277258Y-58396796D01*
X175362538Y-58413759D01*
X175464634Y-58456049D01*
X175556514Y-58517441D01*
X175634659Y-58595586D01*
X175696051Y-58687466D01*
X175738341Y-58789563D01*
X175759900Y-58897947D01*
X175759900Y-59008453D01*
X175738341Y-59116837D01*
X175696051Y-59218934D01*
X175634659Y-59310814D01*
X175556514Y-59388959D01*
X175464634Y-59450351D01*
X175413585Y-59471496D01*
X175362538Y-59492641D01*
X175254154Y-59514200D01*
X175143646Y-59514200D01*
X175035262Y-59492641D01*
X174984215Y-59471496D01*
X174933166Y-59450351D01*
X174841286Y-59388959D01*
X174763141Y-59310814D01*
X174701749Y-59218934D01*
X174659459Y-59116837D01*
X174637900Y-59008453D01*
X174637900Y-58897947D01*
X174659459Y-58789563D01*
X174701749Y-58687466D01*
X174763141Y-58595586D01*
X174841286Y-58517441D01*
X174933166Y-58456049D01*
X174984215Y-58434904D01*
X175035262Y-58413759D01*
X175120542Y-58396796D01*
X175143990Y-58389683D01*
X175165600Y-58378132D01*
X175184542Y-58362586D01*
X175198900Y-58345091D01*
X175213258Y-58362587D01*
G37*
G36*
X173209900Y-58149200D02*
G01*
X172761646Y-58149200D01*
X172737260Y-58151602D01*
X172713811Y-58158715D01*
X172692200Y-58170266D01*
X172673258Y-58185811D01*
X172658900Y-58203307D01*
X172644541Y-58185811D01*
X172625599Y-58170266D01*
X172603988Y-58158715D01*
X172580540Y-58151602D01*
X172556154Y-58149200D01*
X172107900Y-58149200D01*
X172107900Y-56487200D01*
X173209900Y-56487200D01*
X173209900Y-58149200D01*
G37*
G36*
X170669900Y-58149200D02*
G01*
X170221646Y-58149200D01*
X170197260Y-58151602D01*
X170173811Y-58158715D01*
X170152200Y-58170266D01*
X170133258Y-58185811D01*
X170118900Y-58203307D01*
X170104541Y-58185811D01*
X170085599Y-58170266D01*
X170063988Y-58158715D01*
X170040540Y-58151602D01*
X170016154Y-58149200D01*
X169567900Y-58149200D01*
X169567900Y-56487200D01*
X170669900Y-56487200D01*
X170669900Y-58149200D01*
G37*
G36*
X175749900Y-58149200D02*
G01*
X175301646Y-58149200D01*
X175277260Y-58151602D01*
X175253811Y-58158715D01*
X175232200Y-58170266D01*
X175213258Y-58185811D01*
X175198900Y-58203307D01*
X175184541Y-58185811D01*
X175165599Y-58170266D01*
X175143988Y-58158715D01*
X175120540Y-58151602D01*
X175096154Y-58149200D01*
X174647900Y-58149200D01*
X174647900Y-56487200D01*
X175749900Y-56487200D01*
X175749900Y-58149200D01*
G37*
M02*
