G04 #@! TF.GenerationSoftware,KiCad,Pcbnew,(5.1.5)-3*
G04 #@! TF.CreationDate,2021-01-15T00:08:51-08:00*
G04 #@! TF.ProjectId,KHP2100,4b485032-3130-4302-9e6b-696361645f70,NC*
G04 #@! TF.SameCoordinates,Original*
G04 #@! TF.FileFunction,Paste,Top*
G04 #@! TF.FilePolarity,Positive*
%FSLAX46Y46*%
G04 Gerber Fmt 4.6, Leading zero omitted, Abs format (unit mm)*
G04 Created by KiCad (PCBNEW (5.1.5)-3) date 2021-01-15 00:08:51*
%MOMM*%
%LPD*%
G04 APERTURE LIST*
%ADD10C,0.100000*%
%ADD11R,0.650000X0.850000*%
%ADD12R,1.200000X0.900000*%
%ADD13R,1.600000X1.000000*%
%ADD14R,3.200000X1.000000*%
%ADD15R,0.600000X1.050000*%
%ADD16R,1.870000X1.050000*%
%ADD17R,0.550000X1.600000*%
%ADD18R,1.600000X0.550000*%
G04 APERTURE END LIST*
D10*
G36*
X120184779Y-97002344D02*
G01*
X120207834Y-97005763D01*
X120230443Y-97011427D01*
X120252387Y-97019279D01*
X120273457Y-97029244D01*
X120293448Y-97041226D01*
X120312168Y-97055110D01*
X120329438Y-97070762D01*
X120345090Y-97088032D01*
X120358974Y-97106752D01*
X120370956Y-97126743D01*
X120380921Y-97147813D01*
X120388773Y-97169757D01*
X120394437Y-97192366D01*
X120397856Y-97215421D01*
X120399000Y-97238700D01*
X120399000Y-97713700D01*
X120397856Y-97736979D01*
X120394437Y-97760034D01*
X120388773Y-97782643D01*
X120380921Y-97804587D01*
X120370956Y-97825657D01*
X120358974Y-97845648D01*
X120345090Y-97864368D01*
X120329438Y-97881638D01*
X120312168Y-97897290D01*
X120293448Y-97911174D01*
X120273457Y-97923156D01*
X120252387Y-97933121D01*
X120230443Y-97940973D01*
X120207834Y-97946637D01*
X120184779Y-97950056D01*
X120161500Y-97951200D01*
X119586500Y-97951200D01*
X119563221Y-97950056D01*
X119540166Y-97946637D01*
X119517557Y-97940973D01*
X119495613Y-97933121D01*
X119474543Y-97923156D01*
X119454552Y-97911174D01*
X119435832Y-97897290D01*
X119418562Y-97881638D01*
X119402910Y-97864368D01*
X119389026Y-97845648D01*
X119377044Y-97825657D01*
X119367079Y-97804587D01*
X119359227Y-97782643D01*
X119353563Y-97760034D01*
X119350144Y-97736979D01*
X119349000Y-97713700D01*
X119349000Y-97238700D01*
X119350144Y-97215421D01*
X119353563Y-97192366D01*
X119359227Y-97169757D01*
X119367079Y-97147813D01*
X119377044Y-97126743D01*
X119389026Y-97106752D01*
X119402910Y-97088032D01*
X119418562Y-97070762D01*
X119435832Y-97055110D01*
X119454552Y-97041226D01*
X119474543Y-97029244D01*
X119495613Y-97019279D01*
X119517557Y-97011427D01*
X119540166Y-97005763D01*
X119563221Y-97002344D01*
X119586500Y-97001200D01*
X120161500Y-97001200D01*
X120184779Y-97002344D01*
G37*
G36*
X118434779Y-97002344D02*
G01*
X118457834Y-97005763D01*
X118480443Y-97011427D01*
X118502387Y-97019279D01*
X118523457Y-97029244D01*
X118543448Y-97041226D01*
X118562168Y-97055110D01*
X118579438Y-97070762D01*
X118595090Y-97088032D01*
X118608974Y-97106752D01*
X118620956Y-97126743D01*
X118630921Y-97147813D01*
X118638773Y-97169757D01*
X118644437Y-97192366D01*
X118647856Y-97215421D01*
X118649000Y-97238700D01*
X118649000Y-97713700D01*
X118647856Y-97736979D01*
X118644437Y-97760034D01*
X118638773Y-97782643D01*
X118630921Y-97804587D01*
X118620956Y-97825657D01*
X118608974Y-97845648D01*
X118595090Y-97864368D01*
X118579438Y-97881638D01*
X118562168Y-97897290D01*
X118543448Y-97911174D01*
X118523457Y-97923156D01*
X118502387Y-97933121D01*
X118480443Y-97940973D01*
X118457834Y-97946637D01*
X118434779Y-97950056D01*
X118411500Y-97951200D01*
X117836500Y-97951200D01*
X117813221Y-97950056D01*
X117790166Y-97946637D01*
X117767557Y-97940973D01*
X117745613Y-97933121D01*
X117724543Y-97923156D01*
X117704552Y-97911174D01*
X117685832Y-97897290D01*
X117668562Y-97881638D01*
X117652910Y-97864368D01*
X117639026Y-97845648D01*
X117627044Y-97825657D01*
X117617079Y-97804587D01*
X117609227Y-97782643D01*
X117603563Y-97760034D01*
X117600144Y-97736979D01*
X117599000Y-97713700D01*
X117599000Y-97238700D01*
X117600144Y-97215421D01*
X117603563Y-97192366D01*
X117609227Y-97169757D01*
X117617079Y-97147813D01*
X117627044Y-97126743D01*
X117639026Y-97106752D01*
X117652910Y-97088032D01*
X117668562Y-97070762D01*
X117685832Y-97055110D01*
X117704552Y-97041226D01*
X117724543Y-97029244D01*
X117745613Y-97019279D01*
X117767557Y-97011427D01*
X117790166Y-97005763D01*
X117813221Y-97002344D01*
X117836500Y-97001200D01*
X118411500Y-97001200D01*
X118434779Y-97002344D01*
G37*
G36*
X142988829Y-59749344D02*
G01*
X143011884Y-59752763D01*
X143034493Y-59758427D01*
X143056437Y-59766279D01*
X143077507Y-59776244D01*
X143097498Y-59788226D01*
X143116218Y-59802110D01*
X143133488Y-59817762D01*
X143149140Y-59835032D01*
X143163024Y-59853752D01*
X143175006Y-59873743D01*
X143184971Y-59894813D01*
X143192823Y-59916757D01*
X143198487Y-59939366D01*
X143201906Y-59962421D01*
X143203050Y-59985700D01*
X143203050Y-60460700D01*
X143201906Y-60483979D01*
X143198487Y-60507034D01*
X143192823Y-60529643D01*
X143184971Y-60551587D01*
X143175006Y-60572657D01*
X143163024Y-60592648D01*
X143149140Y-60611368D01*
X143133488Y-60628638D01*
X143116218Y-60644290D01*
X143097498Y-60658174D01*
X143077507Y-60670156D01*
X143056437Y-60680121D01*
X143034493Y-60687973D01*
X143011884Y-60693637D01*
X142988829Y-60697056D01*
X142965550Y-60698200D01*
X142390550Y-60698200D01*
X142367271Y-60697056D01*
X142344216Y-60693637D01*
X142321607Y-60687973D01*
X142299663Y-60680121D01*
X142278593Y-60670156D01*
X142258602Y-60658174D01*
X142239882Y-60644290D01*
X142222612Y-60628638D01*
X142206960Y-60611368D01*
X142193076Y-60592648D01*
X142181094Y-60572657D01*
X142171129Y-60551587D01*
X142163277Y-60529643D01*
X142157613Y-60507034D01*
X142154194Y-60483979D01*
X142153050Y-60460700D01*
X142153050Y-59985700D01*
X142154194Y-59962421D01*
X142157613Y-59939366D01*
X142163277Y-59916757D01*
X142171129Y-59894813D01*
X142181094Y-59873743D01*
X142193076Y-59853752D01*
X142206960Y-59835032D01*
X142222612Y-59817762D01*
X142239882Y-59802110D01*
X142258602Y-59788226D01*
X142278593Y-59776244D01*
X142299663Y-59766279D01*
X142321607Y-59758427D01*
X142344216Y-59752763D01*
X142367271Y-59749344D01*
X142390550Y-59748200D01*
X142965550Y-59748200D01*
X142988829Y-59749344D01*
G37*
G36*
X141238829Y-59749344D02*
G01*
X141261884Y-59752763D01*
X141284493Y-59758427D01*
X141306437Y-59766279D01*
X141327507Y-59776244D01*
X141347498Y-59788226D01*
X141366218Y-59802110D01*
X141383488Y-59817762D01*
X141399140Y-59835032D01*
X141413024Y-59853752D01*
X141425006Y-59873743D01*
X141434971Y-59894813D01*
X141442823Y-59916757D01*
X141448487Y-59939366D01*
X141451906Y-59962421D01*
X141453050Y-59985700D01*
X141453050Y-60460700D01*
X141451906Y-60483979D01*
X141448487Y-60507034D01*
X141442823Y-60529643D01*
X141434971Y-60551587D01*
X141425006Y-60572657D01*
X141413024Y-60592648D01*
X141399140Y-60611368D01*
X141383488Y-60628638D01*
X141366218Y-60644290D01*
X141347498Y-60658174D01*
X141327507Y-60670156D01*
X141306437Y-60680121D01*
X141284493Y-60687973D01*
X141261884Y-60693637D01*
X141238829Y-60697056D01*
X141215550Y-60698200D01*
X140640550Y-60698200D01*
X140617271Y-60697056D01*
X140594216Y-60693637D01*
X140571607Y-60687973D01*
X140549663Y-60680121D01*
X140528593Y-60670156D01*
X140508602Y-60658174D01*
X140489882Y-60644290D01*
X140472612Y-60628638D01*
X140456960Y-60611368D01*
X140443076Y-60592648D01*
X140431094Y-60572657D01*
X140421129Y-60551587D01*
X140413277Y-60529643D01*
X140407613Y-60507034D01*
X140404194Y-60483979D01*
X140403050Y-60460700D01*
X140403050Y-59985700D01*
X140404194Y-59962421D01*
X140407613Y-59939366D01*
X140413277Y-59916757D01*
X140421129Y-59894813D01*
X140431094Y-59873743D01*
X140443076Y-59853752D01*
X140456960Y-59835032D01*
X140472612Y-59817762D01*
X140489882Y-59802110D01*
X140508602Y-59788226D01*
X140528593Y-59776244D01*
X140549663Y-59766279D01*
X140571607Y-59758427D01*
X140594216Y-59752763D01*
X140617271Y-59749344D01*
X140640550Y-59748200D01*
X141215550Y-59748200D01*
X141238829Y-59749344D01*
G37*
D11*
X139887766Y-76696400D03*
X140737766Y-76696400D03*
X139887766Y-75246400D03*
X140737766Y-75246400D03*
D10*
G36*
X155688829Y-59749344D02*
G01*
X155711884Y-59752763D01*
X155734493Y-59758427D01*
X155756437Y-59766279D01*
X155777507Y-59776244D01*
X155797498Y-59788226D01*
X155816218Y-59802110D01*
X155833488Y-59817762D01*
X155849140Y-59835032D01*
X155863024Y-59853752D01*
X155875006Y-59873743D01*
X155884971Y-59894813D01*
X155892823Y-59916757D01*
X155898487Y-59939366D01*
X155901906Y-59962421D01*
X155903050Y-59985700D01*
X155903050Y-60460700D01*
X155901906Y-60483979D01*
X155898487Y-60507034D01*
X155892823Y-60529643D01*
X155884971Y-60551587D01*
X155875006Y-60572657D01*
X155863024Y-60592648D01*
X155849140Y-60611368D01*
X155833488Y-60628638D01*
X155816218Y-60644290D01*
X155797498Y-60658174D01*
X155777507Y-60670156D01*
X155756437Y-60680121D01*
X155734493Y-60687973D01*
X155711884Y-60693637D01*
X155688829Y-60697056D01*
X155665550Y-60698200D01*
X155090550Y-60698200D01*
X155067271Y-60697056D01*
X155044216Y-60693637D01*
X155021607Y-60687973D01*
X154999663Y-60680121D01*
X154978593Y-60670156D01*
X154958602Y-60658174D01*
X154939882Y-60644290D01*
X154922612Y-60628638D01*
X154906960Y-60611368D01*
X154893076Y-60592648D01*
X154881094Y-60572657D01*
X154871129Y-60551587D01*
X154863277Y-60529643D01*
X154857613Y-60507034D01*
X154854194Y-60483979D01*
X154853050Y-60460700D01*
X154853050Y-59985700D01*
X154854194Y-59962421D01*
X154857613Y-59939366D01*
X154863277Y-59916757D01*
X154871129Y-59894813D01*
X154881094Y-59873743D01*
X154893076Y-59853752D01*
X154906960Y-59835032D01*
X154922612Y-59817762D01*
X154939882Y-59802110D01*
X154958602Y-59788226D01*
X154978593Y-59776244D01*
X154999663Y-59766279D01*
X155021607Y-59758427D01*
X155044216Y-59752763D01*
X155067271Y-59749344D01*
X155090550Y-59748200D01*
X155665550Y-59748200D01*
X155688829Y-59749344D01*
G37*
G36*
X153938829Y-59749344D02*
G01*
X153961884Y-59752763D01*
X153984493Y-59758427D01*
X154006437Y-59766279D01*
X154027507Y-59776244D01*
X154047498Y-59788226D01*
X154066218Y-59802110D01*
X154083488Y-59817762D01*
X154099140Y-59835032D01*
X154113024Y-59853752D01*
X154125006Y-59873743D01*
X154134971Y-59894813D01*
X154142823Y-59916757D01*
X154148487Y-59939366D01*
X154151906Y-59962421D01*
X154153050Y-59985700D01*
X154153050Y-60460700D01*
X154151906Y-60483979D01*
X154148487Y-60507034D01*
X154142823Y-60529643D01*
X154134971Y-60551587D01*
X154125006Y-60572657D01*
X154113024Y-60592648D01*
X154099140Y-60611368D01*
X154083488Y-60628638D01*
X154066218Y-60644290D01*
X154047498Y-60658174D01*
X154027507Y-60670156D01*
X154006437Y-60680121D01*
X153984493Y-60687973D01*
X153961884Y-60693637D01*
X153938829Y-60697056D01*
X153915550Y-60698200D01*
X153340550Y-60698200D01*
X153317271Y-60697056D01*
X153294216Y-60693637D01*
X153271607Y-60687973D01*
X153249663Y-60680121D01*
X153228593Y-60670156D01*
X153208602Y-60658174D01*
X153189882Y-60644290D01*
X153172612Y-60628638D01*
X153156960Y-60611368D01*
X153143076Y-60592648D01*
X153131094Y-60572657D01*
X153121129Y-60551587D01*
X153113277Y-60529643D01*
X153107613Y-60507034D01*
X153104194Y-60483979D01*
X153103050Y-60460700D01*
X153103050Y-59985700D01*
X153104194Y-59962421D01*
X153107613Y-59939366D01*
X153113277Y-59916757D01*
X153121129Y-59894813D01*
X153131094Y-59873743D01*
X153143076Y-59853752D01*
X153156960Y-59835032D01*
X153172612Y-59817762D01*
X153189882Y-59802110D01*
X153208602Y-59788226D01*
X153228593Y-59776244D01*
X153249663Y-59766279D01*
X153271607Y-59758427D01*
X153294216Y-59752763D01*
X153317271Y-59749344D01*
X153340550Y-59748200D01*
X153915550Y-59748200D01*
X153938829Y-59749344D01*
G37*
D12*
X120421400Y-99668400D03*
X120421400Y-102968400D03*
D11*
X171090900Y-76696400D03*
X171940900Y-76696400D03*
X171090900Y-75246400D03*
X171940900Y-75246400D03*
X155489332Y-76696400D03*
X156339332Y-76696400D03*
X155489332Y-75246400D03*
X156339332Y-75246400D03*
X124286200Y-76696400D03*
X125136200Y-76696400D03*
X124286200Y-75246400D03*
X125136200Y-75246400D03*
D10*
G36*
X118384779Y-100894544D02*
G01*
X118407834Y-100897963D01*
X118430443Y-100903627D01*
X118452387Y-100911479D01*
X118473457Y-100921444D01*
X118493448Y-100933426D01*
X118512168Y-100947310D01*
X118529438Y-100962962D01*
X118545090Y-100980232D01*
X118558974Y-100998952D01*
X118570956Y-101018943D01*
X118580921Y-101040013D01*
X118588773Y-101061957D01*
X118594437Y-101084566D01*
X118597856Y-101107621D01*
X118599000Y-101130900D01*
X118599000Y-101705900D01*
X118597856Y-101729179D01*
X118594437Y-101752234D01*
X118588773Y-101774843D01*
X118580921Y-101796787D01*
X118570956Y-101817857D01*
X118558974Y-101837848D01*
X118545090Y-101856568D01*
X118529438Y-101873838D01*
X118512168Y-101889490D01*
X118493448Y-101903374D01*
X118473457Y-101915356D01*
X118452387Y-101925321D01*
X118430443Y-101933173D01*
X118407834Y-101938837D01*
X118384779Y-101942256D01*
X118361500Y-101943400D01*
X117886500Y-101943400D01*
X117863221Y-101942256D01*
X117840166Y-101938837D01*
X117817557Y-101933173D01*
X117795613Y-101925321D01*
X117774543Y-101915356D01*
X117754552Y-101903374D01*
X117735832Y-101889490D01*
X117718562Y-101873838D01*
X117702910Y-101856568D01*
X117689026Y-101837848D01*
X117677044Y-101817857D01*
X117667079Y-101796787D01*
X117659227Y-101774843D01*
X117653563Y-101752234D01*
X117650144Y-101729179D01*
X117649000Y-101705900D01*
X117649000Y-101130900D01*
X117650144Y-101107621D01*
X117653563Y-101084566D01*
X117659227Y-101061957D01*
X117667079Y-101040013D01*
X117677044Y-101018943D01*
X117689026Y-100998952D01*
X117702910Y-100980232D01*
X117718562Y-100962962D01*
X117735832Y-100947310D01*
X117754552Y-100933426D01*
X117774543Y-100921444D01*
X117795613Y-100911479D01*
X117817557Y-100903627D01*
X117840166Y-100897963D01*
X117863221Y-100894544D01*
X117886500Y-100893400D01*
X118361500Y-100893400D01*
X118384779Y-100894544D01*
G37*
G36*
X118384779Y-99144544D02*
G01*
X118407834Y-99147963D01*
X118430443Y-99153627D01*
X118452387Y-99161479D01*
X118473457Y-99171444D01*
X118493448Y-99183426D01*
X118512168Y-99197310D01*
X118529438Y-99212962D01*
X118545090Y-99230232D01*
X118558974Y-99248952D01*
X118570956Y-99268943D01*
X118580921Y-99290013D01*
X118588773Y-99311957D01*
X118594437Y-99334566D01*
X118597856Y-99357621D01*
X118599000Y-99380900D01*
X118599000Y-99955900D01*
X118597856Y-99979179D01*
X118594437Y-100002234D01*
X118588773Y-100024843D01*
X118580921Y-100046787D01*
X118570956Y-100067857D01*
X118558974Y-100087848D01*
X118545090Y-100106568D01*
X118529438Y-100123838D01*
X118512168Y-100139490D01*
X118493448Y-100153374D01*
X118473457Y-100165356D01*
X118452387Y-100175321D01*
X118430443Y-100183173D01*
X118407834Y-100188837D01*
X118384779Y-100192256D01*
X118361500Y-100193400D01*
X117886500Y-100193400D01*
X117863221Y-100192256D01*
X117840166Y-100188837D01*
X117817557Y-100183173D01*
X117795613Y-100175321D01*
X117774543Y-100165356D01*
X117754552Y-100153374D01*
X117735832Y-100139490D01*
X117718562Y-100123838D01*
X117702910Y-100106568D01*
X117689026Y-100087848D01*
X117677044Y-100067857D01*
X117667079Y-100046787D01*
X117659227Y-100024843D01*
X117653563Y-100002234D01*
X117650144Y-99979179D01*
X117649000Y-99955900D01*
X117649000Y-99380900D01*
X117650144Y-99357621D01*
X117653563Y-99334566D01*
X117659227Y-99311957D01*
X117667079Y-99290013D01*
X117677044Y-99268943D01*
X117689026Y-99248952D01*
X117702910Y-99230232D01*
X117718562Y-99212962D01*
X117735832Y-99197310D01*
X117754552Y-99183426D01*
X117774543Y-99171444D01*
X117795613Y-99161479D01*
X117817557Y-99153627D01*
X117840166Y-99147963D01*
X117863221Y-99144544D01*
X117886500Y-99143400D01*
X118361500Y-99143400D01*
X118384779Y-99144544D01*
G37*
G36*
X172096404Y-87390204D02*
G01*
X172120673Y-87393804D01*
X172144471Y-87399765D01*
X172167571Y-87408030D01*
X172189749Y-87418520D01*
X172210793Y-87431133D01*
X172230498Y-87445747D01*
X172248677Y-87462223D01*
X172265153Y-87480402D01*
X172279767Y-87500107D01*
X172292380Y-87521151D01*
X172302870Y-87543329D01*
X172311135Y-87566429D01*
X172317096Y-87590227D01*
X172320696Y-87614496D01*
X172321900Y-87639000D01*
X172321900Y-88564000D01*
X172320696Y-88588504D01*
X172317096Y-88612773D01*
X172311135Y-88636571D01*
X172302870Y-88659671D01*
X172292380Y-88681849D01*
X172279767Y-88702893D01*
X172265153Y-88722598D01*
X172248677Y-88740777D01*
X172230498Y-88757253D01*
X172210793Y-88771867D01*
X172189749Y-88784480D01*
X172167571Y-88794970D01*
X172144471Y-88803235D01*
X172120673Y-88809196D01*
X172096404Y-88812796D01*
X172071900Y-88814000D01*
X170821900Y-88814000D01*
X170797396Y-88812796D01*
X170773127Y-88809196D01*
X170749329Y-88803235D01*
X170726229Y-88794970D01*
X170704051Y-88784480D01*
X170683007Y-88771867D01*
X170663302Y-88757253D01*
X170645123Y-88740777D01*
X170628647Y-88722598D01*
X170614033Y-88702893D01*
X170601420Y-88681849D01*
X170590930Y-88659671D01*
X170582665Y-88636571D01*
X170576704Y-88612773D01*
X170573104Y-88588504D01*
X170571900Y-88564000D01*
X170571900Y-87639000D01*
X170573104Y-87614496D01*
X170576704Y-87590227D01*
X170582665Y-87566429D01*
X170590930Y-87543329D01*
X170601420Y-87521151D01*
X170614033Y-87500107D01*
X170628647Y-87480402D01*
X170645123Y-87462223D01*
X170663302Y-87445747D01*
X170683007Y-87431133D01*
X170704051Y-87418520D01*
X170726229Y-87408030D01*
X170749329Y-87399765D01*
X170773127Y-87393804D01*
X170797396Y-87390204D01*
X170821900Y-87389000D01*
X172071900Y-87389000D01*
X172096404Y-87390204D01*
G37*
G36*
X172096404Y-84415204D02*
G01*
X172120673Y-84418804D01*
X172144471Y-84424765D01*
X172167571Y-84433030D01*
X172189749Y-84443520D01*
X172210793Y-84456133D01*
X172230498Y-84470747D01*
X172248677Y-84487223D01*
X172265153Y-84505402D01*
X172279767Y-84525107D01*
X172292380Y-84546151D01*
X172302870Y-84568329D01*
X172311135Y-84591429D01*
X172317096Y-84615227D01*
X172320696Y-84639496D01*
X172321900Y-84664000D01*
X172321900Y-85589000D01*
X172320696Y-85613504D01*
X172317096Y-85637773D01*
X172311135Y-85661571D01*
X172302870Y-85684671D01*
X172292380Y-85706849D01*
X172279767Y-85727893D01*
X172265153Y-85747598D01*
X172248677Y-85765777D01*
X172230498Y-85782253D01*
X172210793Y-85796867D01*
X172189749Y-85809480D01*
X172167571Y-85819970D01*
X172144471Y-85828235D01*
X172120673Y-85834196D01*
X172096404Y-85837796D01*
X172071900Y-85839000D01*
X170821900Y-85839000D01*
X170797396Y-85837796D01*
X170773127Y-85834196D01*
X170749329Y-85828235D01*
X170726229Y-85819970D01*
X170704051Y-85809480D01*
X170683007Y-85796867D01*
X170663302Y-85782253D01*
X170645123Y-85765777D01*
X170628647Y-85747598D01*
X170614033Y-85727893D01*
X170601420Y-85706849D01*
X170590930Y-85684671D01*
X170582665Y-85661571D01*
X170576704Y-85637773D01*
X170573104Y-85613504D01*
X170571900Y-85589000D01*
X170571900Y-84664000D01*
X170573104Y-84639496D01*
X170576704Y-84615227D01*
X170582665Y-84591429D01*
X170590930Y-84568329D01*
X170601420Y-84546151D01*
X170614033Y-84525107D01*
X170628647Y-84505402D01*
X170645123Y-84487223D01*
X170663302Y-84470747D01*
X170683007Y-84456133D01*
X170704051Y-84443520D01*
X170726229Y-84433030D01*
X170749329Y-84424765D01*
X170773127Y-84418804D01*
X170797396Y-84415204D01*
X170821900Y-84414000D01*
X172071900Y-84414000D01*
X172096404Y-84415204D01*
G37*
G36*
X167572705Y-87065204D02*
G01*
X167596973Y-87068804D01*
X167620772Y-87074765D01*
X167643871Y-87083030D01*
X167666050Y-87093520D01*
X167687093Y-87106132D01*
X167706799Y-87120747D01*
X167724977Y-87137223D01*
X167741453Y-87155401D01*
X167756068Y-87175107D01*
X167768680Y-87196150D01*
X167779170Y-87218329D01*
X167787435Y-87241428D01*
X167793396Y-87265227D01*
X167796996Y-87289495D01*
X167798200Y-87313999D01*
X167798200Y-87964001D01*
X167796996Y-87988505D01*
X167793396Y-88012773D01*
X167787435Y-88036572D01*
X167779170Y-88059671D01*
X167768680Y-88081850D01*
X167756068Y-88102893D01*
X167741453Y-88122599D01*
X167724977Y-88140777D01*
X167706799Y-88157253D01*
X167687093Y-88171868D01*
X167666050Y-88184480D01*
X167643871Y-88194970D01*
X167620772Y-88203235D01*
X167596973Y-88209196D01*
X167572705Y-88212796D01*
X167548201Y-88214000D01*
X166648199Y-88214000D01*
X166623695Y-88212796D01*
X166599427Y-88209196D01*
X166575628Y-88203235D01*
X166552529Y-88194970D01*
X166530350Y-88184480D01*
X166509307Y-88171868D01*
X166489601Y-88157253D01*
X166471423Y-88140777D01*
X166454947Y-88122599D01*
X166440332Y-88102893D01*
X166427720Y-88081850D01*
X166417230Y-88059671D01*
X166408965Y-88036572D01*
X166403004Y-88012773D01*
X166399404Y-87988505D01*
X166398200Y-87964001D01*
X166398200Y-87313999D01*
X166399404Y-87289495D01*
X166403004Y-87265227D01*
X166408965Y-87241428D01*
X166417230Y-87218329D01*
X166427720Y-87196150D01*
X166440332Y-87175107D01*
X166454947Y-87155401D01*
X166471423Y-87137223D01*
X166489601Y-87120747D01*
X166509307Y-87106132D01*
X166530350Y-87093520D01*
X166552529Y-87083030D01*
X166575628Y-87074765D01*
X166599427Y-87068804D01*
X166623695Y-87065204D01*
X166648199Y-87064000D01*
X167548201Y-87064000D01*
X167572705Y-87065204D01*
G37*
G36*
X167572705Y-85015204D02*
G01*
X167596973Y-85018804D01*
X167620772Y-85024765D01*
X167643871Y-85033030D01*
X167666050Y-85043520D01*
X167687093Y-85056132D01*
X167706799Y-85070747D01*
X167724977Y-85087223D01*
X167741453Y-85105401D01*
X167756068Y-85125107D01*
X167768680Y-85146150D01*
X167779170Y-85168329D01*
X167787435Y-85191428D01*
X167793396Y-85215227D01*
X167796996Y-85239495D01*
X167798200Y-85263999D01*
X167798200Y-85914001D01*
X167796996Y-85938505D01*
X167793396Y-85962773D01*
X167787435Y-85986572D01*
X167779170Y-86009671D01*
X167768680Y-86031850D01*
X167756068Y-86052893D01*
X167741453Y-86072599D01*
X167724977Y-86090777D01*
X167706799Y-86107253D01*
X167687093Y-86121868D01*
X167666050Y-86134480D01*
X167643871Y-86144970D01*
X167620772Y-86153235D01*
X167596973Y-86159196D01*
X167572705Y-86162796D01*
X167548201Y-86164000D01*
X166648199Y-86164000D01*
X166623695Y-86162796D01*
X166599427Y-86159196D01*
X166575628Y-86153235D01*
X166552529Y-86144970D01*
X166530350Y-86134480D01*
X166509307Y-86121868D01*
X166489601Y-86107253D01*
X166471423Y-86090777D01*
X166454947Y-86072599D01*
X166440332Y-86052893D01*
X166427720Y-86031850D01*
X166417230Y-86009671D01*
X166408965Y-85986572D01*
X166403004Y-85962773D01*
X166399404Y-85938505D01*
X166398200Y-85914001D01*
X166398200Y-85263999D01*
X166399404Y-85239495D01*
X166403004Y-85215227D01*
X166408965Y-85191428D01*
X166417230Y-85168329D01*
X166427720Y-85146150D01*
X166440332Y-85125107D01*
X166454947Y-85105401D01*
X166471423Y-85087223D01*
X166489601Y-85070747D01*
X166509307Y-85056132D01*
X166530350Y-85043520D01*
X166552529Y-85033030D01*
X166575628Y-85024765D01*
X166599427Y-85018804D01*
X166623695Y-85015204D01*
X166648199Y-85014000D01*
X167548201Y-85014000D01*
X167572705Y-85015204D01*
G37*
G36*
X163394005Y-87065204D02*
G01*
X163418273Y-87068804D01*
X163442072Y-87074765D01*
X163465171Y-87083030D01*
X163487350Y-87093520D01*
X163508393Y-87106132D01*
X163528099Y-87120747D01*
X163546277Y-87137223D01*
X163562753Y-87155401D01*
X163577368Y-87175107D01*
X163589980Y-87196150D01*
X163600470Y-87218329D01*
X163608735Y-87241428D01*
X163614696Y-87265227D01*
X163618296Y-87289495D01*
X163619500Y-87313999D01*
X163619500Y-87964001D01*
X163618296Y-87988505D01*
X163614696Y-88012773D01*
X163608735Y-88036572D01*
X163600470Y-88059671D01*
X163589980Y-88081850D01*
X163577368Y-88102893D01*
X163562753Y-88122599D01*
X163546277Y-88140777D01*
X163528099Y-88157253D01*
X163508393Y-88171868D01*
X163487350Y-88184480D01*
X163465171Y-88194970D01*
X163442072Y-88203235D01*
X163418273Y-88209196D01*
X163394005Y-88212796D01*
X163369501Y-88214000D01*
X162469499Y-88214000D01*
X162444995Y-88212796D01*
X162420727Y-88209196D01*
X162396928Y-88203235D01*
X162373829Y-88194970D01*
X162351650Y-88184480D01*
X162330607Y-88171868D01*
X162310901Y-88157253D01*
X162292723Y-88140777D01*
X162276247Y-88122599D01*
X162261632Y-88102893D01*
X162249020Y-88081850D01*
X162238530Y-88059671D01*
X162230265Y-88036572D01*
X162224304Y-88012773D01*
X162220704Y-87988505D01*
X162219500Y-87964001D01*
X162219500Y-87313999D01*
X162220704Y-87289495D01*
X162224304Y-87265227D01*
X162230265Y-87241428D01*
X162238530Y-87218329D01*
X162249020Y-87196150D01*
X162261632Y-87175107D01*
X162276247Y-87155401D01*
X162292723Y-87137223D01*
X162310901Y-87120747D01*
X162330607Y-87106132D01*
X162351650Y-87093520D01*
X162373829Y-87083030D01*
X162396928Y-87074765D01*
X162420727Y-87068804D01*
X162444995Y-87065204D01*
X162469499Y-87064000D01*
X163369501Y-87064000D01*
X163394005Y-87065204D01*
G37*
G36*
X163394005Y-85015204D02*
G01*
X163418273Y-85018804D01*
X163442072Y-85024765D01*
X163465171Y-85033030D01*
X163487350Y-85043520D01*
X163508393Y-85056132D01*
X163528099Y-85070747D01*
X163546277Y-85087223D01*
X163562753Y-85105401D01*
X163577368Y-85125107D01*
X163589980Y-85146150D01*
X163600470Y-85168329D01*
X163608735Y-85191428D01*
X163614696Y-85215227D01*
X163618296Y-85239495D01*
X163619500Y-85263999D01*
X163619500Y-85914001D01*
X163618296Y-85938505D01*
X163614696Y-85962773D01*
X163608735Y-85986572D01*
X163600470Y-86009671D01*
X163589980Y-86031850D01*
X163577368Y-86052893D01*
X163562753Y-86072599D01*
X163546277Y-86090777D01*
X163528099Y-86107253D01*
X163508393Y-86121868D01*
X163487350Y-86134480D01*
X163465171Y-86144970D01*
X163442072Y-86153235D01*
X163418273Y-86159196D01*
X163394005Y-86162796D01*
X163369501Y-86164000D01*
X162469499Y-86164000D01*
X162444995Y-86162796D01*
X162420727Y-86159196D01*
X162396928Y-86153235D01*
X162373829Y-86144970D01*
X162351650Y-86134480D01*
X162330607Y-86121868D01*
X162310901Y-86107253D01*
X162292723Y-86090777D01*
X162276247Y-86072599D01*
X162261632Y-86052893D01*
X162249020Y-86031850D01*
X162238530Y-86009671D01*
X162230265Y-85986572D01*
X162224304Y-85962773D01*
X162220704Y-85938505D01*
X162219500Y-85914001D01*
X162219500Y-85263999D01*
X162220704Y-85239495D01*
X162224304Y-85215227D01*
X162230265Y-85191428D01*
X162238530Y-85168329D01*
X162249020Y-85146150D01*
X162261632Y-85125107D01*
X162276247Y-85105401D01*
X162292723Y-85087223D01*
X162310901Y-85070747D01*
X162330607Y-85056132D01*
X162351650Y-85043520D01*
X162373829Y-85033030D01*
X162396928Y-85024765D01*
X162420727Y-85018804D01*
X162444995Y-85015204D01*
X162469499Y-85014000D01*
X163369501Y-85014000D01*
X163394005Y-85015204D01*
G37*
G36*
X159220304Y-87390204D02*
G01*
X159244573Y-87393804D01*
X159268371Y-87399765D01*
X159291471Y-87408030D01*
X159313649Y-87418520D01*
X159334693Y-87431133D01*
X159354398Y-87445747D01*
X159372577Y-87462223D01*
X159389053Y-87480402D01*
X159403667Y-87500107D01*
X159416280Y-87521151D01*
X159426770Y-87543329D01*
X159435035Y-87566429D01*
X159440996Y-87590227D01*
X159444596Y-87614496D01*
X159445800Y-87639000D01*
X159445800Y-88564000D01*
X159444596Y-88588504D01*
X159440996Y-88612773D01*
X159435035Y-88636571D01*
X159426770Y-88659671D01*
X159416280Y-88681849D01*
X159403667Y-88702893D01*
X159389053Y-88722598D01*
X159372577Y-88740777D01*
X159354398Y-88757253D01*
X159334693Y-88771867D01*
X159313649Y-88784480D01*
X159291471Y-88794970D01*
X159268371Y-88803235D01*
X159244573Y-88809196D01*
X159220304Y-88812796D01*
X159195800Y-88814000D01*
X157945800Y-88814000D01*
X157921296Y-88812796D01*
X157897027Y-88809196D01*
X157873229Y-88803235D01*
X157850129Y-88794970D01*
X157827951Y-88784480D01*
X157806907Y-88771867D01*
X157787202Y-88757253D01*
X157769023Y-88740777D01*
X157752547Y-88722598D01*
X157737933Y-88702893D01*
X157725320Y-88681849D01*
X157714830Y-88659671D01*
X157706565Y-88636571D01*
X157700604Y-88612773D01*
X157697004Y-88588504D01*
X157695800Y-88564000D01*
X157695800Y-87639000D01*
X157697004Y-87614496D01*
X157700604Y-87590227D01*
X157706565Y-87566429D01*
X157714830Y-87543329D01*
X157725320Y-87521151D01*
X157737933Y-87500107D01*
X157752547Y-87480402D01*
X157769023Y-87462223D01*
X157787202Y-87445747D01*
X157806907Y-87431133D01*
X157827951Y-87418520D01*
X157850129Y-87408030D01*
X157873229Y-87399765D01*
X157897027Y-87393804D01*
X157921296Y-87390204D01*
X157945800Y-87389000D01*
X159195800Y-87389000D01*
X159220304Y-87390204D01*
G37*
G36*
X159220304Y-84415204D02*
G01*
X159244573Y-84418804D01*
X159268371Y-84424765D01*
X159291471Y-84433030D01*
X159313649Y-84443520D01*
X159334693Y-84456133D01*
X159354398Y-84470747D01*
X159372577Y-84487223D01*
X159389053Y-84505402D01*
X159403667Y-84525107D01*
X159416280Y-84546151D01*
X159426770Y-84568329D01*
X159435035Y-84591429D01*
X159440996Y-84615227D01*
X159444596Y-84639496D01*
X159445800Y-84664000D01*
X159445800Y-85589000D01*
X159444596Y-85613504D01*
X159440996Y-85637773D01*
X159435035Y-85661571D01*
X159426770Y-85684671D01*
X159416280Y-85706849D01*
X159403667Y-85727893D01*
X159389053Y-85747598D01*
X159372577Y-85765777D01*
X159354398Y-85782253D01*
X159334693Y-85796867D01*
X159313649Y-85809480D01*
X159291471Y-85819970D01*
X159268371Y-85828235D01*
X159244573Y-85834196D01*
X159220304Y-85837796D01*
X159195800Y-85839000D01*
X157945800Y-85839000D01*
X157921296Y-85837796D01*
X157897027Y-85834196D01*
X157873229Y-85828235D01*
X157850129Y-85819970D01*
X157827951Y-85809480D01*
X157806907Y-85796867D01*
X157787202Y-85782253D01*
X157769023Y-85765777D01*
X157752547Y-85747598D01*
X157737933Y-85727893D01*
X157725320Y-85706849D01*
X157714830Y-85684671D01*
X157706565Y-85661571D01*
X157700604Y-85637773D01*
X157697004Y-85613504D01*
X157695800Y-85589000D01*
X157695800Y-84664000D01*
X157697004Y-84639496D01*
X157700604Y-84615227D01*
X157706565Y-84591429D01*
X157714830Y-84568329D01*
X157725320Y-84546151D01*
X157737933Y-84525107D01*
X157752547Y-84505402D01*
X157769023Y-84487223D01*
X157787202Y-84470747D01*
X157806907Y-84456133D01*
X157827951Y-84443520D01*
X157850129Y-84433030D01*
X157873229Y-84424765D01*
X157897027Y-84418804D01*
X157921296Y-84415204D01*
X157945800Y-84414000D01*
X159195800Y-84414000D01*
X159220304Y-84415204D01*
G37*
G36*
X154696605Y-87065204D02*
G01*
X154720873Y-87068804D01*
X154744672Y-87074765D01*
X154767771Y-87083030D01*
X154789950Y-87093520D01*
X154810993Y-87106132D01*
X154830699Y-87120747D01*
X154848877Y-87137223D01*
X154865353Y-87155401D01*
X154879968Y-87175107D01*
X154892580Y-87196150D01*
X154903070Y-87218329D01*
X154911335Y-87241428D01*
X154917296Y-87265227D01*
X154920896Y-87289495D01*
X154922100Y-87313999D01*
X154922100Y-87964001D01*
X154920896Y-87988505D01*
X154917296Y-88012773D01*
X154911335Y-88036572D01*
X154903070Y-88059671D01*
X154892580Y-88081850D01*
X154879968Y-88102893D01*
X154865353Y-88122599D01*
X154848877Y-88140777D01*
X154830699Y-88157253D01*
X154810993Y-88171868D01*
X154789950Y-88184480D01*
X154767771Y-88194970D01*
X154744672Y-88203235D01*
X154720873Y-88209196D01*
X154696605Y-88212796D01*
X154672101Y-88214000D01*
X153772099Y-88214000D01*
X153747595Y-88212796D01*
X153723327Y-88209196D01*
X153699528Y-88203235D01*
X153676429Y-88194970D01*
X153654250Y-88184480D01*
X153633207Y-88171868D01*
X153613501Y-88157253D01*
X153595323Y-88140777D01*
X153578847Y-88122599D01*
X153564232Y-88102893D01*
X153551620Y-88081850D01*
X153541130Y-88059671D01*
X153532865Y-88036572D01*
X153526904Y-88012773D01*
X153523304Y-87988505D01*
X153522100Y-87964001D01*
X153522100Y-87313999D01*
X153523304Y-87289495D01*
X153526904Y-87265227D01*
X153532865Y-87241428D01*
X153541130Y-87218329D01*
X153551620Y-87196150D01*
X153564232Y-87175107D01*
X153578847Y-87155401D01*
X153595323Y-87137223D01*
X153613501Y-87120747D01*
X153633207Y-87106132D01*
X153654250Y-87093520D01*
X153676429Y-87083030D01*
X153699528Y-87074765D01*
X153723327Y-87068804D01*
X153747595Y-87065204D01*
X153772099Y-87064000D01*
X154672101Y-87064000D01*
X154696605Y-87065204D01*
G37*
G36*
X154696605Y-85015204D02*
G01*
X154720873Y-85018804D01*
X154744672Y-85024765D01*
X154767771Y-85033030D01*
X154789950Y-85043520D01*
X154810993Y-85056132D01*
X154830699Y-85070747D01*
X154848877Y-85087223D01*
X154865353Y-85105401D01*
X154879968Y-85125107D01*
X154892580Y-85146150D01*
X154903070Y-85168329D01*
X154911335Y-85191428D01*
X154917296Y-85215227D01*
X154920896Y-85239495D01*
X154922100Y-85263999D01*
X154922100Y-85914001D01*
X154920896Y-85938505D01*
X154917296Y-85962773D01*
X154911335Y-85986572D01*
X154903070Y-86009671D01*
X154892580Y-86031850D01*
X154879968Y-86052893D01*
X154865353Y-86072599D01*
X154848877Y-86090777D01*
X154830699Y-86107253D01*
X154810993Y-86121868D01*
X154789950Y-86134480D01*
X154767771Y-86144970D01*
X154744672Y-86153235D01*
X154720873Y-86159196D01*
X154696605Y-86162796D01*
X154672101Y-86164000D01*
X153772099Y-86164000D01*
X153747595Y-86162796D01*
X153723327Y-86159196D01*
X153699528Y-86153235D01*
X153676429Y-86144970D01*
X153654250Y-86134480D01*
X153633207Y-86121868D01*
X153613501Y-86107253D01*
X153595323Y-86090777D01*
X153578847Y-86072599D01*
X153564232Y-86052893D01*
X153551620Y-86031850D01*
X153541130Y-86009671D01*
X153532865Y-85986572D01*
X153526904Y-85962773D01*
X153523304Y-85938505D01*
X153522100Y-85914001D01*
X153522100Y-85263999D01*
X153523304Y-85239495D01*
X153526904Y-85215227D01*
X153532865Y-85191428D01*
X153541130Y-85168329D01*
X153551620Y-85146150D01*
X153564232Y-85125107D01*
X153578847Y-85105401D01*
X153595323Y-85087223D01*
X153613501Y-85070747D01*
X153633207Y-85056132D01*
X153654250Y-85043520D01*
X153676429Y-85033030D01*
X153699528Y-85024765D01*
X153723327Y-85018804D01*
X153747595Y-85015204D01*
X153772099Y-85014000D01*
X154672101Y-85014000D01*
X154696605Y-85015204D01*
G37*
G36*
X150517905Y-87065204D02*
G01*
X150542173Y-87068804D01*
X150565972Y-87074765D01*
X150589071Y-87083030D01*
X150611250Y-87093520D01*
X150632293Y-87106132D01*
X150651999Y-87120747D01*
X150670177Y-87137223D01*
X150686653Y-87155401D01*
X150701268Y-87175107D01*
X150713880Y-87196150D01*
X150724370Y-87218329D01*
X150732635Y-87241428D01*
X150738596Y-87265227D01*
X150742196Y-87289495D01*
X150743400Y-87313999D01*
X150743400Y-87964001D01*
X150742196Y-87988505D01*
X150738596Y-88012773D01*
X150732635Y-88036572D01*
X150724370Y-88059671D01*
X150713880Y-88081850D01*
X150701268Y-88102893D01*
X150686653Y-88122599D01*
X150670177Y-88140777D01*
X150651999Y-88157253D01*
X150632293Y-88171868D01*
X150611250Y-88184480D01*
X150589071Y-88194970D01*
X150565972Y-88203235D01*
X150542173Y-88209196D01*
X150517905Y-88212796D01*
X150493401Y-88214000D01*
X149593399Y-88214000D01*
X149568895Y-88212796D01*
X149544627Y-88209196D01*
X149520828Y-88203235D01*
X149497729Y-88194970D01*
X149475550Y-88184480D01*
X149454507Y-88171868D01*
X149434801Y-88157253D01*
X149416623Y-88140777D01*
X149400147Y-88122599D01*
X149385532Y-88102893D01*
X149372920Y-88081850D01*
X149362430Y-88059671D01*
X149354165Y-88036572D01*
X149348204Y-88012773D01*
X149344604Y-87988505D01*
X149343400Y-87964001D01*
X149343400Y-87313999D01*
X149344604Y-87289495D01*
X149348204Y-87265227D01*
X149354165Y-87241428D01*
X149362430Y-87218329D01*
X149372920Y-87196150D01*
X149385532Y-87175107D01*
X149400147Y-87155401D01*
X149416623Y-87137223D01*
X149434801Y-87120747D01*
X149454507Y-87106132D01*
X149475550Y-87093520D01*
X149497729Y-87083030D01*
X149520828Y-87074765D01*
X149544627Y-87068804D01*
X149568895Y-87065204D01*
X149593399Y-87064000D01*
X150493401Y-87064000D01*
X150517905Y-87065204D01*
G37*
G36*
X150517905Y-85015204D02*
G01*
X150542173Y-85018804D01*
X150565972Y-85024765D01*
X150589071Y-85033030D01*
X150611250Y-85043520D01*
X150632293Y-85056132D01*
X150651999Y-85070747D01*
X150670177Y-85087223D01*
X150686653Y-85105401D01*
X150701268Y-85125107D01*
X150713880Y-85146150D01*
X150724370Y-85168329D01*
X150732635Y-85191428D01*
X150738596Y-85215227D01*
X150742196Y-85239495D01*
X150743400Y-85263999D01*
X150743400Y-85914001D01*
X150742196Y-85938505D01*
X150738596Y-85962773D01*
X150732635Y-85986572D01*
X150724370Y-86009671D01*
X150713880Y-86031850D01*
X150701268Y-86052893D01*
X150686653Y-86072599D01*
X150670177Y-86090777D01*
X150651999Y-86107253D01*
X150632293Y-86121868D01*
X150611250Y-86134480D01*
X150589071Y-86144970D01*
X150565972Y-86153235D01*
X150542173Y-86159196D01*
X150517905Y-86162796D01*
X150493401Y-86164000D01*
X149593399Y-86164000D01*
X149568895Y-86162796D01*
X149544627Y-86159196D01*
X149520828Y-86153235D01*
X149497729Y-86144970D01*
X149475550Y-86134480D01*
X149454507Y-86121868D01*
X149434801Y-86107253D01*
X149416623Y-86090777D01*
X149400147Y-86072599D01*
X149385532Y-86052893D01*
X149372920Y-86031850D01*
X149362430Y-86009671D01*
X149354165Y-85986572D01*
X149348204Y-85962773D01*
X149344604Y-85938505D01*
X149343400Y-85914001D01*
X149343400Y-85263999D01*
X149344604Y-85239495D01*
X149348204Y-85215227D01*
X149354165Y-85191428D01*
X149362430Y-85168329D01*
X149372920Y-85146150D01*
X149385532Y-85125107D01*
X149400147Y-85105401D01*
X149416623Y-85087223D01*
X149434801Y-85070747D01*
X149454507Y-85056132D01*
X149475550Y-85043520D01*
X149497729Y-85033030D01*
X149520828Y-85024765D01*
X149544627Y-85018804D01*
X149568895Y-85015204D01*
X149593399Y-85014000D01*
X150493401Y-85014000D01*
X150517905Y-85015204D01*
G37*
G36*
X146344204Y-87390204D02*
G01*
X146368473Y-87393804D01*
X146392271Y-87399765D01*
X146415371Y-87408030D01*
X146437549Y-87418520D01*
X146458593Y-87431133D01*
X146478298Y-87445747D01*
X146496477Y-87462223D01*
X146512953Y-87480402D01*
X146527567Y-87500107D01*
X146540180Y-87521151D01*
X146550670Y-87543329D01*
X146558935Y-87566429D01*
X146564896Y-87590227D01*
X146568496Y-87614496D01*
X146569700Y-87639000D01*
X146569700Y-88564000D01*
X146568496Y-88588504D01*
X146564896Y-88612773D01*
X146558935Y-88636571D01*
X146550670Y-88659671D01*
X146540180Y-88681849D01*
X146527567Y-88702893D01*
X146512953Y-88722598D01*
X146496477Y-88740777D01*
X146478298Y-88757253D01*
X146458593Y-88771867D01*
X146437549Y-88784480D01*
X146415371Y-88794970D01*
X146392271Y-88803235D01*
X146368473Y-88809196D01*
X146344204Y-88812796D01*
X146319700Y-88814000D01*
X145069700Y-88814000D01*
X145045196Y-88812796D01*
X145020927Y-88809196D01*
X144997129Y-88803235D01*
X144974029Y-88794970D01*
X144951851Y-88784480D01*
X144930807Y-88771867D01*
X144911102Y-88757253D01*
X144892923Y-88740777D01*
X144876447Y-88722598D01*
X144861833Y-88702893D01*
X144849220Y-88681849D01*
X144838730Y-88659671D01*
X144830465Y-88636571D01*
X144824504Y-88612773D01*
X144820904Y-88588504D01*
X144819700Y-88564000D01*
X144819700Y-87639000D01*
X144820904Y-87614496D01*
X144824504Y-87590227D01*
X144830465Y-87566429D01*
X144838730Y-87543329D01*
X144849220Y-87521151D01*
X144861833Y-87500107D01*
X144876447Y-87480402D01*
X144892923Y-87462223D01*
X144911102Y-87445747D01*
X144930807Y-87431133D01*
X144951851Y-87418520D01*
X144974029Y-87408030D01*
X144997129Y-87399765D01*
X145020927Y-87393804D01*
X145045196Y-87390204D01*
X145069700Y-87389000D01*
X146319700Y-87389000D01*
X146344204Y-87390204D01*
G37*
G36*
X146344204Y-84415204D02*
G01*
X146368473Y-84418804D01*
X146392271Y-84424765D01*
X146415371Y-84433030D01*
X146437549Y-84443520D01*
X146458593Y-84456133D01*
X146478298Y-84470747D01*
X146496477Y-84487223D01*
X146512953Y-84505402D01*
X146527567Y-84525107D01*
X146540180Y-84546151D01*
X146550670Y-84568329D01*
X146558935Y-84591429D01*
X146564896Y-84615227D01*
X146568496Y-84639496D01*
X146569700Y-84664000D01*
X146569700Y-85589000D01*
X146568496Y-85613504D01*
X146564896Y-85637773D01*
X146558935Y-85661571D01*
X146550670Y-85684671D01*
X146540180Y-85706849D01*
X146527567Y-85727893D01*
X146512953Y-85747598D01*
X146496477Y-85765777D01*
X146478298Y-85782253D01*
X146458593Y-85796867D01*
X146437549Y-85809480D01*
X146415371Y-85819970D01*
X146392271Y-85828235D01*
X146368473Y-85834196D01*
X146344204Y-85837796D01*
X146319700Y-85839000D01*
X145069700Y-85839000D01*
X145045196Y-85837796D01*
X145020927Y-85834196D01*
X144997129Y-85828235D01*
X144974029Y-85819970D01*
X144951851Y-85809480D01*
X144930807Y-85796867D01*
X144911102Y-85782253D01*
X144892923Y-85765777D01*
X144876447Y-85747598D01*
X144861833Y-85727893D01*
X144849220Y-85706849D01*
X144838730Y-85684671D01*
X144830465Y-85661571D01*
X144824504Y-85637773D01*
X144820904Y-85613504D01*
X144819700Y-85589000D01*
X144819700Y-84664000D01*
X144820904Y-84639496D01*
X144824504Y-84615227D01*
X144830465Y-84591429D01*
X144838730Y-84568329D01*
X144849220Y-84546151D01*
X144861833Y-84525107D01*
X144876447Y-84505402D01*
X144892923Y-84487223D01*
X144911102Y-84470747D01*
X144930807Y-84456133D01*
X144951851Y-84443520D01*
X144974029Y-84433030D01*
X144997129Y-84424765D01*
X145020927Y-84418804D01*
X145045196Y-84415204D01*
X145069700Y-84414000D01*
X146319700Y-84414000D01*
X146344204Y-84415204D01*
G37*
G36*
X141820505Y-87065204D02*
G01*
X141844773Y-87068804D01*
X141868572Y-87074765D01*
X141891671Y-87083030D01*
X141913850Y-87093520D01*
X141934893Y-87106132D01*
X141954599Y-87120747D01*
X141972777Y-87137223D01*
X141989253Y-87155401D01*
X142003868Y-87175107D01*
X142016480Y-87196150D01*
X142026970Y-87218329D01*
X142035235Y-87241428D01*
X142041196Y-87265227D01*
X142044796Y-87289495D01*
X142046000Y-87313999D01*
X142046000Y-87964001D01*
X142044796Y-87988505D01*
X142041196Y-88012773D01*
X142035235Y-88036572D01*
X142026970Y-88059671D01*
X142016480Y-88081850D01*
X142003868Y-88102893D01*
X141989253Y-88122599D01*
X141972777Y-88140777D01*
X141954599Y-88157253D01*
X141934893Y-88171868D01*
X141913850Y-88184480D01*
X141891671Y-88194970D01*
X141868572Y-88203235D01*
X141844773Y-88209196D01*
X141820505Y-88212796D01*
X141796001Y-88214000D01*
X140895999Y-88214000D01*
X140871495Y-88212796D01*
X140847227Y-88209196D01*
X140823428Y-88203235D01*
X140800329Y-88194970D01*
X140778150Y-88184480D01*
X140757107Y-88171868D01*
X140737401Y-88157253D01*
X140719223Y-88140777D01*
X140702747Y-88122599D01*
X140688132Y-88102893D01*
X140675520Y-88081850D01*
X140665030Y-88059671D01*
X140656765Y-88036572D01*
X140650804Y-88012773D01*
X140647204Y-87988505D01*
X140646000Y-87964001D01*
X140646000Y-87313999D01*
X140647204Y-87289495D01*
X140650804Y-87265227D01*
X140656765Y-87241428D01*
X140665030Y-87218329D01*
X140675520Y-87196150D01*
X140688132Y-87175107D01*
X140702747Y-87155401D01*
X140719223Y-87137223D01*
X140737401Y-87120747D01*
X140757107Y-87106132D01*
X140778150Y-87093520D01*
X140800329Y-87083030D01*
X140823428Y-87074765D01*
X140847227Y-87068804D01*
X140871495Y-87065204D01*
X140895999Y-87064000D01*
X141796001Y-87064000D01*
X141820505Y-87065204D01*
G37*
G36*
X141820505Y-85015204D02*
G01*
X141844773Y-85018804D01*
X141868572Y-85024765D01*
X141891671Y-85033030D01*
X141913850Y-85043520D01*
X141934893Y-85056132D01*
X141954599Y-85070747D01*
X141972777Y-85087223D01*
X141989253Y-85105401D01*
X142003868Y-85125107D01*
X142016480Y-85146150D01*
X142026970Y-85168329D01*
X142035235Y-85191428D01*
X142041196Y-85215227D01*
X142044796Y-85239495D01*
X142046000Y-85263999D01*
X142046000Y-85914001D01*
X142044796Y-85938505D01*
X142041196Y-85962773D01*
X142035235Y-85986572D01*
X142026970Y-86009671D01*
X142016480Y-86031850D01*
X142003868Y-86052893D01*
X141989253Y-86072599D01*
X141972777Y-86090777D01*
X141954599Y-86107253D01*
X141934893Y-86121868D01*
X141913850Y-86134480D01*
X141891671Y-86144970D01*
X141868572Y-86153235D01*
X141844773Y-86159196D01*
X141820505Y-86162796D01*
X141796001Y-86164000D01*
X140895999Y-86164000D01*
X140871495Y-86162796D01*
X140847227Y-86159196D01*
X140823428Y-86153235D01*
X140800329Y-86144970D01*
X140778150Y-86134480D01*
X140757107Y-86121868D01*
X140737401Y-86107253D01*
X140719223Y-86090777D01*
X140702747Y-86072599D01*
X140688132Y-86052893D01*
X140675520Y-86031850D01*
X140665030Y-86009671D01*
X140656765Y-85986572D01*
X140650804Y-85962773D01*
X140647204Y-85938505D01*
X140646000Y-85914001D01*
X140646000Y-85263999D01*
X140647204Y-85239495D01*
X140650804Y-85215227D01*
X140656765Y-85191428D01*
X140665030Y-85168329D01*
X140675520Y-85146150D01*
X140688132Y-85125107D01*
X140702747Y-85105401D01*
X140719223Y-85087223D01*
X140737401Y-85070747D01*
X140757107Y-85056132D01*
X140778150Y-85043520D01*
X140800329Y-85033030D01*
X140823428Y-85024765D01*
X140847227Y-85018804D01*
X140871495Y-85015204D01*
X140895999Y-85014000D01*
X141796001Y-85014000D01*
X141820505Y-85015204D01*
G37*
G36*
X137641805Y-87065204D02*
G01*
X137666073Y-87068804D01*
X137689872Y-87074765D01*
X137712971Y-87083030D01*
X137735150Y-87093520D01*
X137756193Y-87106132D01*
X137775899Y-87120747D01*
X137794077Y-87137223D01*
X137810553Y-87155401D01*
X137825168Y-87175107D01*
X137837780Y-87196150D01*
X137848270Y-87218329D01*
X137856535Y-87241428D01*
X137862496Y-87265227D01*
X137866096Y-87289495D01*
X137867300Y-87313999D01*
X137867300Y-87964001D01*
X137866096Y-87988505D01*
X137862496Y-88012773D01*
X137856535Y-88036572D01*
X137848270Y-88059671D01*
X137837780Y-88081850D01*
X137825168Y-88102893D01*
X137810553Y-88122599D01*
X137794077Y-88140777D01*
X137775899Y-88157253D01*
X137756193Y-88171868D01*
X137735150Y-88184480D01*
X137712971Y-88194970D01*
X137689872Y-88203235D01*
X137666073Y-88209196D01*
X137641805Y-88212796D01*
X137617301Y-88214000D01*
X136717299Y-88214000D01*
X136692795Y-88212796D01*
X136668527Y-88209196D01*
X136644728Y-88203235D01*
X136621629Y-88194970D01*
X136599450Y-88184480D01*
X136578407Y-88171868D01*
X136558701Y-88157253D01*
X136540523Y-88140777D01*
X136524047Y-88122599D01*
X136509432Y-88102893D01*
X136496820Y-88081850D01*
X136486330Y-88059671D01*
X136478065Y-88036572D01*
X136472104Y-88012773D01*
X136468504Y-87988505D01*
X136467300Y-87964001D01*
X136467300Y-87313999D01*
X136468504Y-87289495D01*
X136472104Y-87265227D01*
X136478065Y-87241428D01*
X136486330Y-87218329D01*
X136496820Y-87196150D01*
X136509432Y-87175107D01*
X136524047Y-87155401D01*
X136540523Y-87137223D01*
X136558701Y-87120747D01*
X136578407Y-87106132D01*
X136599450Y-87093520D01*
X136621629Y-87083030D01*
X136644728Y-87074765D01*
X136668527Y-87068804D01*
X136692795Y-87065204D01*
X136717299Y-87064000D01*
X137617301Y-87064000D01*
X137641805Y-87065204D01*
G37*
G36*
X137641805Y-85015204D02*
G01*
X137666073Y-85018804D01*
X137689872Y-85024765D01*
X137712971Y-85033030D01*
X137735150Y-85043520D01*
X137756193Y-85056132D01*
X137775899Y-85070747D01*
X137794077Y-85087223D01*
X137810553Y-85105401D01*
X137825168Y-85125107D01*
X137837780Y-85146150D01*
X137848270Y-85168329D01*
X137856535Y-85191428D01*
X137862496Y-85215227D01*
X137866096Y-85239495D01*
X137867300Y-85263999D01*
X137867300Y-85914001D01*
X137866096Y-85938505D01*
X137862496Y-85962773D01*
X137856535Y-85986572D01*
X137848270Y-86009671D01*
X137837780Y-86031850D01*
X137825168Y-86052893D01*
X137810553Y-86072599D01*
X137794077Y-86090777D01*
X137775899Y-86107253D01*
X137756193Y-86121868D01*
X137735150Y-86134480D01*
X137712971Y-86144970D01*
X137689872Y-86153235D01*
X137666073Y-86159196D01*
X137641805Y-86162796D01*
X137617301Y-86164000D01*
X136717299Y-86164000D01*
X136692795Y-86162796D01*
X136668527Y-86159196D01*
X136644728Y-86153235D01*
X136621629Y-86144970D01*
X136599450Y-86134480D01*
X136578407Y-86121868D01*
X136558701Y-86107253D01*
X136540523Y-86090777D01*
X136524047Y-86072599D01*
X136509432Y-86052893D01*
X136496820Y-86031850D01*
X136486330Y-86009671D01*
X136478065Y-85986572D01*
X136472104Y-85962773D01*
X136468504Y-85938505D01*
X136467300Y-85914001D01*
X136467300Y-85263999D01*
X136468504Y-85239495D01*
X136472104Y-85215227D01*
X136478065Y-85191428D01*
X136486330Y-85168329D01*
X136496820Y-85146150D01*
X136509432Y-85125107D01*
X136524047Y-85105401D01*
X136540523Y-85087223D01*
X136558701Y-85070747D01*
X136578407Y-85056132D01*
X136599450Y-85043520D01*
X136621629Y-85033030D01*
X136644728Y-85024765D01*
X136668527Y-85018804D01*
X136692795Y-85015204D01*
X136717299Y-85014000D01*
X137617301Y-85014000D01*
X137641805Y-85015204D01*
G37*
G36*
X133468104Y-87390204D02*
G01*
X133492373Y-87393804D01*
X133516171Y-87399765D01*
X133539271Y-87408030D01*
X133561449Y-87418520D01*
X133582493Y-87431133D01*
X133602198Y-87445747D01*
X133620377Y-87462223D01*
X133636853Y-87480402D01*
X133651467Y-87500107D01*
X133664080Y-87521151D01*
X133674570Y-87543329D01*
X133682835Y-87566429D01*
X133688796Y-87590227D01*
X133692396Y-87614496D01*
X133693600Y-87639000D01*
X133693600Y-88564000D01*
X133692396Y-88588504D01*
X133688796Y-88612773D01*
X133682835Y-88636571D01*
X133674570Y-88659671D01*
X133664080Y-88681849D01*
X133651467Y-88702893D01*
X133636853Y-88722598D01*
X133620377Y-88740777D01*
X133602198Y-88757253D01*
X133582493Y-88771867D01*
X133561449Y-88784480D01*
X133539271Y-88794970D01*
X133516171Y-88803235D01*
X133492373Y-88809196D01*
X133468104Y-88812796D01*
X133443600Y-88814000D01*
X132193600Y-88814000D01*
X132169096Y-88812796D01*
X132144827Y-88809196D01*
X132121029Y-88803235D01*
X132097929Y-88794970D01*
X132075751Y-88784480D01*
X132054707Y-88771867D01*
X132035002Y-88757253D01*
X132016823Y-88740777D01*
X132000347Y-88722598D01*
X131985733Y-88702893D01*
X131973120Y-88681849D01*
X131962630Y-88659671D01*
X131954365Y-88636571D01*
X131948404Y-88612773D01*
X131944804Y-88588504D01*
X131943600Y-88564000D01*
X131943600Y-87639000D01*
X131944804Y-87614496D01*
X131948404Y-87590227D01*
X131954365Y-87566429D01*
X131962630Y-87543329D01*
X131973120Y-87521151D01*
X131985733Y-87500107D01*
X132000347Y-87480402D01*
X132016823Y-87462223D01*
X132035002Y-87445747D01*
X132054707Y-87431133D01*
X132075751Y-87418520D01*
X132097929Y-87408030D01*
X132121029Y-87399765D01*
X132144827Y-87393804D01*
X132169096Y-87390204D01*
X132193600Y-87389000D01*
X133443600Y-87389000D01*
X133468104Y-87390204D01*
G37*
G36*
X133468104Y-84415204D02*
G01*
X133492373Y-84418804D01*
X133516171Y-84424765D01*
X133539271Y-84433030D01*
X133561449Y-84443520D01*
X133582493Y-84456133D01*
X133602198Y-84470747D01*
X133620377Y-84487223D01*
X133636853Y-84505402D01*
X133651467Y-84525107D01*
X133664080Y-84546151D01*
X133674570Y-84568329D01*
X133682835Y-84591429D01*
X133688796Y-84615227D01*
X133692396Y-84639496D01*
X133693600Y-84664000D01*
X133693600Y-85589000D01*
X133692396Y-85613504D01*
X133688796Y-85637773D01*
X133682835Y-85661571D01*
X133674570Y-85684671D01*
X133664080Y-85706849D01*
X133651467Y-85727893D01*
X133636853Y-85747598D01*
X133620377Y-85765777D01*
X133602198Y-85782253D01*
X133582493Y-85796867D01*
X133561449Y-85809480D01*
X133539271Y-85819970D01*
X133516171Y-85828235D01*
X133492373Y-85834196D01*
X133468104Y-85837796D01*
X133443600Y-85839000D01*
X132193600Y-85839000D01*
X132169096Y-85837796D01*
X132144827Y-85834196D01*
X132121029Y-85828235D01*
X132097929Y-85819970D01*
X132075751Y-85809480D01*
X132054707Y-85796867D01*
X132035002Y-85782253D01*
X132016823Y-85765777D01*
X132000347Y-85747598D01*
X131985733Y-85727893D01*
X131973120Y-85706849D01*
X131962630Y-85684671D01*
X131954365Y-85661571D01*
X131948404Y-85637773D01*
X131944804Y-85613504D01*
X131943600Y-85589000D01*
X131943600Y-84664000D01*
X131944804Y-84639496D01*
X131948404Y-84615227D01*
X131954365Y-84591429D01*
X131962630Y-84568329D01*
X131973120Y-84546151D01*
X131985733Y-84525107D01*
X132000347Y-84505402D01*
X132016823Y-84487223D01*
X132035002Y-84470747D01*
X132054707Y-84456133D01*
X132075751Y-84443520D01*
X132097929Y-84433030D01*
X132121029Y-84424765D01*
X132144827Y-84418804D01*
X132169096Y-84415204D01*
X132193600Y-84414000D01*
X133443600Y-84414000D01*
X133468104Y-84415204D01*
G37*
G36*
X128944405Y-87065204D02*
G01*
X128968673Y-87068804D01*
X128992472Y-87074765D01*
X129015571Y-87083030D01*
X129037750Y-87093520D01*
X129058793Y-87106132D01*
X129078499Y-87120747D01*
X129096677Y-87137223D01*
X129113153Y-87155401D01*
X129127768Y-87175107D01*
X129140380Y-87196150D01*
X129150870Y-87218329D01*
X129159135Y-87241428D01*
X129165096Y-87265227D01*
X129168696Y-87289495D01*
X129169900Y-87313999D01*
X129169900Y-87964001D01*
X129168696Y-87988505D01*
X129165096Y-88012773D01*
X129159135Y-88036572D01*
X129150870Y-88059671D01*
X129140380Y-88081850D01*
X129127768Y-88102893D01*
X129113153Y-88122599D01*
X129096677Y-88140777D01*
X129078499Y-88157253D01*
X129058793Y-88171868D01*
X129037750Y-88184480D01*
X129015571Y-88194970D01*
X128992472Y-88203235D01*
X128968673Y-88209196D01*
X128944405Y-88212796D01*
X128919901Y-88214000D01*
X128019899Y-88214000D01*
X127995395Y-88212796D01*
X127971127Y-88209196D01*
X127947328Y-88203235D01*
X127924229Y-88194970D01*
X127902050Y-88184480D01*
X127881007Y-88171868D01*
X127861301Y-88157253D01*
X127843123Y-88140777D01*
X127826647Y-88122599D01*
X127812032Y-88102893D01*
X127799420Y-88081850D01*
X127788930Y-88059671D01*
X127780665Y-88036572D01*
X127774704Y-88012773D01*
X127771104Y-87988505D01*
X127769900Y-87964001D01*
X127769900Y-87313999D01*
X127771104Y-87289495D01*
X127774704Y-87265227D01*
X127780665Y-87241428D01*
X127788930Y-87218329D01*
X127799420Y-87196150D01*
X127812032Y-87175107D01*
X127826647Y-87155401D01*
X127843123Y-87137223D01*
X127861301Y-87120747D01*
X127881007Y-87106132D01*
X127902050Y-87093520D01*
X127924229Y-87083030D01*
X127947328Y-87074765D01*
X127971127Y-87068804D01*
X127995395Y-87065204D01*
X128019899Y-87064000D01*
X128919901Y-87064000D01*
X128944405Y-87065204D01*
G37*
G36*
X128944405Y-85015204D02*
G01*
X128968673Y-85018804D01*
X128992472Y-85024765D01*
X129015571Y-85033030D01*
X129037750Y-85043520D01*
X129058793Y-85056132D01*
X129078499Y-85070747D01*
X129096677Y-85087223D01*
X129113153Y-85105401D01*
X129127768Y-85125107D01*
X129140380Y-85146150D01*
X129150870Y-85168329D01*
X129159135Y-85191428D01*
X129165096Y-85215227D01*
X129168696Y-85239495D01*
X129169900Y-85263999D01*
X129169900Y-85914001D01*
X129168696Y-85938505D01*
X129165096Y-85962773D01*
X129159135Y-85986572D01*
X129150870Y-86009671D01*
X129140380Y-86031850D01*
X129127768Y-86052893D01*
X129113153Y-86072599D01*
X129096677Y-86090777D01*
X129078499Y-86107253D01*
X129058793Y-86121868D01*
X129037750Y-86134480D01*
X129015571Y-86144970D01*
X128992472Y-86153235D01*
X128968673Y-86159196D01*
X128944405Y-86162796D01*
X128919901Y-86164000D01*
X128019899Y-86164000D01*
X127995395Y-86162796D01*
X127971127Y-86159196D01*
X127947328Y-86153235D01*
X127924229Y-86144970D01*
X127902050Y-86134480D01*
X127881007Y-86121868D01*
X127861301Y-86107253D01*
X127843123Y-86090777D01*
X127826647Y-86072599D01*
X127812032Y-86052893D01*
X127799420Y-86031850D01*
X127788930Y-86009671D01*
X127780665Y-85986572D01*
X127774704Y-85962773D01*
X127771104Y-85938505D01*
X127769900Y-85914001D01*
X127769900Y-85263999D01*
X127771104Y-85239495D01*
X127774704Y-85215227D01*
X127780665Y-85191428D01*
X127788930Y-85168329D01*
X127799420Y-85146150D01*
X127812032Y-85125107D01*
X127826647Y-85105401D01*
X127843123Y-85087223D01*
X127861301Y-85070747D01*
X127881007Y-85056132D01*
X127902050Y-85043520D01*
X127924229Y-85033030D01*
X127947328Y-85024765D01*
X127971127Y-85018804D01*
X127995395Y-85015204D01*
X128019899Y-85014000D01*
X128919901Y-85014000D01*
X128944405Y-85015204D01*
G37*
G36*
X124765705Y-87065204D02*
G01*
X124789973Y-87068804D01*
X124813772Y-87074765D01*
X124836871Y-87083030D01*
X124859050Y-87093520D01*
X124880093Y-87106132D01*
X124899799Y-87120747D01*
X124917977Y-87137223D01*
X124934453Y-87155401D01*
X124949068Y-87175107D01*
X124961680Y-87196150D01*
X124972170Y-87218329D01*
X124980435Y-87241428D01*
X124986396Y-87265227D01*
X124989996Y-87289495D01*
X124991200Y-87313999D01*
X124991200Y-87964001D01*
X124989996Y-87988505D01*
X124986396Y-88012773D01*
X124980435Y-88036572D01*
X124972170Y-88059671D01*
X124961680Y-88081850D01*
X124949068Y-88102893D01*
X124934453Y-88122599D01*
X124917977Y-88140777D01*
X124899799Y-88157253D01*
X124880093Y-88171868D01*
X124859050Y-88184480D01*
X124836871Y-88194970D01*
X124813772Y-88203235D01*
X124789973Y-88209196D01*
X124765705Y-88212796D01*
X124741201Y-88214000D01*
X123841199Y-88214000D01*
X123816695Y-88212796D01*
X123792427Y-88209196D01*
X123768628Y-88203235D01*
X123745529Y-88194970D01*
X123723350Y-88184480D01*
X123702307Y-88171868D01*
X123682601Y-88157253D01*
X123664423Y-88140777D01*
X123647947Y-88122599D01*
X123633332Y-88102893D01*
X123620720Y-88081850D01*
X123610230Y-88059671D01*
X123601965Y-88036572D01*
X123596004Y-88012773D01*
X123592404Y-87988505D01*
X123591200Y-87964001D01*
X123591200Y-87313999D01*
X123592404Y-87289495D01*
X123596004Y-87265227D01*
X123601965Y-87241428D01*
X123610230Y-87218329D01*
X123620720Y-87196150D01*
X123633332Y-87175107D01*
X123647947Y-87155401D01*
X123664423Y-87137223D01*
X123682601Y-87120747D01*
X123702307Y-87106132D01*
X123723350Y-87093520D01*
X123745529Y-87083030D01*
X123768628Y-87074765D01*
X123792427Y-87068804D01*
X123816695Y-87065204D01*
X123841199Y-87064000D01*
X124741201Y-87064000D01*
X124765705Y-87065204D01*
G37*
G36*
X124765705Y-85015204D02*
G01*
X124789973Y-85018804D01*
X124813772Y-85024765D01*
X124836871Y-85033030D01*
X124859050Y-85043520D01*
X124880093Y-85056132D01*
X124899799Y-85070747D01*
X124917977Y-85087223D01*
X124934453Y-85105401D01*
X124949068Y-85125107D01*
X124961680Y-85146150D01*
X124972170Y-85168329D01*
X124980435Y-85191428D01*
X124986396Y-85215227D01*
X124989996Y-85239495D01*
X124991200Y-85263999D01*
X124991200Y-85914001D01*
X124989996Y-85938505D01*
X124986396Y-85962773D01*
X124980435Y-85986572D01*
X124972170Y-86009671D01*
X124961680Y-86031850D01*
X124949068Y-86052893D01*
X124934453Y-86072599D01*
X124917977Y-86090777D01*
X124899799Y-86107253D01*
X124880093Y-86121868D01*
X124859050Y-86134480D01*
X124836871Y-86144970D01*
X124813772Y-86153235D01*
X124789973Y-86159196D01*
X124765705Y-86162796D01*
X124741201Y-86164000D01*
X123841199Y-86164000D01*
X123816695Y-86162796D01*
X123792427Y-86159196D01*
X123768628Y-86153235D01*
X123745529Y-86144970D01*
X123723350Y-86134480D01*
X123702307Y-86121868D01*
X123682601Y-86107253D01*
X123664423Y-86090777D01*
X123647947Y-86072599D01*
X123633332Y-86052893D01*
X123620720Y-86031850D01*
X123610230Y-86009671D01*
X123601965Y-85986572D01*
X123596004Y-85962773D01*
X123592404Y-85938505D01*
X123591200Y-85914001D01*
X123591200Y-85263999D01*
X123592404Y-85239495D01*
X123596004Y-85215227D01*
X123601965Y-85191428D01*
X123610230Y-85168329D01*
X123620720Y-85146150D01*
X123633332Y-85125107D01*
X123647947Y-85105401D01*
X123664423Y-85087223D01*
X123682601Y-85070747D01*
X123702307Y-85056132D01*
X123723350Y-85043520D01*
X123745529Y-85033030D01*
X123768628Y-85024765D01*
X123792427Y-85018804D01*
X123816695Y-85015204D01*
X123841199Y-85014000D01*
X124741201Y-85014000D01*
X124765705Y-85015204D01*
G37*
D13*
X120460050Y-58473200D03*
X120460050Y-61973200D03*
X122760050Y-60223200D03*
D14*
X132110200Y-102501600D03*
X125310200Y-102501600D03*
X132110200Y-97501600D03*
X125310200Y-97501600D03*
X174788900Y-102501600D03*
X167988900Y-102501600D03*
X174788900Y-97501600D03*
X167988900Y-97501600D03*
D15*
X146248050Y-57548200D03*
D16*
X148153050Y-57548200D03*
D15*
X150058050Y-57548200D03*
D16*
X148153050Y-62898200D03*
D15*
X150058050Y-62898200D03*
X146248050Y-62898200D03*
D17*
X147753050Y-95751600D03*
X149353050Y-95751600D03*
X150153050Y-95751600D03*
X145353050Y-95751600D03*
X148553050Y-95751600D03*
X146953050Y-95751600D03*
X146153050Y-95751600D03*
X150953050Y-95751600D03*
X148553050Y-104251600D03*
X149353050Y-104251600D03*
X150153050Y-104251600D03*
X150953050Y-104251600D03*
X146953050Y-104251600D03*
X147753050Y-104251600D03*
D18*
X152403050Y-98001600D03*
X152403050Y-102001600D03*
X152403050Y-100401600D03*
X152403050Y-101201600D03*
X152403050Y-97201600D03*
X152403050Y-98801600D03*
X152403050Y-102801600D03*
X152403050Y-99601600D03*
X143903050Y-102801600D03*
D17*
X146153050Y-104251600D03*
X145353050Y-104251600D03*
D18*
X143903050Y-102001600D03*
X143903050Y-101201600D03*
X143903050Y-100401600D03*
X143903050Y-99601600D03*
X143903050Y-98801600D03*
X143903050Y-98001600D03*
X143903050Y-97201600D03*
M02*
