G04 #@! TF.GenerationSoftware,KiCad,Pcbnew,(5.1.5)-3*
G04 #@! TF.CreationDate,2021-01-15T00:08:51-08:00*
G04 #@! TF.ProjectId,KHP2100,4b485032-3130-4302-9e6b-696361645f70,NC*
G04 #@! TF.SameCoordinates,Original*
G04 #@! TF.FileFunction,Legend,Bot*
G04 #@! TF.FilePolarity,Positive*
%FSLAX46Y46*%
G04 Gerber Fmt 4.6, Leading zero omitted, Abs format (unit mm)*
G04 Created by KiCad (PCBNEW (5.1.5)-3) date 2021-01-15 00:08:51*
%MOMM*%
%LPD*%
G04 APERTURE LIST*
%ADD10C,0.150000*%
%ADD11C,0.120000*%
G04 APERTURE END LIST*
D10*
X119424009Y-133040380D02*
X119424009Y-132040380D01*
X118852580Y-133040380D02*
X119281152Y-132468952D01*
X118852580Y-132040380D02*
X119424009Y-132611809D01*
X118424009Y-132516571D02*
X118090676Y-132516571D01*
X117947819Y-133040380D02*
X118424009Y-133040380D01*
X118424009Y-132040380D01*
X117947819Y-132040380D01*
X117185914Y-132516571D02*
X117043057Y-132564190D01*
X116995438Y-132611809D01*
X116947819Y-132707047D01*
X116947819Y-132849904D01*
X116995438Y-132945142D01*
X117043057Y-132992761D01*
X117138295Y-133040380D01*
X117519247Y-133040380D01*
X117519247Y-132040380D01*
X117185914Y-132040380D01*
X117090676Y-132088000D01*
X117043057Y-132135619D01*
X116995438Y-132230857D01*
X116995438Y-132326095D01*
X117043057Y-132421333D01*
X117090676Y-132468952D01*
X117185914Y-132516571D01*
X117519247Y-132516571D01*
X115947819Y-133040380D02*
X116281152Y-132564190D01*
X116519247Y-133040380D02*
X116519247Y-132040380D01*
X116138295Y-132040380D01*
X116043057Y-132088000D01*
X115995438Y-132135619D01*
X115947819Y-132230857D01*
X115947819Y-132373714D01*
X115995438Y-132468952D01*
X116043057Y-132516571D01*
X116138295Y-132564190D01*
X116519247Y-132564190D01*
X115519247Y-132516571D02*
X115185914Y-132516571D01*
X115043057Y-133040380D02*
X115519247Y-133040380D01*
X115519247Y-132040380D01*
X115043057Y-132040380D01*
X114138295Y-133040380D02*
X114614485Y-133040380D01*
X114614485Y-132040380D01*
X113471628Y-132516571D02*
X113804961Y-132516571D01*
X113804961Y-133040380D02*
X113804961Y-132040380D01*
X113328771Y-132040380D01*
X112947819Y-132040380D02*
X112947819Y-132849904D01*
X112900200Y-132945142D01*
X112852580Y-132992761D01*
X112757342Y-133040380D01*
X112566866Y-133040380D01*
X112471628Y-132992761D01*
X112424009Y-132945142D01*
X112376390Y-132849904D01*
X112376390Y-132040380D01*
D11*
X147057117Y-67126267D02*
G75*
G03X147057117Y-67126267I-11475067J0D01*
G01*
X176722900Y-57683200D02*
X176214900Y-57683200D01*
X176722900Y-62763200D02*
X176722900Y-57683200D01*
X176214900Y-62763200D02*
X176722900Y-62763200D01*
X168594900Y-57683200D02*
X169102900Y-57683200D01*
X168594900Y-62763200D02*
X168594900Y-57683200D01*
X169102900Y-62763200D02*
X168594900Y-62763200D01*
D10*
X146353114Y-54894171D02*
X146210257Y-54941790D01*
X146162638Y-54989409D01*
X146115019Y-55084647D01*
X146115019Y-55227504D01*
X146162638Y-55322742D01*
X146210257Y-55370361D01*
X146305495Y-55417980D01*
X146686447Y-55417980D01*
X146686447Y-54417980D01*
X146353114Y-54417980D01*
X146257876Y-54465600D01*
X146210257Y-54513219D01*
X146162638Y-54608457D01*
X146162638Y-54703695D01*
X146210257Y-54798933D01*
X146257876Y-54846552D01*
X146353114Y-54894171D01*
X146686447Y-54894171D01*
X145829304Y-54417980D02*
X145257876Y-54417980D01*
X145543590Y-55417980D02*
X145543590Y-54417980D01*
X144400733Y-55417980D02*
X144972161Y-55417980D01*
X144686447Y-55417980D02*
X144686447Y-54417980D01*
X144781685Y-54560838D01*
X144876923Y-54656076D01*
X144972161Y-54703695D01*
X121635828Y-70358047D02*
X121635828Y-71119952D01*
X122016780Y-70739000D02*
X121254876Y-70739000D01*
X177015733Y-64552580D02*
X177015733Y-65266866D01*
X177063352Y-65409723D01*
X177158590Y-65504961D01*
X177301447Y-65552580D01*
X177396685Y-65552580D01*
X176015733Y-65552580D02*
X176587161Y-65552580D01*
X176301447Y-65552580D02*
X176301447Y-64552580D01*
X176396685Y-64695438D01*
X176491923Y-64790676D01*
X176587161Y-64838295D01*
M02*
