G04 #@! TF.GenerationSoftware,KiCad,Pcbnew,(5.1.5)-3*
G04 #@! TF.CreationDate,2021-01-15T00:08:51-08:00*
G04 #@! TF.ProjectId,KHP2100,4b485032-3130-4302-9e6b-696361645f70,NC*
G04 #@! TF.SameCoordinates,Original*
G04 #@! TF.FileFunction,Copper,L2,Bot*
G04 #@! TF.FilePolarity,Positive*
%FSLAX46Y46*%
G04 Gerber Fmt 4.6, Leading zero omitted, Abs format (unit mm)*
G04 Created by KiCad (PCBNEW (5.1.5)-3) date 2021-01-15 00:08:51*
%MOMM*%
%LPD*%
G04 APERTURE LIST*
%ADD10C,0.300000*%
%ADD11C,2.000000*%
%ADD12R,1.000000X1.560000*%
%ADD13C,0.800000*%
%ADD14C,0.250000*%
%ADD15C,0.254000*%
G04 APERTURE END LIST*
D10*
X182641142Y-130982257D02*
X183141142Y-130982257D01*
X183141142Y-131767971D02*
X183141142Y-130267971D01*
X182426857Y-130267971D01*
X181641142Y-131767971D02*
X181784000Y-131696542D01*
X181855428Y-131625114D01*
X181926857Y-131482257D01*
X181926857Y-131053685D01*
X181855428Y-130910828D01*
X181784000Y-130839400D01*
X181641142Y-130767971D01*
X181426857Y-130767971D01*
X181284000Y-130839400D01*
X181212571Y-130910828D01*
X181141142Y-131053685D01*
X181141142Y-131482257D01*
X181212571Y-131625114D01*
X181284000Y-131696542D01*
X181426857Y-131767971D01*
X181641142Y-131767971D01*
X180498285Y-131767971D02*
X180498285Y-130767971D01*
X180498285Y-131053685D02*
X180426857Y-130910828D01*
X180355428Y-130839400D01*
X180212571Y-130767971D01*
X180069714Y-130767971D01*
X177926857Y-130982257D02*
X177712571Y-131053685D01*
X177641142Y-131125114D01*
X177569714Y-131267971D01*
X177569714Y-131482257D01*
X177641142Y-131625114D01*
X177712571Y-131696542D01*
X177855428Y-131767971D01*
X178426857Y-131767971D01*
X178426857Y-130267971D01*
X177926857Y-130267971D01*
X177784000Y-130339400D01*
X177712571Y-130410828D01*
X177641142Y-130553685D01*
X177641142Y-130696542D01*
X177712571Y-130839400D01*
X177784000Y-130910828D01*
X177926857Y-130982257D01*
X178426857Y-130982257D01*
X176926857Y-131767971D02*
X176926857Y-130767971D01*
X176926857Y-131053685D02*
X176855428Y-130910828D01*
X176784000Y-130839400D01*
X176641142Y-130767971D01*
X176498285Y-130767971D01*
X175998285Y-131767971D02*
X175998285Y-130767971D01*
X175998285Y-130267971D02*
X176069714Y-130339400D01*
X175998285Y-130410828D01*
X175926857Y-130339400D01*
X175998285Y-130267971D01*
X175998285Y-130410828D01*
X175498285Y-130767971D02*
X174926857Y-130767971D01*
X175284000Y-130267971D02*
X175284000Y-131553685D01*
X175212571Y-131696542D01*
X175069714Y-131767971D01*
X174926857Y-131767971D01*
X174641142Y-130767971D02*
X174069714Y-130767971D01*
X174426857Y-130267971D02*
X174426857Y-131553685D01*
X174355428Y-131696542D01*
X174212571Y-131767971D01*
X174069714Y-131767971D01*
X172926857Y-131767971D02*
X172926857Y-130982257D01*
X172998285Y-130839400D01*
X173141142Y-130767971D01*
X173426857Y-130767971D01*
X173569714Y-130839400D01*
X172926857Y-131696542D02*
X173069714Y-131767971D01*
X173426857Y-131767971D01*
X173569714Y-131696542D01*
X173641142Y-131553685D01*
X173641142Y-131410828D01*
X173569714Y-131267971D01*
X173426857Y-131196542D01*
X173069714Y-131196542D01*
X172926857Y-131125114D01*
X172212571Y-130767971D02*
X172212571Y-131767971D01*
X172212571Y-130910828D02*
X172141142Y-130839400D01*
X171998285Y-130767971D01*
X171784000Y-130767971D01*
X171641142Y-130839400D01*
X171569714Y-130982257D01*
X171569714Y-131767971D01*
X170998285Y-130767971D02*
X170641142Y-131767971D01*
X170284000Y-130767971D02*
X170641142Y-131767971D01*
X170784000Y-132125114D01*
X170855428Y-132196542D01*
X170998285Y-132267971D01*
D11*
X142082050Y-67126267D03*
X121582050Y-67126267D03*
D12*
X175198900Y-57318200D03*
X172658900Y-57318200D03*
X170118900Y-57318200D03*
X175198900Y-63128200D03*
X172658900Y-63128200D03*
X170118900Y-63128200D03*
D11*
X131643050Y-113093100D03*
X126563050Y-114363100D03*
X150693050Y-113093100D03*
X145613050Y-114363100D03*
X169737900Y-113093100D03*
X164657900Y-114363100D03*
D13*
X147753050Y-82878950D03*
X135432800Y-102501600D03*
X139268200Y-99618800D03*
X162897500Y-69062600D03*
X128710200Y-99618800D03*
X150037800Y-69062616D03*
X155448000Y-105505732D03*
X155448000Y-104153666D03*
X155448000Y-102801600D03*
X140131800Y-102801600D03*
X155448000Y-106857800D03*
D14*
X175198900Y-56288200D02*
X175198900Y-57318200D01*
X174384300Y-55473600D02*
X175198900Y-56288200D01*
X147753050Y-82878950D02*
X147753050Y-76554350D01*
X168833800Y-55473600D02*
X174384300Y-55473600D01*
X147753050Y-76554350D02*
X168833800Y-55473600D01*
X140106400Y-90525600D02*
X147753050Y-82878950D01*
X140106400Y-100761800D02*
X140106400Y-90525600D01*
X135432800Y-102501600D02*
X138366600Y-102501600D01*
X138366600Y-102501600D02*
X140106400Y-100761800D01*
X170118900Y-63128200D02*
X167402200Y-63128200D01*
X139268200Y-99618800D02*
X139268200Y-79832216D01*
X139268200Y-79832216D02*
X149637801Y-69462615D01*
X149637801Y-69462615D02*
X150037800Y-69062616D01*
X162897500Y-67632900D02*
X162897500Y-69037200D01*
X167411400Y-63119000D02*
X162897500Y-67632900D01*
X139268200Y-99618800D02*
X128710200Y-99618800D01*
X155504668Y-105505732D02*
X155448000Y-105505732D01*
X172658900Y-63128200D02*
X172658900Y-88351500D01*
X172658900Y-88351500D02*
X155504668Y-105505732D01*
X161188400Y-98450400D02*
X161188400Y-64897000D01*
X168767200Y-57318200D02*
X170118900Y-57318200D01*
X155448000Y-104153666D02*
X155485134Y-104153666D01*
X161188400Y-64897000D02*
X168767200Y-57318200D01*
X155485134Y-104153666D02*
X161188400Y-98450400D01*
X172658900Y-56288200D02*
X172658900Y-57318200D01*
X172377700Y-56007000D02*
X172658900Y-56288200D01*
X169138600Y-56007000D02*
X172377700Y-56007000D01*
X155448000Y-102743000D02*
X155448000Y-69697600D01*
X155448000Y-69697600D02*
X169138600Y-56007000D01*
X154076400Y-108229400D02*
X155448000Y-106857800D01*
X141503400Y-108229400D02*
X154076400Y-108229400D01*
X140131800Y-102801600D02*
X140131800Y-106857800D01*
X140131800Y-106857800D02*
X141503400Y-108229400D01*
D15*
G36*
X185543051Y-134113200D02*
G01*
X110763050Y-134113200D01*
X110763050Y-129299400D01*
X169284715Y-129299400D01*
X169284715Y-133119400D01*
X184283286Y-133119400D01*
X184283286Y-129299400D01*
X169284715Y-129299400D01*
X110763050Y-129299400D01*
X110763050Y-118026752D01*
X122537150Y-118026752D01*
X122537150Y-118319448D01*
X122594252Y-118606521D01*
X122706262Y-118876938D01*
X122868876Y-119120306D01*
X123075844Y-119327274D01*
X123319212Y-119489888D01*
X123589629Y-119601898D01*
X123876702Y-119659000D01*
X124169398Y-119659000D01*
X124456471Y-119601898D01*
X124726888Y-119489888D01*
X124970256Y-119327274D01*
X125177224Y-119120306D01*
X125339838Y-118876938D01*
X125451848Y-118606521D01*
X125508950Y-118319448D01*
X125508950Y-118026752D01*
X125486558Y-117914176D01*
X126474150Y-117914176D01*
X126474150Y-118432024D01*
X126575177Y-118939922D01*
X126773349Y-119418351D01*
X127061050Y-119848926D01*
X127427224Y-120215100D01*
X127857799Y-120502801D01*
X128336228Y-120700973D01*
X128844126Y-120802000D01*
X129361974Y-120802000D01*
X129869872Y-120700973D01*
X130348301Y-120502801D01*
X130778876Y-120215100D01*
X131145050Y-119848926D01*
X131432751Y-119418351D01*
X131630923Y-118939922D01*
X131731950Y-118432024D01*
X131731950Y-118026752D01*
X132697150Y-118026752D01*
X132697150Y-118319448D01*
X132754252Y-118606521D01*
X132866262Y-118876938D01*
X133028876Y-119120306D01*
X133235844Y-119327274D01*
X133479212Y-119489888D01*
X133749629Y-119601898D01*
X134036702Y-119659000D01*
X134329398Y-119659000D01*
X134616471Y-119601898D01*
X134886888Y-119489888D01*
X135130256Y-119327274D01*
X135337224Y-119120306D01*
X135499838Y-118876938D01*
X135611848Y-118606521D01*
X135668950Y-118319448D01*
X135668950Y-118026752D01*
X141587150Y-118026752D01*
X141587150Y-118319448D01*
X141644252Y-118606521D01*
X141756262Y-118876938D01*
X141918876Y-119120306D01*
X142125844Y-119327274D01*
X142369212Y-119489888D01*
X142639629Y-119601898D01*
X142926702Y-119659000D01*
X143219398Y-119659000D01*
X143506471Y-119601898D01*
X143776888Y-119489888D01*
X144020256Y-119327274D01*
X144227224Y-119120306D01*
X144389838Y-118876938D01*
X144501848Y-118606521D01*
X144558950Y-118319448D01*
X144558950Y-118026752D01*
X144536558Y-117914176D01*
X145524150Y-117914176D01*
X145524150Y-118432024D01*
X145625177Y-118939922D01*
X145823349Y-119418351D01*
X146111050Y-119848926D01*
X146477224Y-120215100D01*
X146907799Y-120502801D01*
X147386228Y-120700973D01*
X147894126Y-120802000D01*
X148411974Y-120802000D01*
X148919872Y-120700973D01*
X149398301Y-120502801D01*
X149828876Y-120215100D01*
X150195050Y-119848926D01*
X150482751Y-119418351D01*
X150680923Y-118939922D01*
X150781950Y-118432024D01*
X150781950Y-118026752D01*
X151747150Y-118026752D01*
X151747150Y-118319448D01*
X151804252Y-118606521D01*
X151916262Y-118876938D01*
X152078876Y-119120306D01*
X152285844Y-119327274D01*
X152529212Y-119489888D01*
X152799629Y-119601898D01*
X153086702Y-119659000D01*
X153379398Y-119659000D01*
X153666471Y-119601898D01*
X153936888Y-119489888D01*
X154180256Y-119327274D01*
X154387224Y-119120306D01*
X154549838Y-118876938D01*
X154661848Y-118606521D01*
X154718950Y-118319448D01*
X154718950Y-118026752D01*
X160632000Y-118026752D01*
X160632000Y-118319448D01*
X160689102Y-118606521D01*
X160801112Y-118876938D01*
X160963726Y-119120306D01*
X161170694Y-119327274D01*
X161414062Y-119489888D01*
X161684479Y-119601898D01*
X161971552Y-119659000D01*
X162264248Y-119659000D01*
X162551321Y-119601898D01*
X162821738Y-119489888D01*
X163065106Y-119327274D01*
X163272074Y-119120306D01*
X163434688Y-118876938D01*
X163546698Y-118606521D01*
X163603800Y-118319448D01*
X163603800Y-118026752D01*
X163581408Y-117914176D01*
X164569000Y-117914176D01*
X164569000Y-118432024D01*
X164670027Y-118939922D01*
X164868199Y-119418351D01*
X165155900Y-119848926D01*
X165522074Y-120215100D01*
X165952649Y-120502801D01*
X166431078Y-120700973D01*
X166938976Y-120802000D01*
X167456824Y-120802000D01*
X167964722Y-120700973D01*
X168443151Y-120502801D01*
X168873726Y-120215100D01*
X169239900Y-119848926D01*
X169527601Y-119418351D01*
X169725773Y-118939922D01*
X169826800Y-118432024D01*
X169826800Y-118026752D01*
X170792000Y-118026752D01*
X170792000Y-118319448D01*
X170849102Y-118606521D01*
X170961112Y-118876938D01*
X171123726Y-119120306D01*
X171330694Y-119327274D01*
X171574062Y-119489888D01*
X171844479Y-119601898D01*
X172131552Y-119659000D01*
X172424248Y-119659000D01*
X172711321Y-119601898D01*
X172981738Y-119489888D01*
X173225106Y-119327274D01*
X173432074Y-119120306D01*
X173594688Y-118876938D01*
X173706698Y-118606521D01*
X173763800Y-118319448D01*
X173763800Y-118026752D01*
X173706698Y-117739679D01*
X173594688Y-117469262D01*
X173432074Y-117225894D01*
X173225106Y-117018926D01*
X172981738Y-116856312D01*
X172711321Y-116744302D01*
X172424248Y-116687200D01*
X172131552Y-116687200D01*
X171844479Y-116744302D01*
X171574062Y-116856312D01*
X171330694Y-117018926D01*
X171123726Y-117225894D01*
X170961112Y-117469262D01*
X170849102Y-117739679D01*
X170792000Y-118026752D01*
X169826800Y-118026752D01*
X169826800Y-117914176D01*
X169725773Y-117406278D01*
X169527601Y-116927849D01*
X169239900Y-116497274D01*
X168873726Y-116131100D01*
X168443151Y-115843399D01*
X167964722Y-115645227D01*
X167456824Y-115544200D01*
X166938976Y-115544200D01*
X166431078Y-115645227D01*
X165952649Y-115843399D01*
X165522074Y-116131100D01*
X165155900Y-116497274D01*
X164868199Y-116927849D01*
X164670027Y-117406278D01*
X164569000Y-117914176D01*
X163581408Y-117914176D01*
X163546698Y-117739679D01*
X163434688Y-117469262D01*
X163272074Y-117225894D01*
X163065106Y-117018926D01*
X162821738Y-116856312D01*
X162551321Y-116744302D01*
X162264248Y-116687200D01*
X161971552Y-116687200D01*
X161684479Y-116744302D01*
X161414062Y-116856312D01*
X161170694Y-117018926D01*
X160963726Y-117225894D01*
X160801112Y-117469262D01*
X160689102Y-117739679D01*
X160632000Y-118026752D01*
X154718950Y-118026752D01*
X154661848Y-117739679D01*
X154549838Y-117469262D01*
X154387224Y-117225894D01*
X154180256Y-117018926D01*
X153936888Y-116856312D01*
X153666471Y-116744302D01*
X153379398Y-116687200D01*
X153086702Y-116687200D01*
X152799629Y-116744302D01*
X152529212Y-116856312D01*
X152285844Y-117018926D01*
X152078876Y-117225894D01*
X151916262Y-117469262D01*
X151804252Y-117739679D01*
X151747150Y-118026752D01*
X150781950Y-118026752D01*
X150781950Y-117914176D01*
X150680923Y-117406278D01*
X150482751Y-116927849D01*
X150195050Y-116497274D01*
X149828876Y-116131100D01*
X149398301Y-115843399D01*
X148919872Y-115645227D01*
X148411974Y-115544200D01*
X147894126Y-115544200D01*
X147386228Y-115645227D01*
X146907799Y-115843399D01*
X146477224Y-116131100D01*
X146111050Y-116497274D01*
X145823349Y-116927849D01*
X145625177Y-117406278D01*
X145524150Y-117914176D01*
X144536558Y-117914176D01*
X144501848Y-117739679D01*
X144389838Y-117469262D01*
X144227224Y-117225894D01*
X144020256Y-117018926D01*
X143776888Y-116856312D01*
X143506471Y-116744302D01*
X143219398Y-116687200D01*
X142926702Y-116687200D01*
X142639629Y-116744302D01*
X142369212Y-116856312D01*
X142125844Y-117018926D01*
X141918876Y-117225894D01*
X141756262Y-117469262D01*
X141644252Y-117739679D01*
X141587150Y-118026752D01*
X135668950Y-118026752D01*
X135611848Y-117739679D01*
X135499838Y-117469262D01*
X135337224Y-117225894D01*
X135130256Y-117018926D01*
X134886888Y-116856312D01*
X134616471Y-116744302D01*
X134329398Y-116687200D01*
X134036702Y-116687200D01*
X133749629Y-116744302D01*
X133479212Y-116856312D01*
X133235844Y-117018926D01*
X133028876Y-117225894D01*
X132866262Y-117469262D01*
X132754252Y-117739679D01*
X132697150Y-118026752D01*
X131731950Y-118026752D01*
X131731950Y-117914176D01*
X131630923Y-117406278D01*
X131432751Y-116927849D01*
X131145050Y-116497274D01*
X130778876Y-116131100D01*
X130348301Y-115843399D01*
X129869872Y-115645227D01*
X129361974Y-115544200D01*
X128844126Y-115544200D01*
X128336228Y-115645227D01*
X127857799Y-115843399D01*
X127427224Y-116131100D01*
X127061050Y-116497274D01*
X126773349Y-116927849D01*
X126575177Y-117406278D01*
X126474150Y-117914176D01*
X125486558Y-117914176D01*
X125451848Y-117739679D01*
X125339838Y-117469262D01*
X125177224Y-117225894D01*
X124970256Y-117018926D01*
X124726888Y-116856312D01*
X124456471Y-116744302D01*
X124169398Y-116687200D01*
X123876702Y-116687200D01*
X123589629Y-116744302D01*
X123319212Y-116856312D01*
X123075844Y-117018926D01*
X122868876Y-117225894D01*
X122706262Y-117469262D01*
X122594252Y-117739679D01*
X122537150Y-118026752D01*
X110763050Y-118026752D01*
X110763050Y-115498513D01*
X125607242Y-115498513D01*
X125703006Y-115762914D01*
X125992621Y-115903804D01*
X126304158Y-115985484D01*
X126625645Y-116004818D01*
X126944725Y-115961061D01*
X127249138Y-115855895D01*
X127423094Y-115762914D01*
X127518858Y-115498513D01*
X144657242Y-115498513D01*
X144753006Y-115762914D01*
X145042621Y-115903804D01*
X145354158Y-115985484D01*
X145675645Y-116004818D01*
X145994725Y-115961061D01*
X146299138Y-115855895D01*
X146473094Y-115762914D01*
X146568858Y-115498513D01*
X163702092Y-115498513D01*
X163797856Y-115762914D01*
X164087471Y-115903804D01*
X164399008Y-115985484D01*
X164720495Y-116004818D01*
X165039575Y-115961061D01*
X165343988Y-115855895D01*
X165517944Y-115762914D01*
X165613708Y-115498513D01*
X164657900Y-114542705D01*
X163702092Y-115498513D01*
X146568858Y-115498513D01*
X145613050Y-114542705D01*
X144657242Y-115498513D01*
X127518858Y-115498513D01*
X126563050Y-114542705D01*
X125607242Y-115498513D01*
X110763050Y-115498513D01*
X110763050Y-114425695D01*
X124921332Y-114425695D01*
X124965089Y-114744775D01*
X125070255Y-115049188D01*
X125163236Y-115223144D01*
X125427637Y-115318908D01*
X126383445Y-114363100D01*
X126742655Y-114363100D01*
X127698463Y-115318908D01*
X127962864Y-115223144D01*
X128103754Y-114933529D01*
X128185434Y-114621992D01*
X128204768Y-114300505D01*
X128161011Y-113981425D01*
X128055845Y-113677012D01*
X127962864Y-113503056D01*
X127698463Y-113407292D01*
X126742655Y-114363100D01*
X126383445Y-114363100D01*
X125427637Y-113407292D01*
X125163236Y-113503056D01*
X125022346Y-113792671D01*
X124940666Y-114104208D01*
X124921332Y-114425695D01*
X110763050Y-114425695D01*
X110763050Y-113227687D01*
X125607242Y-113227687D01*
X126563050Y-114183495D01*
X127518858Y-113227687D01*
X127423094Y-112963286D01*
X127358920Y-112932067D01*
X130008050Y-112932067D01*
X130008050Y-113254133D01*
X130070882Y-113570012D01*
X130194132Y-113867563D01*
X130373063Y-114135352D01*
X130600798Y-114363087D01*
X130868587Y-114542018D01*
X131166138Y-114665268D01*
X131482017Y-114728100D01*
X131804083Y-114728100D01*
X132119962Y-114665268D01*
X132417513Y-114542018D01*
X132591602Y-114425695D01*
X143971332Y-114425695D01*
X144015089Y-114744775D01*
X144120255Y-115049188D01*
X144213236Y-115223144D01*
X144477637Y-115318908D01*
X145433445Y-114363100D01*
X145792655Y-114363100D01*
X146748463Y-115318908D01*
X147012864Y-115223144D01*
X147153754Y-114933529D01*
X147235434Y-114621992D01*
X147254768Y-114300505D01*
X147211011Y-113981425D01*
X147105845Y-113677012D01*
X147012864Y-113503056D01*
X146748463Y-113407292D01*
X145792655Y-114363100D01*
X145433445Y-114363100D01*
X144477637Y-113407292D01*
X144213236Y-113503056D01*
X144072346Y-113792671D01*
X143990666Y-114104208D01*
X143971332Y-114425695D01*
X132591602Y-114425695D01*
X132685302Y-114363087D01*
X132913037Y-114135352D01*
X133091968Y-113867563D01*
X133215218Y-113570012D01*
X133278050Y-113254133D01*
X133278050Y-113227687D01*
X144657242Y-113227687D01*
X145613050Y-114183495D01*
X146568858Y-113227687D01*
X146473094Y-112963286D01*
X146408920Y-112932067D01*
X149058050Y-112932067D01*
X149058050Y-113254133D01*
X149120882Y-113570012D01*
X149244132Y-113867563D01*
X149423063Y-114135352D01*
X149650798Y-114363087D01*
X149918587Y-114542018D01*
X150216138Y-114665268D01*
X150532017Y-114728100D01*
X150854083Y-114728100D01*
X151169962Y-114665268D01*
X151467513Y-114542018D01*
X151641602Y-114425695D01*
X163016182Y-114425695D01*
X163059939Y-114744775D01*
X163165105Y-115049188D01*
X163258086Y-115223144D01*
X163522487Y-115318908D01*
X164478295Y-114363100D01*
X164837505Y-114363100D01*
X165793313Y-115318908D01*
X166057714Y-115223144D01*
X166198604Y-114933529D01*
X166280284Y-114621992D01*
X166299618Y-114300505D01*
X166255861Y-113981425D01*
X166150695Y-113677012D01*
X166057714Y-113503056D01*
X165793313Y-113407292D01*
X164837505Y-114363100D01*
X164478295Y-114363100D01*
X163522487Y-113407292D01*
X163258086Y-113503056D01*
X163117196Y-113792671D01*
X163035516Y-114104208D01*
X163016182Y-114425695D01*
X151641602Y-114425695D01*
X151735302Y-114363087D01*
X151963037Y-114135352D01*
X152141968Y-113867563D01*
X152265218Y-113570012D01*
X152328050Y-113254133D01*
X152328050Y-113227687D01*
X163702092Y-113227687D01*
X164657900Y-114183495D01*
X165613708Y-113227687D01*
X165517944Y-112963286D01*
X165453770Y-112932067D01*
X168102900Y-112932067D01*
X168102900Y-113254133D01*
X168165732Y-113570012D01*
X168288982Y-113867563D01*
X168467913Y-114135352D01*
X168695648Y-114363087D01*
X168963437Y-114542018D01*
X169260988Y-114665268D01*
X169576867Y-114728100D01*
X169898933Y-114728100D01*
X170214812Y-114665268D01*
X170512363Y-114542018D01*
X170780152Y-114363087D01*
X171007887Y-114135352D01*
X171186818Y-113867563D01*
X171310068Y-113570012D01*
X171372900Y-113254133D01*
X171372900Y-112932067D01*
X171310068Y-112616188D01*
X171186818Y-112318637D01*
X171007887Y-112050848D01*
X170780152Y-111823113D01*
X170512363Y-111644182D01*
X170214812Y-111520932D01*
X169898933Y-111458100D01*
X169576867Y-111458100D01*
X169260988Y-111520932D01*
X168963437Y-111644182D01*
X168695648Y-111823113D01*
X168467913Y-112050848D01*
X168288982Y-112318637D01*
X168165732Y-112616188D01*
X168102900Y-112932067D01*
X165453770Y-112932067D01*
X165228329Y-112822396D01*
X164916792Y-112740716D01*
X164595305Y-112721382D01*
X164276225Y-112765139D01*
X163971812Y-112870305D01*
X163797856Y-112963286D01*
X163702092Y-113227687D01*
X152328050Y-113227687D01*
X152328050Y-112932067D01*
X152265218Y-112616188D01*
X152141968Y-112318637D01*
X151963037Y-112050848D01*
X151735302Y-111823113D01*
X151467513Y-111644182D01*
X151169962Y-111520932D01*
X150854083Y-111458100D01*
X150532017Y-111458100D01*
X150216138Y-111520932D01*
X149918587Y-111644182D01*
X149650798Y-111823113D01*
X149423063Y-112050848D01*
X149244132Y-112318637D01*
X149120882Y-112616188D01*
X149058050Y-112932067D01*
X146408920Y-112932067D01*
X146183479Y-112822396D01*
X145871942Y-112740716D01*
X145550455Y-112721382D01*
X145231375Y-112765139D01*
X144926962Y-112870305D01*
X144753006Y-112963286D01*
X144657242Y-113227687D01*
X133278050Y-113227687D01*
X133278050Y-112932067D01*
X133215218Y-112616188D01*
X133091968Y-112318637D01*
X132913037Y-112050848D01*
X132685302Y-111823113D01*
X132417513Y-111644182D01*
X132119962Y-111520932D01*
X131804083Y-111458100D01*
X131482017Y-111458100D01*
X131166138Y-111520932D01*
X130868587Y-111644182D01*
X130600798Y-111823113D01*
X130373063Y-112050848D01*
X130194132Y-112318637D01*
X130070882Y-112616188D01*
X130008050Y-112932067D01*
X127358920Y-112932067D01*
X127133479Y-112822396D01*
X126821942Y-112740716D01*
X126500455Y-112721382D01*
X126181375Y-112765139D01*
X125876962Y-112870305D01*
X125703006Y-112963286D01*
X125607242Y-113227687D01*
X110763050Y-113227687D01*
X110763050Y-99516861D01*
X127675200Y-99516861D01*
X127675200Y-99720739D01*
X127714974Y-99920698D01*
X127792995Y-100109056D01*
X127906263Y-100278574D01*
X128050426Y-100422737D01*
X128219944Y-100536005D01*
X128408302Y-100614026D01*
X128608261Y-100653800D01*
X128812139Y-100653800D01*
X129012098Y-100614026D01*
X129200456Y-100536005D01*
X129369974Y-100422737D01*
X129413911Y-100378800D01*
X138564489Y-100378800D01*
X138608426Y-100422737D01*
X138777944Y-100536005D01*
X138966302Y-100614026D01*
X139144022Y-100649376D01*
X138051799Y-101741600D01*
X136136511Y-101741600D01*
X136092574Y-101697663D01*
X135923056Y-101584395D01*
X135734698Y-101506374D01*
X135534739Y-101466600D01*
X135330861Y-101466600D01*
X135130902Y-101506374D01*
X134942544Y-101584395D01*
X134773026Y-101697663D01*
X134628863Y-101841826D01*
X134515595Y-102011344D01*
X134437574Y-102199702D01*
X134397800Y-102399661D01*
X134397800Y-102603539D01*
X134437574Y-102803498D01*
X134515595Y-102991856D01*
X134628863Y-103161374D01*
X134773026Y-103305537D01*
X134942544Y-103418805D01*
X135130902Y-103496826D01*
X135330861Y-103536600D01*
X135534739Y-103536600D01*
X135734698Y-103496826D01*
X135923056Y-103418805D01*
X136092574Y-103305537D01*
X136136511Y-103261600D01*
X138329278Y-103261600D01*
X138366600Y-103265276D01*
X138403922Y-103261600D01*
X138403933Y-103261600D01*
X138515586Y-103250603D01*
X138658847Y-103207146D01*
X138790876Y-103136574D01*
X138906601Y-103041601D01*
X138930404Y-103012597D01*
X139096800Y-102846201D01*
X139096800Y-102903539D01*
X139136574Y-103103498D01*
X139214595Y-103291856D01*
X139327863Y-103461374D01*
X139371800Y-103505311D01*
X139371801Y-106820468D01*
X139368124Y-106857800D01*
X139371801Y-106895133D01*
X139382798Y-107006786D01*
X139395980Y-107050242D01*
X139426254Y-107150046D01*
X139496826Y-107282076D01*
X139550975Y-107348056D01*
X139591800Y-107397801D01*
X139620798Y-107421599D01*
X140939601Y-108740403D01*
X140963399Y-108769401D01*
X141079124Y-108864374D01*
X141211153Y-108934946D01*
X141354414Y-108978403D01*
X141466067Y-108989400D01*
X141466076Y-108989400D01*
X141503399Y-108993076D01*
X141540722Y-108989400D01*
X154039078Y-108989400D01*
X154076400Y-108993076D01*
X154113722Y-108989400D01*
X154113733Y-108989400D01*
X154225386Y-108978403D01*
X154368647Y-108934946D01*
X154500676Y-108864374D01*
X154616401Y-108769401D01*
X154640204Y-108740397D01*
X155487802Y-107892800D01*
X155549939Y-107892800D01*
X155749898Y-107853026D01*
X155938256Y-107775005D01*
X156107774Y-107661737D01*
X156251937Y-107517574D01*
X156365205Y-107348056D01*
X156443226Y-107159698D01*
X156483000Y-106959739D01*
X156483000Y-106755861D01*
X156443226Y-106555902D01*
X156365205Y-106367544D01*
X156251937Y-106198026D01*
X156235677Y-106181766D01*
X156251937Y-106165506D01*
X156365205Y-105995988D01*
X156443226Y-105807630D01*
X156483000Y-105607671D01*
X156483000Y-105602201D01*
X173169903Y-88915299D01*
X173198901Y-88891501D01*
X173293874Y-88775776D01*
X173364446Y-88643747D01*
X173407903Y-88500486D01*
X173418900Y-88388833D01*
X173422577Y-88351500D01*
X173418900Y-88314167D01*
X173418900Y-64489246D01*
X173513394Y-64438737D01*
X173610085Y-64359385D01*
X173689437Y-64262694D01*
X173748402Y-64152380D01*
X173784712Y-64032682D01*
X173796972Y-63908200D01*
X174060828Y-63908200D01*
X174073088Y-64032682D01*
X174109398Y-64152380D01*
X174168363Y-64262694D01*
X174247715Y-64359385D01*
X174344406Y-64438737D01*
X174454720Y-64497702D01*
X174574418Y-64534012D01*
X174698900Y-64546272D01*
X174913150Y-64543200D01*
X175071900Y-64384450D01*
X175071900Y-63255200D01*
X175325900Y-63255200D01*
X175325900Y-64384450D01*
X175484650Y-64543200D01*
X175698900Y-64546272D01*
X175823382Y-64534012D01*
X175943080Y-64497702D01*
X176053394Y-64438737D01*
X176150085Y-64359385D01*
X176229437Y-64262694D01*
X176288402Y-64152380D01*
X176324712Y-64032682D01*
X176336972Y-63908200D01*
X176333900Y-63413950D01*
X176175150Y-63255200D01*
X175325900Y-63255200D01*
X175071900Y-63255200D01*
X174222650Y-63255200D01*
X174063900Y-63413950D01*
X174060828Y-63908200D01*
X173796972Y-63908200D01*
X173796972Y-62348200D01*
X173784712Y-62223718D01*
X173748402Y-62104020D01*
X173690274Y-61995272D01*
X173759898Y-61827184D01*
X173803900Y-61605973D01*
X173803900Y-61380427D01*
X174053900Y-61380427D01*
X174053900Y-61605973D01*
X174097902Y-61827184D01*
X174167526Y-61995272D01*
X174109398Y-62104020D01*
X174073088Y-62223718D01*
X174060828Y-62348200D01*
X174063900Y-62842450D01*
X174222650Y-63001200D01*
X175071900Y-63001200D01*
X175071900Y-62981200D01*
X175325900Y-62981200D01*
X175325900Y-63001200D01*
X176175150Y-63001200D01*
X176333900Y-62842450D01*
X176336972Y-62348200D01*
X176324712Y-62223718D01*
X176288402Y-62104020D01*
X176230274Y-61995272D01*
X176299898Y-61827184D01*
X176343900Y-61605973D01*
X176343900Y-61380427D01*
X176299898Y-61159216D01*
X176213586Y-60950839D01*
X176088279Y-60763305D01*
X175928795Y-60603821D01*
X175741261Y-60478514D01*
X175532884Y-60392202D01*
X175311673Y-60348200D01*
X175086127Y-60348200D01*
X174864916Y-60392202D01*
X174656539Y-60478514D01*
X174469005Y-60603821D01*
X174309521Y-60763305D01*
X174184214Y-60950839D01*
X174097902Y-61159216D01*
X174053900Y-61380427D01*
X173803900Y-61380427D01*
X173759898Y-61159216D01*
X173673586Y-60950839D01*
X173548279Y-60763305D01*
X173388795Y-60603821D01*
X173201261Y-60478514D01*
X172992884Y-60392202D01*
X172771673Y-60348200D01*
X172546127Y-60348200D01*
X172324916Y-60392202D01*
X172116539Y-60478514D01*
X171929005Y-60603821D01*
X171769521Y-60763305D01*
X171644214Y-60950839D01*
X171557902Y-61159216D01*
X171513900Y-61380427D01*
X171513900Y-61605973D01*
X171557902Y-61827184D01*
X171627526Y-61995272D01*
X171569398Y-62104020D01*
X171533088Y-62223718D01*
X171520828Y-62348200D01*
X171520828Y-63908200D01*
X171533088Y-64032682D01*
X171569398Y-64152380D01*
X171628363Y-64262694D01*
X171707715Y-64359385D01*
X171804406Y-64438737D01*
X171898900Y-64489246D01*
X171898901Y-88036697D01*
X161948400Y-97987199D01*
X161948400Y-69475855D01*
X161980295Y-69552856D01*
X162093563Y-69722374D01*
X162237726Y-69866537D01*
X162407244Y-69979805D01*
X162595602Y-70057826D01*
X162795561Y-70097600D01*
X162999439Y-70097600D01*
X163199398Y-70057826D01*
X163387756Y-69979805D01*
X163557274Y-69866537D01*
X163701437Y-69722374D01*
X163814705Y-69552856D01*
X163892726Y-69364498D01*
X163932500Y-69164539D01*
X163932500Y-68960661D01*
X163892726Y-68760702D01*
X163814705Y-68572344D01*
X163701437Y-68402826D01*
X163657500Y-68358889D01*
X163657500Y-67947701D01*
X167717002Y-63888200D01*
X168980828Y-63888200D01*
X168980828Y-63908200D01*
X168993088Y-64032682D01*
X169029398Y-64152380D01*
X169088363Y-64262694D01*
X169167715Y-64359385D01*
X169264406Y-64438737D01*
X169374720Y-64497702D01*
X169494418Y-64534012D01*
X169618900Y-64546272D01*
X170618900Y-64546272D01*
X170743382Y-64534012D01*
X170863080Y-64497702D01*
X170973394Y-64438737D01*
X171070085Y-64359385D01*
X171149437Y-64262694D01*
X171208402Y-64152380D01*
X171244712Y-64032682D01*
X171256972Y-63908200D01*
X171256972Y-62348200D01*
X171244712Y-62223718D01*
X171208402Y-62104020D01*
X171150274Y-61995272D01*
X171219898Y-61827184D01*
X171263900Y-61605973D01*
X171263900Y-61380427D01*
X171219898Y-61159216D01*
X171133586Y-60950839D01*
X171008279Y-60763305D01*
X170848795Y-60603821D01*
X170661261Y-60478514D01*
X170452884Y-60392202D01*
X170231673Y-60348200D01*
X170006127Y-60348200D01*
X169784916Y-60392202D01*
X169576539Y-60478514D01*
X169389005Y-60603821D01*
X169229521Y-60763305D01*
X169104214Y-60950839D01*
X169017902Y-61159216D01*
X168973900Y-61380427D01*
X168973900Y-61605973D01*
X169017902Y-61827184D01*
X169087526Y-61995272D01*
X169029398Y-62104020D01*
X168993088Y-62223718D01*
X168980828Y-62348200D01*
X168980828Y-62368200D01*
X167542141Y-62368200D01*
X167411400Y-62355323D01*
X167262414Y-62369997D01*
X167119153Y-62413454D01*
X166987124Y-62484026D01*
X166900397Y-62555201D01*
X166891197Y-62564401D01*
X166862199Y-62588199D01*
X166838401Y-62617197D01*
X162386503Y-67069096D01*
X162357499Y-67092899D01*
X162330115Y-67126267D01*
X162262526Y-67208624D01*
X162191955Y-67340653D01*
X162191954Y-67340654D01*
X162148497Y-67483915D01*
X162137500Y-67595568D01*
X162137500Y-67595578D01*
X162133824Y-67632900D01*
X162137500Y-67670223D01*
X162137501Y-68358888D01*
X162093563Y-68402826D01*
X161980295Y-68572344D01*
X161948400Y-68649345D01*
X161948400Y-65211801D01*
X168988106Y-58172096D01*
X168993088Y-58222682D01*
X169029398Y-58342380D01*
X169087526Y-58451128D01*
X169017902Y-58619216D01*
X168973900Y-58840427D01*
X168973900Y-59065973D01*
X169017902Y-59287184D01*
X169104214Y-59495561D01*
X169229521Y-59683095D01*
X169389005Y-59842579D01*
X169576539Y-59967886D01*
X169784916Y-60054198D01*
X170006127Y-60098200D01*
X170231673Y-60098200D01*
X170452884Y-60054198D01*
X170661261Y-59967886D01*
X170848795Y-59842579D01*
X171008279Y-59683095D01*
X171133586Y-59495561D01*
X171219898Y-59287184D01*
X171263900Y-59065973D01*
X171263900Y-58840427D01*
X171219898Y-58619216D01*
X171150274Y-58451128D01*
X171208402Y-58342380D01*
X171244712Y-58222682D01*
X171256972Y-58098200D01*
X171256972Y-56767000D01*
X171520828Y-56767000D01*
X171520828Y-58098200D01*
X171533088Y-58222682D01*
X171569398Y-58342380D01*
X171627526Y-58451128D01*
X171557902Y-58619216D01*
X171513900Y-58840427D01*
X171513900Y-59065973D01*
X171557902Y-59287184D01*
X171644214Y-59495561D01*
X171769521Y-59683095D01*
X171929005Y-59842579D01*
X172116539Y-59967886D01*
X172324916Y-60054198D01*
X172546127Y-60098200D01*
X172771673Y-60098200D01*
X172992884Y-60054198D01*
X173201261Y-59967886D01*
X173388795Y-59842579D01*
X173548279Y-59683095D01*
X173673586Y-59495561D01*
X173759898Y-59287184D01*
X173803900Y-59065973D01*
X173803900Y-58840427D01*
X173759898Y-58619216D01*
X173690274Y-58451128D01*
X173748402Y-58342380D01*
X173784712Y-58222682D01*
X173796972Y-58098200D01*
X173796972Y-56538200D01*
X173784712Y-56413718D01*
X173748402Y-56294020D01*
X173716106Y-56233600D01*
X174069499Y-56233600D01*
X174116546Y-56280647D01*
X174109398Y-56294020D01*
X174073088Y-56413718D01*
X174060828Y-56538200D01*
X174060828Y-58098200D01*
X174073088Y-58222682D01*
X174109398Y-58342380D01*
X174167526Y-58451128D01*
X174097902Y-58619216D01*
X174053900Y-58840427D01*
X174053900Y-59065973D01*
X174097902Y-59287184D01*
X174184214Y-59495561D01*
X174309521Y-59683095D01*
X174469005Y-59842579D01*
X174656539Y-59967886D01*
X174864916Y-60054198D01*
X175086127Y-60098200D01*
X175311673Y-60098200D01*
X175532884Y-60054198D01*
X175741261Y-59967886D01*
X175928795Y-59842579D01*
X176088279Y-59683095D01*
X176213586Y-59495561D01*
X176299898Y-59287184D01*
X176343900Y-59065973D01*
X176343900Y-58840427D01*
X176299898Y-58619216D01*
X176230274Y-58451128D01*
X176288402Y-58342380D01*
X176324712Y-58222682D01*
X176336972Y-58098200D01*
X176336972Y-56538200D01*
X176324712Y-56413718D01*
X176288402Y-56294020D01*
X176229437Y-56183706D01*
X176150085Y-56087015D01*
X176053394Y-56007663D01*
X175943080Y-55948698D01*
X175866823Y-55925566D01*
X175833874Y-55863924D01*
X175738901Y-55748199D01*
X175709904Y-55724402D01*
X174948103Y-54962602D01*
X174924301Y-54933599D01*
X174808576Y-54838626D01*
X174676547Y-54768054D01*
X174533286Y-54724597D01*
X174421633Y-54713600D01*
X174421622Y-54713600D01*
X174384300Y-54709924D01*
X174346978Y-54713600D01*
X168871133Y-54713600D01*
X168833800Y-54709923D01*
X168796467Y-54713600D01*
X168684814Y-54724597D01*
X168541553Y-54768054D01*
X168409524Y-54838626D01*
X168293799Y-54933599D01*
X168270001Y-54962597D01*
X147242048Y-75990551D01*
X147213050Y-76014349D01*
X147189252Y-76043347D01*
X147189251Y-76043348D01*
X147118076Y-76130074D01*
X147047504Y-76262104D01*
X147004048Y-76405365D01*
X146989374Y-76554350D01*
X146993051Y-76591682D01*
X146993050Y-82175239D01*
X146949113Y-82219176D01*
X146835845Y-82388694D01*
X146757824Y-82577052D01*
X146718050Y-82777011D01*
X146718050Y-82839148D01*
X140028200Y-89528999D01*
X140028200Y-80147017D01*
X150077602Y-70097616D01*
X150139739Y-70097616D01*
X150339698Y-70057842D01*
X150528056Y-69979821D01*
X150697574Y-69866553D01*
X150841737Y-69722390D01*
X150955005Y-69552872D01*
X151033026Y-69364514D01*
X151072800Y-69164555D01*
X151072800Y-68960677D01*
X151033026Y-68760718D01*
X150955005Y-68572360D01*
X150841737Y-68402842D01*
X150697574Y-68258679D01*
X150528056Y-68145411D01*
X150339698Y-68067390D01*
X150139739Y-68027616D01*
X149935861Y-68027616D01*
X149735902Y-68067390D01*
X149547544Y-68145411D01*
X149378026Y-68258679D01*
X149233863Y-68402842D01*
X149120595Y-68572360D01*
X149042574Y-68760718D01*
X149002800Y-68960677D01*
X149002800Y-69022814D01*
X138757198Y-79268417D01*
X138728200Y-79292215D01*
X138704402Y-79321213D01*
X138704401Y-79321214D01*
X138633226Y-79407940D01*
X138562654Y-79539970D01*
X138519198Y-79683231D01*
X138504524Y-79832216D01*
X138508201Y-79869549D01*
X138508200Y-98858800D01*
X129413911Y-98858800D01*
X129369974Y-98814863D01*
X129200456Y-98701595D01*
X129012098Y-98623574D01*
X128812139Y-98583800D01*
X128608261Y-98583800D01*
X128408302Y-98623574D01*
X128219944Y-98701595D01*
X128050426Y-98814863D01*
X127906263Y-98959026D01*
X127792995Y-99128544D01*
X127714974Y-99316902D01*
X127675200Y-99516861D01*
X110763050Y-99516861D01*
X110763050Y-66965234D01*
X119947050Y-66965234D01*
X119947050Y-67287300D01*
X120009882Y-67603179D01*
X120133132Y-67900730D01*
X120312063Y-68168519D01*
X120539798Y-68396254D01*
X120807587Y-68575185D01*
X121105138Y-68698435D01*
X121421017Y-68761267D01*
X121743083Y-68761267D01*
X122058962Y-68698435D01*
X122356513Y-68575185D01*
X122624302Y-68396254D01*
X122758876Y-68261680D01*
X141126242Y-68261680D01*
X141222006Y-68526081D01*
X141511621Y-68666971D01*
X141823158Y-68748651D01*
X142144645Y-68767985D01*
X142463725Y-68724228D01*
X142768138Y-68619062D01*
X142942094Y-68526081D01*
X143037858Y-68261680D01*
X142082050Y-67305872D01*
X141126242Y-68261680D01*
X122758876Y-68261680D01*
X122852037Y-68168519D01*
X123030968Y-67900730D01*
X123154218Y-67603179D01*
X123217050Y-67287300D01*
X123217050Y-67188862D01*
X140440332Y-67188862D01*
X140484089Y-67507942D01*
X140589255Y-67812355D01*
X140682236Y-67986311D01*
X140946637Y-68082075D01*
X141902445Y-67126267D01*
X142261655Y-67126267D01*
X143217463Y-68082075D01*
X143481864Y-67986311D01*
X143622754Y-67696696D01*
X143704434Y-67385159D01*
X143723768Y-67063672D01*
X143680011Y-66744592D01*
X143574845Y-66440179D01*
X143481864Y-66266223D01*
X143217463Y-66170459D01*
X142261655Y-67126267D01*
X141902445Y-67126267D01*
X140946637Y-66170459D01*
X140682236Y-66266223D01*
X140541346Y-66555838D01*
X140459666Y-66867375D01*
X140440332Y-67188862D01*
X123217050Y-67188862D01*
X123217050Y-66965234D01*
X123154218Y-66649355D01*
X123030968Y-66351804D01*
X122852037Y-66084015D01*
X122758876Y-65990854D01*
X141126242Y-65990854D01*
X142082050Y-66946662D01*
X143037858Y-65990854D01*
X142942094Y-65726453D01*
X142652479Y-65585563D01*
X142340942Y-65503883D01*
X142019455Y-65484549D01*
X141700375Y-65528306D01*
X141395962Y-65633472D01*
X141222006Y-65726453D01*
X141126242Y-65990854D01*
X122758876Y-65990854D01*
X122624302Y-65856280D01*
X122356513Y-65677349D01*
X122058962Y-65554099D01*
X121743083Y-65491267D01*
X121421017Y-65491267D01*
X121105138Y-65554099D01*
X120807587Y-65677349D01*
X120539798Y-65856280D01*
X120312063Y-66084015D01*
X120133132Y-66351804D01*
X120009882Y-66649355D01*
X119947050Y-66965234D01*
X110763050Y-66965234D01*
X110763050Y-52983200D01*
X185543050Y-52983200D01*
X185543051Y-134113200D01*
G37*
X185543051Y-134113200D02*
X110763050Y-134113200D01*
X110763050Y-129299400D01*
X169284715Y-129299400D01*
X169284715Y-133119400D01*
X184283286Y-133119400D01*
X184283286Y-129299400D01*
X169284715Y-129299400D01*
X110763050Y-129299400D01*
X110763050Y-118026752D01*
X122537150Y-118026752D01*
X122537150Y-118319448D01*
X122594252Y-118606521D01*
X122706262Y-118876938D01*
X122868876Y-119120306D01*
X123075844Y-119327274D01*
X123319212Y-119489888D01*
X123589629Y-119601898D01*
X123876702Y-119659000D01*
X124169398Y-119659000D01*
X124456471Y-119601898D01*
X124726888Y-119489888D01*
X124970256Y-119327274D01*
X125177224Y-119120306D01*
X125339838Y-118876938D01*
X125451848Y-118606521D01*
X125508950Y-118319448D01*
X125508950Y-118026752D01*
X125486558Y-117914176D01*
X126474150Y-117914176D01*
X126474150Y-118432024D01*
X126575177Y-118939922D01*
X126773349Y-119418351D01*
X127061050Y-119848926D01*
X127427224Y-120215100D01*
X127857799Y-120502801D01*
X128336228Y-120700973D01*
X128844126Y-120802000D01*
X129361974Y-120802000D01*
X129869872Y-120700973D01*
X130348301Y-120502801D01*
X130778876Y-120215100D01*
X131145050Y-119848926D01*
X131432751Y-119418351D01*
X131630923Y-118939922D01*
X131731950Y-118432024D01*
X131731950Y-118026752D01*
X132697150Y-118026752D01*
X132697150Y-118319448D01*
X132754252Y-118606521D01*
X132866262Y-118876938D01*
X133028876Y-119120306D01*
X133235844Y-119327274D01*
X133479212Y-119489888D01*
X133749629Y-119601898D01*
X134036702Y-119659000D01*
X134329398Y-119659000D01*
X134616471Y-119601898D01*
X134886888Y-119489888D01*
X135130256Y-119327274D01*
X135337224Y-119120306D01*
X135499838Y-118876938D01*
X135611848Y-118606521D01*
X135668950Y-118319448D01*
X135668950Y-118026752D01*
X141587150Y-118026752D01*
X141587150Y-118319448D01*
X141644252Y-118606521D01*
X141756262Y-118876938D01*
X141918876Y-119120306D01*
X142125844Y-119327274D01*
X142369212Y-119489888D01*
X142639629Y-119601898D01*
X142926702Y-119659000D01*
X143219398Y-119659000D01*
X143506471Y-119601898D01*
X143776888Y-119489888D01*
X144020256Y-119327274D01*
X144227224Y-119120306D01*
X144389838Y-118876938D01*
X144501848Y-118606521D01*
X144558950Y-118319448D01*
X144558950Y-118026752D01*
X144536558Y-117914176D01*
X145524150Y-117914176D01*
X145524150Y-118432024D01*
X145625177Y-118939922D01*
X145823349Y-119418351D01*
X146111050Y-119848926D01*
X146477224Y-120215100D01*
X146907799Y-120502801D01*
X147386228Y-120700973D01*
X147894126Y-120802000D01*
X148411974Y-120802000D01*
X148919872Y-120700973D01*
X149398301Y-120502801D01*
X149828876Y-120215100D01*
X150195050Y-119848926D01*
X150482751Y-119418351D01*
X150680923Y-118939922D01*
X150781950Y-118432024D01*
X150781950Y-118026752D01*
X151747150Y-118026752D01*
X151747150Y-118319448D01*
X151804252Y-118606521D01*
X151916262Y-118876938D01*
X152078876Y-119120306D01*
X152285844Y-119327274D01*
X152529212Y-119489888D01*
X152799629Y-119601898D01*
X153086702Y-119659000D01*
X153379398Y-119659000D01*
X153666471Y-119601898D01*
X153936888Y-119489888D01*
X154180256Y-119327274D01*
X154387224Y-119120306D01*
X154549838Y-118876938D01*
X154661848Y-118606521D01*
X154718950Y-118319448D01*
X154718950Y-118026752D01*
X160632000Y-118026752D01*
X160632000Y-118319448D01*
X160689102Y-118606521D01*
X160801112Y-118876938D01*
X160963726Y-119120306D01*
X161170694Y-119327274D01*
X161414062Y-119489888D01*
X161684479Y-119601898D01*
X161971552Y-119659000D01*
X162264248Y-119659000D01*
X162551321Y-119601898D01*
X162821738Y-119489888D01*
X163065106Y-119327274D01*
X163272074Y-119120306D01*
X163434688Y-118876938D01*
X163546698Y-118606521D01*
X163603800Y-118319448D01*
X163603800Y-118026752D01*
X163581408Y-117914176D01*
X164569000Y-117914176D01*
X164569000Y-118432024D01*
X164670027Y-118939922D01*
X164868199Y-119418351D01*
X165155900Y-119848926D01*
X165522074Y-120215100D01*
X165952649Y-120502801D01*
X166431078Y-120700973D01*
X166938976Y-120802000D01*
X167456824Y-120802000D01*
X167964722Y-120700973D01*
X168443151Y-120502801D01*
X168873726Y-120215100D01*
X169239900Y-119848926D01*
X169527601Y-119418351D01*
X169725773Y-118939922D01*
X169826800Y-118432024D01*
X169826800Y-118026752D01*
X170792000Y-118026752D01*
X170792000Y-118319448D01*
X170849102Y-118606521D01*
X170961112Y-118876938D01*
X171123726Y-119120306D01*
X171330694Y-119327274D01*
X171574062Y-119489888D01*
X171844479Y-119601898D01*
X172131552Y-119659000D01*
X172424248Y-119659000D01*
X172711321Y-119601898D01*
X172981738Y-119489888D01*
X173225106Y-119327274D01*
X173432074Y-119120306D01*
X173594688Y-118876938D01*
X173706698Y-118606521D01*
X173763800Y-118319448D01*
X173763800Y-118026752D01*
X173706698Y-117739679D01*
X173594688Y-117469262D01*
X173432074Y-117225894D01*
X173225106Y-117018926D01*
X172981738Y-116856312D01*
X172711321Y-116744302D01*
X172424248Y-116687200D01*
X172131552Y-116687200D01*
X171844479Y-116744302D01*
X171574062Y-116856312D01*
X171330694Y-117018926D01*
X171123726Y-117225894D01*
X170961112Y-117469262D01*
X170849102Y-117739679D01*
X170792000Y-118026752D01*
X169826800Y-118026752D01*
X169826800Y-117914176D01*
X169725773Y-117406278D01*
X169527601Y-116927849D01*
X169239900Y-116497274D01*
X168873726Y-116131100D01*
X168443151Y-115843399D01*
X167964722Y-115645227D01*
X167456824Y-115544200D01*
X166938976Y-115544200D01*
X166431078Y-115645227D01*
X165952649Y-115843399D01*
X165522074Y-116131100D01*
X165155900Y-116497274D01*
X164868199Y-116927849D01*
X164670027Y-117406278D01*
X164569000Y-117914176D01*
X163581408Y-117914176D01*
X163546698Y-117739679D01*
X163434688Y-117469262D01*
X163272074Y-117225894D01*
X163065106Y-117018926D01*
X162821738Y-116856312D01*
X162551321Y-116744302D01*
X162264248Y-116687200D01*
X161971552Y-116687200D01*
X161684479Y-116744302D01*
X161414062Y-116856312D01*
X161170694Y-117018926D01*
X160963726Y-117225894D01*
X160801112Y-117469262D01*
X160689102Y-117739679D01*
X160632000Y-118026752D01*
X154718950Y-118026752D01*
X154661848Y-117739679D01*
X154549838Y-117469262D01*
X154387224Y-117225894D01*
X154180256Y-117018926D01*
X153936888Y-116856312D01*
X153666471Y-116744302D01*
X153379398Y-116687200D01*
X153086702Y-116687200D01*
X152799629Y-116744302D01*
X152529212Y-116856312D01*
X152285844Y-117018926D01*
X152078876Y-117225894D01*
X151916262Y-117469262D01*
X151804252Y-117739679D01*
X151747150Y-118026752D01*
X150781950Y-118026752D01*
X150781950Y-117914176D01*
X150680923Y-117406278D01*
X150482751Y-116927849D01*
X150195050Y-116497274D01*
X149828876Y-116131100D01*
X149398301Y-115843399D01*
X148919872Y-115645227D01*
X148411974Y-115544200D01*
X147894126Y-115544200D01*
X147386228Y-115645227D01*
X146907799Y-115843399D01*
X146477224Y-116131100D01*
X146111050Y-116497274D01*
X145823349Y-116927849D01*
X145625177Y-117406278D01*
X145524150Y-117914176D01*
X144536558Y-117914176D01*
X144501848Y-117739679D01*
X144389838Y-117469262D01*
X144227224Y-117225894D01*
X144020256Y-117018926D01*
X143776888Y-116856312D01*
X143506471Y-116744302D01*
X143219398Y-116687200D01*
X142926702Y-116687200D01*
X142639629Y-116744302D01*
X142369212Y-116856312D01*
X142125844Y-117018926D01*
X141918876Y-117225894D01*
X141756262Y-117469262D01*
X141644252Y-117739679D01*
X141587150Y-118026752D01*
X135668950Y-118026752D01*
X135611848Y-117739679D01*
X135499838Y-117469262D01*
X135337224Y-117225894D01*
X135130256Y-117018926D01*
X134886888Y-116856312D01*
X134616471Y-116744302D01*
X134329398Y-116687200D01*
X134036702Y-116687200D01*
X133749629Y-116744302D01*
X133479212Y-116856312D01*
X133235844Y-117018926D01*
X133028876Y-117225894D01*
X132866262Y-117469262D01*
X132754252Y-117739679D01*
X132697150Y-118026752D01*
X131731950Y-118026752D01*
X131731950Y-117914176D01*
X131630923Y-117406278D01*
X131432751Y-116927849D01*
X131145050Y-116497274D01*
X130778876Y-116131100D01*
X130348301Y-115843399D01*
X129869872Y-115645227D01*
X129361974Y-115544200D01*
X128844126Y-115544200D01*
X128336228Y-115645227D01*
X127857799Y-115843399D01*
X127427224Y-116131100D01*
X127061050Y-116497274D01*
X126773349Y-116927849D01*
X126575177Y-117406278D01*
X126474150Y-117914176D01*
X125486558Y-117914176D01*
X125451848Y-117739679D01*
X125339838Y-117469262D01*
X125177224Y-117225894D01*
X124970256Y-117018926D01*
X124726888Y-116856312D01*
X124456471Y-116744302D01*
X124169398Y-116687200D01*
X123876702Y-116687200D01*
X123589629Y-116744302D01*
X123319212Y-116856312D01*
X123075844Y-117018926D01*
X122868876Y-117225894D01*
X122706262Y-117469262D01*
X122594252Y-117739679D01*
X122537150Y-118026752D01*
X110763050Y-118026752D01*
X110763050Y-115498513D01*
X125607242Y-115498513D01*
X125703006Y-115762914D01*
X125992621Y-115903804D01*
X126304158Y-115985484D01*
X126625645Y-116004818D01*
X126944725Y-115961061D01*
X127249138Y-115855895D01*
X127423094Y-115762914D01*
X127518858Y-115498513D01*
X144657242Y-115498513D01*
X144753006Y-115762914D01*
X145042621Y-115903804D01*
X145354158Y-115985484D01*
X145675645Y-116004818D01*
X145994725Y-115961061D01*
X146299138Y-115855895D01*
X146473094Y-115762914D01*
X146568858Y-115498513D01*
X163702092Y-115498513D01*
X163797856Y-115762914D01*
X164087471Y-115903804D01*
X164399008Y-115985484D01*
X164720495Y-116004818D01*
X165039575Y-115961061D01*
X165343988Y-115855895D01*
X165517944Y-115762914D01*
X165613708Y-115498513D01*
X164657900Y-114542705D01*
X163702092Y-115498513D01*
X146568858Y-115498513D01*
X145613050Y-114542705D01*
X144657242Y-115498513D01*
X127518858Y-115498513D01*
X126563050Y-114542705D01*
X125607242Y-115498513D01*
X110763050Y-115498513D01*
X110763050Y-114425695D01*
X124921332Y-114425695D01*
X124965089Y-114744775D01*
X125070255Y-115049188D01*
X125163236Y-115223144D01*
X125427637Y-115318908D01*
X126383445Y-114363100D01*
X126742655Y-114363100D01*
X127698463Y-115318908D01*
X127962864Y-115223144D01*
X128103754Y-114933529D01*
X128185434Y-114621992D01*
X128204768Y-114300505D01*
X128161011Y-113981425D01*
X128055845Y-113677012D01*
X127962864Y-113503056D01*
X127698463Y-113407292D01*
X126742655Y-114363100D01*
X126383445Y-114363100D01*
X125427637Y-113407292D01*
X125163236Y-113503056D01*
X125022346Y-113792671D01*
X124940666Y-114104208D01*
X124921332Y-114425695D01*
X110763050Y-114425695D01*
X110763050Y-113227687D01*
X125607242Y-113227687D01*
X126563050Y-114183495D01*
X127518858Y-113227687D01*
X127423094Y-112963286D01*
X127358920Y-112932067D01*
X130008050Y-112932067D01*
X130008050Y-113254133D01*
X130070882Y-113570012D01*
X130194132Y-113867563D01*
X130373063Y-114135352D01*
X130600798Y-114363087D01*
X130868587Y-114542018D01*
X131166138Y-114665268D01*
X131482017Y-114728100D01*
X131804083Y-114728100D01*
X132119962Y-114665268D01*
X132417513Y-114542018D01*
X132591602Y-114425695D01*
X143971332Y-114425695D01*
X144015089Y-114744775D01*
X144120255Y-115049188D01*
X144213236Y-115223144D01*
X144477637Y-115318908D01*
X145433445Y-114363100D01*
X145792655Y-114363100D01*
X146748463Y-115318908D01*
X147012864Y-115223144D01*
X147153754Y-114933529D01*
X147235434Y-114621992D01*
X147254768Y-114300505D01*
X147211011Y-113981425D01*
X147105845Y-113677012D01*
X147012864Y-113503056D01*
X146748463Y-113407292D01*
X145792655Y-114363100D01*
X145433445Y-114363100D01*
X144477637Y-113407292D01*
X144213236Y-113503056D01*
X144072346Y-113792671D01*
X143990666Y-114104208D01*
X143971332Y-114425695D01*
X132591602Y-114425695D01*
X132685302Y-114363087D01*
X132913037Y-114135352D01*
X133091968Y-113867563D01*
X133215218Y-113570012D01*
X133278050Y-113254133D01*
X133278050Y-113227687D01*
X144657242Y-113227687D01*
X145613050Y-114183495D01*
X146568858Y-113227687D01*
X146473094Y-112963286D01*
X146408920Y-112932067D01*
X149058050Y-112932067D01*
X149058050Y-113254133D01*
X149120882Y-113570012D01*
X149244132Y-113867563D01*
X149423063Y-114135352D01*
X149650798Y-114363087D01*
X149918587Y-114542018D01*
X150216138Y-114665268D01*
X150532017Y-114728100D01*
X150854083Y-114728100D01*
X151169962Y-114665268D01*
X151467513Y-114542018D01*
X151641602Y-114425695D01*
X163016182Y-114425695D01*
X163059939Y-114744775D01*
X163165105Y-115049188D01*
X163258086Y-115223144D01*
X163522487Y-115318908D01*
X164478295Y-114363100D01*
X164837505Y-114363100D01*
X165793313Y-115318908D01*
X166057714Y-115223144D01*
X166198604Y-114933529D01*
X166280284Y-114621992D01*
X166299618Y-114300505D01*
X166255861Y-113981425D01*
X166150695Y-113677012D01*
X166057714Y-113503056D01*
X165793313Y-113407292D01*
X164837505Y-114363100D01*
X164478295Y-114363100D01*
X163522487Y-113407292D01*
X163258086Y-113503056D01*
X163117196Y-113792671D01*
X163035516Y-114104208D01*
X163016182Y-114425695D01*
X151641602Y-114425695D01*
X151735302Y-114363087D01*
X151963037Y-114135352D01*
X152141968Y-113867563D01*
X152265218Y-113570012D01*
X152328050Y-113254133D01*
X152328050Y-113227687D01*
X163702092Y-113227687D01*
X164657900Y-114183495D01*
X165613708Y-113227687D01*
X165517944Y-112963286D01*
X165453770Y-112932067D01*
X168102900Y-112932067D01*
X168102900Y-113254133D01*
X168165732Y-113570012D01*
X168288982Y-113867563D01*
X168467913Y-114135352D01*
X168695648Y-114363087D01*
X168963437Y-114542018D01*
X169260988Y-114665268D01*
X169576867Y-114728100D01*
X169898933Y-114728100D01*
X170214812Y-114665268D01*
X170512363Y-114542018D01*
X170780152Y-114363087D01*
X171007887Y-114135352D01*
X171186818Y-113867563D01*
X171310068Y-113570012D01*
X171372900Y-113254133D01*
X171372900Y-112932067D01*
X171310068Y-112616188D01*
X171186818Y-112318637D01*
X171007887Y-112050848D01*
X170780152Y-111823113D01*
X170512363Y-111644182D01*
X170214812Y-111520932D01*
X169898933Y-111458100D01*
X169576867Y-111458100D01*
X169260988Y-111520932D01*
X168963437Y-111644182D01*
X168695648Y-111823113D01*
X168467913Y-112050848D01*
X168288982Y-112318637D01*
X168165732Y-112616188D01*
X168102900Y-112932067D01*
X165453770Y-112932067D01*
X165228329Y-112822396D01*
X164916792Y-112740716D01*
X164595305Y-112721382D01*
X164276225Y-112765139D01*
X163971812Y-112870305D01*
X163797856Y-112963286D01*
X163702092Y-113227687D01*
X152328050Y-113227687D01*
X152328050Y-112932067D01*
X152265218Y-112616188D01*
X152141968Y-112318637D01*
X151963037Y-112050848D01*
X151735302Y-111823113D01*
X151467513Y-111644182D01*
X151169962Y-111520932D01*
X150854083Y-111458100D01*
X150532017Y-111458100D01*
X150216138Y-111520932D01*
X149918587Y-111644182D01*
X149650798Y-111823113D01*
X149423063Y-112050848D01*
X149244132Y-112318637D01*
X149120882Y-112616188D01*
X149058050Y-112932067D01*
X146408920Y-112932067D01*
X146183479Y-112822396D01*
X145871942Y-112740716D01*
X145550455Y-112721382D01*
X145231375Y-112765139D01*
X144926962Y-112870305D01*
X144753006Y-112963286D01*
X144657242Y-113227687D01*
X133278050Y-113227687D01*
X133278050Y-112932067D01*
X133215218Y-112616188D01*
X133091968Y-112318637D01*
X132913037Y-112050848D01*
X132685302Y-111823113D01*
X132417513Y-111644182D01*
X132119962Y-111520932D01*
X131804083Y-111458100D01*
X131482017Y-111458100D01*
X131166138Y-111520932D01*
X130868587Y-111644182D01*
X130600798Y-111823113D01*
X130373063Y-112050848D01*
X130194132Y-112318637D01*
X130070882Y-112616188D01*
X130008050Y-112932067D01*
X127358920Y-112932067D01*
X127133479Y-112822396D01*
X126821942Y-112740716D01*
X126500455Y-112721382D01*
X126181375Y-112765139D01*
X125876962Y-112870305D01*
X125703006Y-112963286D01*
X125607242Y-113227687D01*
X110763050Y-113227687D01*
X110763050Y-99516861D01*
X127675200Y-99516861D01*
X127675200Y-99720739D01*
X127714974Y-99920698D01*
X127792995Y-100109056D01*
X127906263Y-100278574D01*
X128050426Y-100422737D01*
X128219944Y-100536005D01*
X128408302Y-100614026D01*
X128608261Y-100653800D01*
X128812139Y-100653800D01*
X129012098Y-100614026D01*
X129200456Y-100536005D01*
X129369974Y-100422737D01*
X129413911Y-100378800D01*
X138564489Y-100378800D01*
X138608426Y-100422737D01*
X138777944Y-100536005D01*
X138966302Y-100614026D01*
X139144022Y-100649376D01*
X138051799Y-101741600D01*
X136136511Y-101741600D01*
X136092574Y-101697663D01*
X135923056Y-101584395D01*
X135734698Y-101506374D01*
X135534739Y-101466600D01*
X135330861Y-101466600D01*
X135130902Y-101506374D01*
X134942544Y-101584395D01*
X134773026Y-101697663D01*
X134628863Y-101841826D01*
X134515595Y-102011344D01*
X134437574Y-102199702D01*
X134397800Y-102399661D01*
X134397800Y-102603539D01*
X134437574Y-102803498D01*
X134515595Y-102991856D01*
X134628863Y-103161374D01*
X134773026Y-103305537D01*
X134942544Y-103418805D01*
X135130902Y-103496826D01*
X135330861Y-103536600D01*
X135534739Y-103536600D01*
X135734698Y-103496826D01*
X135923056Y-103418805D01*
X136092574Y-103305537D01*
X136136511Y-103261600D01*
X138329278Y-103261600D01*
X138366600Y-103265276D01*
X138403922Y-103261600D01*
X138403933Y-103261600D01*
X138515586Y-103250603D01*
X138658847Y-103207146D01*
X138790876Y-103136574D01*
X138906601Y-103041601D01*
X138930404Y-103012597D01*
X139096800Y-102846201D01*
X139096800Y-102903539D01*
X139136574Y-103103498D01*
X139214595Y-103291856D01*
X139327863Y-103461374D01*
X139371800Y-103505311D01*
X139371801Y-106820468D01*
X139368124Y-106857800D01*
X139371801Y-106895133D01*
X139382798Y-107006786D01*
X139395980Y-107050242D01*
X139426254Y-107150046D01*
X139496826Y-107282076D01*
X139550975Y-107348056D01*
X139591800Y-107397801D01*
X139620798Y-107421599D01*
X140939601Y-108740403D01*
X140963399Y-108769401D01*
X141079124Y-108864374D01*
X141211153Y-108934946D01*
X141354414Y-108978403D01*
X141466067Y-108989400D01*
X141466076Y-108989400D01*
X141503399Y-108993076D01*
X141540722Y-108989400D01*
X154039078Y-108989400D01*
X154076400Y-108993076D01*
X154113722Y-108989400D01*
X154113733Y-108989400D01*
X154225386Y-108978403D01*
X154368647Y-108934946D01*
X154500676Y-108864374D01*
X154616401Y-108769401D01*
X154640204Y-108740397D01*
X155487802Y-107892800D01*
X155549939Y-107892800D01*
X155749898Y-107853026D01*
X155938256Y-107775005D01*
X156107774Y-107661737D01*
X156251937Y-107517574D01*
X156365205Y-107348056D01*
X156443226Y-107159698D01*
X156483000Y-106959739D01*
X156483000Y-106755861D01*
X156443226Y-106555902D01*
X156365205Y-106367544D01*
X156251937Y-106198026D01*
X156235677Y-106181766D01*
X156251937Y-106165506D01*
X156365205Y-105995988D01*
X156443226Y-105807630D01*
X156483000Y-105607671D01*
X156483000Y-105602201D01*
X173169903Y-88915299D01*
X173198901Y-88891501D01*
X173293874Y-88775776D01*
X173364446Y-88643747D01*
X173407903Y-88500486D01*
X173418900Y-88388833D01*
X173422577Y-88351500D01*
X173418900Y-88314167D01*
X173418900Y-64489246D01*
X173513394Y-64438737D01*
X173610085Y-64359385D01*
X173689437Y-64262694D01*
X173748402Y-64152380D01*
X173784712Y-64032682D01*
X173796972Y-63908200D01*
X174060828Y-63908200D01*
X174073088Y-64032682D01*
X174109398Y-64152380D01*
X174168363Y-64262694D01*
X174247715Y-64359385D01*
X174344406Y-64438737D01*
X174454720Y-64497702D01*
X174574418Y-64534012D01*
X174698900Y-64546272D01*
X174913150Y-64543200D01*
X175071900Y-64384450D01*
X175071900Y-63255200D01*
X175325900Y-63255200D01*
X175325900Y-64384450D01*
X175484650Y-64543200D01*
X175698900Y-64546272D01*
X175823382Y-64534012D01*
X175943080Y-64497702D01*
X176053394Y-64438737D01*
X176150085Y-64359385D01*
X176229437Y-64262694D01*
X176288402Y-64152380D01*
X176324712Y-64032682D01*
X176336972Y-63908200D01*
X176333900Y-63413950D01*
X176175150Y-63255200D01*
X175325900Y-63255200D01*
X175071900Y-63255200D01*
X174222650Y-63255200D01*
X174063900Y-63413950D01*
X174060828Y-63908200D01*
X173796972Y-63908200D01*
X173796972Y-62348200D01*
X173784712Y-62223718D01*
X173748402Y-62104020D01*
X173690274Y-61995272D01*
X173759898Y-61827184D01*
X173803900Y-61605973D01*
X173803900Y-61380427D01*
X174053900Y-61380427D01*
X174053900Y-61605973D01*
X174097902Y-61827184D01*
X174167526Y-61995272D01*
X174109398Y-62104020D01*
X174073088Y-62223718D01*
X174060828Y-62348200D01*
X174063900Y-62842450D01*
X174222650Y-63001200D01*
X175071900Y-63001200D01*
X175071900Y-62981200D01*
X175325900Y-62981200D01*
X175325900Y-63001200D01*
X176175150Y-63001200D01*
X176333900Y-62842450D01*
X176336972Y-62348200D01*
X176324712Y-62223718D01*
X176288402Y-62104020D01*
X176230274Y-61995272D01*
X176299898Y-61827184D01*
X176343900Y-61605973D01*
X176343900Y-61380427D01*
X176299898Y-61159216D01*
X176213586Y-60950839D01*
X176088279Y-60763305D01*
X175928795Y-60603821D01*
X175741261Y-60478514D01*
X175532884Y-60392202D01*
X175311673Y-60348200D01*
X175086127Y-60348200D01*
X174864916Y-60392202D01*
X174656539Y-60478514D01*
X174469005Y-60603821D01*
X174309521Y-60763305D01*
X174184214Y-60950839D01*
X174097902Y-61159216D01*
X174053900Y-61380427D01*
X173803900Y-61380427D01*
X173759898Y-61159216D01*
X173673586Y-60950839D01*
X173548279Y-60763305D01*
X173388795Y-60603821D01*
X173201261Y-60478514D01*
X172992884Y-60392202D01*
X172771673Y-60348200D01*
X172546127Y-60348200D01*
X172324916Y-60392202D01*
X172116539Y-60478514D01*
X171929005Y-60603821D01*
X171769521Y-60763305D01*
X171644214Y-60950839D01*
X171557902Y-61159216D01*
X171513900Y-61380427D01*
X171513900Y-61605973D01*
X171557902Y-61827184D01*
X171627526Y-61995272D01*
X171569398Y-62104020D01*
X171533088Y-62223718D01*
X171520828Y-62348200D01*
X171520828Y-63908200D01*
X171533088Y-64032682D01*
X171569398Y-64152380D01*
X171628363Y-64262694D01*
X171707715Y-64359385D01*
X171804406Y-64438737D01*
X171898900Y-64489246D01*
X171898901Y-88036697D01*
X161948400Y-97987199D01*
X161948400Y-69475855D01*
X161980295Y-69552856D01*
X162093563Y-69722374D01*
X162237726Y-69866537D01*
X162407244Y-69979805D01*
X162595602Y-70057826D01*
X162795561Y-70097600D01*
X162999439Y-70097600D01*
X163199398Y-70057826D01*
X163387756Y-69979805D01*
X163557274Y-69866537D01*
X163701437Y-69722374D01*
X163814705Y-69552856D01*
X163892726Y-69364498D01*
X163932500Y-69164539D01*
X163932500Y-68960661D01*
X163892726Y-68760702D01*
X163814705Y-68572344D01*
X163701437Y-68402826D01*
X163657500Y-68358889D01*
X163657500Y-67947701D01*
X167717002Y-63888200D01*
X168980828Y-63888200D01*
X168980828Y-63908200D01*
X168993088Y-64032682D01*
X169029398Y-64152380D01*
X169088363Y-64262694D01*
X169167715Y-64359385D01*
X169264406Y-64438737D01*
X169374720Y-64497702D01*
X169494418Y-64534012D01*
X169618900Y-64546272D01*
X170618900Y-64546272D01*
X170743382Y-64534012D01*
X170863080Y-64497702D01*
X170973394Y-64438737D01*
X171070085Y-64359385D01*
X171149437Y-64262694D01*
X171208402Y-64152380D01*
X171244712Y-64032682D01*
X171256972Y-63908200D01*
X171256972Y-62348200D01*
X171244712Y-62223718D01*
X171208402Y-62104020D01*
X171150274Y-61995272D01*
X171219898Y-61827184D01*
X171263900Y-61605973D01*
X171263900Y-61380427D01*
X171219898Y-61159216D01*
X171133586Y-60950839D01*
X171008279Y-60763305D01*
X170848795Y-60603821D01*
X170661261Y-60478514D01*
X170452884Y-60392202D01*
X170231673Y-60348200D01*
X170006127Y-60348200D01*
X169784916Y-60392202D01*
X169576539Y-60478514D01*
X169389005Y-60603821D01*
X169229521Y-60763305D01*
X169104214Y-60950839D01*
X169017902Y-61159216D01*
X168973900Y-61380427D01*
X168973900Y-61605973D01*
X169017902Y-61827184D01*
X169087526Y-61995272D01*
X169029398Y-62104020D01*
X168993088Y-62223718D01*
X168980828Y-62348200D01*
X168980828Y-62368200D01*
X167542141Y-62368200D01*
X167411400Y-62355323D01*
X167262414Y-62369997D01*
X167119153Y-62413454D01*
X166987124Y-62484026D01*
X166900397Y-62555201D01*
X166891197Y-62564401D01*
X166862199Y-62588199D01*
X166838401Y-62617197D01*
X162386503Y-67069096D01*
X162357499Y-67092899D01*
X162330115Y-67126267D01*
X162262526Y-67208624D01*
X162191955Y-67340653D01*
X162191954Y-67340654D01*
X162148497Y-67483915D01*
X162137500Y-67595568D01*
X162137500Y-67595578D01*
X162133824Y-67632900D01*
X162137500Y-67670223D01*
X162137501Y-68358888D01*
X162093563Y-68402826D01*
X161980295Y-68572344D01*
X161948400Y-68649345D01*
X161948400Y-65211801D01*
X168988106Y-58172096D01*
X168993088Y-58222682D01*
X169029398Y-58342380D01*
X169087526Y-58451128D01*
X169017902Y-58619216D01*
X168973900Y-58840427D01*
X168973900Y-59065973D01*
X169017902Y-59287184D01*
X169104214Y-59495561D01*
X169229521Y-59683095D01*
X169389005Y-59842579D01*
X169576539Y-59967886D01*
X169784916Y-60054198D01*
X170006127Y-60098200D01*
X170231673Y-60098200D01*
X170452884Y-60054198D01*
X170661261Y-59967886D01*
X170848795Y-59842579D01*
X171008279Y-59683095D01*
X171133586Y-59495561D01*
X171219898Y-59287184D01*
X171263900Y-59065973D01*
X171263900Y-58840427D01*
X171219898Y-58619216D01*
X171150274Y-58451128D01*
X171208402Y-58342380D01*
X171244712Y-58222682D01*
X171256972Y-58098200D01*
X171256972Y-56767000D01*
X171520828Y-56767000D01*
X171520828Y-58098200D01*
X171533088Y-58222682D01*
X171569398Y-58342380D01*
X171627526Y-58451128D01*
X171557902Y-58619216D01*
X171513900Y-58840427D01*
X171513900Y-59065973D01*
X171557902Y-59287184D01*
X171644214Y-59495561D01*
X171769521Y-59683095D01*
X171929005Y-59842579D01*
X172116539Y-59967886D01*
X172324916Y-60054198D01*
X172546127Y-60098200D01*
X172771673Y-60098200D01*
X172992884Y-60054198D01*
X173201261Y-59967886D01*
X173388795Y-59842579D01*
X173548279Y-59683095D01*
X173673586Y-59495561D01*
X173759898Y-59287184D01*
X173803900Y-59065973D01*
X173803900Y-58840427D01*
X173759898Y-58619216D01*
X173690274Y-58451128D01*
X173748402Y-58342380D01*
X173784712Y-58222682D01*
X173796972Y-58098200D01*
X173796972Y-56538200D01*
X173784712Y-56413718D01*
X173748402Y-56294020D01*
X173716106Y-56233600D01*
X174069499Y-56233600D01*
X174116546Y-56280647D01*
X174109398Y-56294020D01*
X174073088Y-56413718D01*
X174060828Y-56538200D01*
X174060828Y-58098200D01*
X174073088Y-58222682D01*
X174109398Y-58342380D01*
X174167526Y-58451128D01*
X174097902Y-58619216D01*
X174053900Y-58840427D01*
X174053900Y-59065973D01*
X174097902Y-59287184D01*
X174184214Y-59495561D01*
X174309521Y-59683095D01*
X174469005Y-59842579D01*
X174656539Y-59967886D01*
X174864916Y-60054198D01*
X175086127Y-60098200D01*
X175311673Y-60098200D01*
X175532884Y-60054198D01*
X175741261Y-59967886D01*
X175928795Y-59842579D01*
X176088279Y-59683095D01*
X176213586Y-59495561D01*
X176299898Y-59287184D01*
X176343900Y-59065973D01*
X176343900Y-58840427D01*
X176299898Y-58619216D01*
X176230274Y-58451128D01*
X176288402Y-58342380D01*
X176324712Y-58222682D01*
X176336972Y-58098200D01*
X176336972Y-56538200D01*
X176324712Y-56413718D01*
X176288402Y-56294020D01*
X176229437Y-56183706D01*
X176150085Y-56087015D01*
X176053394Y-56007663D01*
X175943080Y-55948698D01*
X175866823Y-55925566D01*
X175833874Y-55863924D01*
X175738901Y-55748199D01*
X175709904Y-55724402D01*
X174948103Y-54962602D01*
X174924301Y-54933599D01*
X174808576Y-54838626D01*
X174676547Y-54768054D01*
X174533286Y-54724597D01*
X174421633Y-54713600D01*
X174421622Y-54713600D01*
X174384300Y-54709924D01*
X174346978Y-54713600D01*
X168871133Y-54713600D01*
X168833800Y-54709923D01*
X168796467Y-54713600D01*
X168684814Y-54724597D01*
X168541553Y-54768054D01*
X168409524Y-54838626D01*
X168293799Y-54933599D01*
X168270001Y-54962597D01*
X147242048Y-75990551D01*
X147213050Y-76014349D01*
X147189252Y-76043347D01*
X147189251Y-76043348D01*
X147118076Y-76130074D01*
X147047504Y-76262104D01*
X147004048Y-76405365D01*
X146989374Y-76554350D01*
X146993051Y-76591682D01*
X146993050Y-82175239D01*
X146949113Y-82219176D01*
X146835845Y-82388694D01*
X146757824Y-82577052D01*
X146718050Y-82777011D01*
X146718050Y-82839148D01*
X140028200Y-89528999D01*
X140028200Y-80147017D01*
X150077602Y-70097616D01*
X150139739Y-70097616D01*
X150339698Y-70057842D01*
X150528056Y-69979821D01*
X150697574Y-69866553D01*
X150841737Y-69722390D01*
X150955005Y-69552872D01*
X151033026Y-69364514D01*
X151072800Y-69164555D01*
X151072800Y-68960677D01*
X151033026Y-68760718D01*
X150955005Y-68572360D01*
X150841737Y-68402842D01*
X150697574Y-68258679D01*
X150528056Y-68145411D01*
X150339698Y-68067390D01*
X150139739Y-68027616D01*
X149935861Y-68027616D01*
X149735902Y-68067390D01*
X149547544Y-68145411D01*
X149378026Y-68258679D01*
X149233863Y-68402842D01*
X149120595Y-68572360D01*
X149042574Y-68760718D01*
X149002800Y-68960677D01*
X149002800Y-69022814D01*
X138757198Y-79268417D01*
X138728200Y-79292215D01*
X138704402Y-79321213D01*
X138704401Y-79321214D01*
X138633226Y-79407940D01*
X138562654Y-79539970D01*
X138519198Y-79683231D01*
X138504524Y-79832216D01*
X138508201Y-79869549D01*
X138508200Y-98858800D01*
X129413911Y-98858800D01*
X129369974Y-98814863D01*
X129200456Y-98701595D01*
X129012098Y-98623574D01*
X128812139Y-98583800D01*
X128608261Y-98583800D01*
X128408302Y-98623574D01*
X128219944Y-98701595D01*
X128050426Y-98814863D01*
X127906263Y-98959026D01*
X127792995Y-99128544D01*
X127714974Y-99316902D01*
X127675200Y-99516861D01*
X110763050Y-99516861D01*
X110763050Y-66965234D01*
X119947050Y-66965234D01*
X119947050Y-67287300D01*
X120009882Y-67603179D01*
X120133132Y-67900730D01*
X120312063Y-68168519D01*
X120539798Y-68396254D01*
X120807587Y-68575185D01*
X121105138Y-68698435D01*
X121421017Y-68761267D01*
X121743083Y-68761267D01*
X122058962Y-68698435D01*
X122356513Y-68575185D01*
X122624302Y-68396254D01*
X122758876Y-68261680D01*
X141126242Y-68261680D01*
X141222006Y-68526081D01*
X141511621Y-68666971D01*
X141823158Y-68748651D01*
X142144645Y-68767985D01*
X142463725Y-68724228D01*
X142768138Y-68619062D01*
X142942094Y-68526081D01*
X143037858Y-68261680D01*
X142082050Y-67305872D01*
X141126242Y-68261680D01*
X122758876Y-68261680D01*
X122852037Y-68168519D01*
X123030968Y-67900730D01*
X123154218Y-67603179D01*
X123217050Y-67287300D01*
X123217050Y-67188862D01*
X140440332Y-67188862D01*
X140484089Y-67507942D01*
X140589255Y-67812355D01*
X140682236Y-67986311D01*
X140946637Y-68082075D01*
X141902445Y-67126267D01*
X142261655Y-67126267D01*
X143217463Y-68082075D01*
X143481864Y-67986311D01*
X143622754Y-67696696D01*
X143704434Y-67385159D01*
X143723768Y-67063672D01*
X143680011Y-66744592D01*
X143574845Y-66440179D01*
X143481864Y-66266223D01*
X143217463Y-66170459D01*
X142261655Y-67126267D01*
X141902445Y-67126267D01*
X140946637Y-66170459D01*
X140682236Y-66266223D01*
X140541346Y-66555838D01*
X140459666Y-66867375D01*
X140440332Y-67188862D01*
X123217050Y-67188862D01*
X123217050Y-66965234D01*
X123154218Y-66649355D01*
X123030968Y-66351804D01*
X122852037Y-66084015D01*
X122758876Y-65990854D01*
X141126242Y-65990854D01*
X142082050Y-66946662D01*
X143037858Y-65990854D01*
X142942094Y-65726453D01*
X142652479Y-65585563D01*
X142340942Y-65503883D01*
X142019455Y-65484549D01*
X141700375Y-65528306D01*
X141395962Y-65633472D01*
X141222006Y-65726453D01*
X141126242Y-65990854D01*
X122758876Y-65990854D01*
X122624302Y-65856280D01*
X122356513Y-65677349D01*
X122058962Y-65554099D01*
X121743083Y-65491267D01*
X121421017Y-65491267D01*
X121105138Y-65554099D01*
X120807587Y-65677349D01*
X120539798Y-65856280D01*
X120312063Y-66084015D01*
X120133132Y-66351804D01*
X120009882Y-66649355D01*
X119947050Y-66965234D01*
X110763050Y-66965234D01*
X110763050Y-52983200D01*
X185543050Y-52983200D01*
X185543051Y-134113200D01*
M02*
